<svg width="18" height="18" viewBox="0 0 18 18" fill="none" xmlns="http://www.w3.org/2000/svg">
<path fill-rule="evenodd" clip-rule="evenodd" d="M0 8.11111C0 12.5908 3.63147 16.2222 8.11111 16.2222C12.5908 16.2222 16.2222 12.5908 16.2222 8.11111C16.2222 3.63147 12.5908 0 8.11111 0C3.63147 0 0 3.63147 0 8.11111ZM14.2222 8.11111C14.2222 11.4862 11.4862 14.2222 8.11111 14.2222C4.73604 14.2222 2 11.4862 2 8.11111C2 4.73604 4.73604 2 8.11111 2C11.4862 2 14.2222 4.73604 14.2222 8.11111Z" fill="#4F4F4F"/>
<path d="M17.7071 16.2929C18.0976 16.6834 18.0976 17.3165 17.7071 17.7071C17.3165 18.0976 16.6834 18.0976 16.2929 17.7071L12.4262 13.8404C12.0357 13.4499 12.0357 12.8167 12.4262 12.4262C12.8167 12.0357 13.4499 12.0357 13.8404 12.4262L17.7071 16.2929Z" fill="#4F4F4F"/>
</svg>
