<svg width="24" height="24" viewBox="0 0 24 24" fill="none" xmlns="http://www.w3.org/2000/svg">
<g clip-path="url(#clip0_11_45)">
<path d="M4.1871 5.375H5.59677L7.85968 16.415C7.9215 16.6501 8.05443 16.848 8.25847 17.0088C8.4625 17.1696 8.67581 17.25 8.89839 17.25H19.0444C19.2793 17.25 19.4988 17.1696 19.7028 17.0088C19.9069 16.848 20.0398 16.6501 20.1016 16.415L21.9194 9.41992C22.043 8.97461 22.0245 8.58496 21.8637 8.25098C21.703 7.91699 21.4556 7.75 21.1218 7.75L7.97097 5.46777L7.6371 3.81641C7.57527 3.59375 7.44234 3.40202 7.23831 3.24121C7.03427 3.0804 6.82097 3 6.59839 3H4.1871C3.85322 3 3.57191 3.11442 3.34314 3.34326C3.11438 3.5721 3 3.85042 3 4.17822C3 4.50602 3.11747 4.78743 3.35242 5.02246C3.58736 5.25749 3.86559 5.375 4.1871 5.375ZM16.6516 18.4375C16.157 18.4375 15.7366 18.6107 15.3903 18.957C15.0441 19.3034 14.871 19.724 14.871 20.2188C14.871 20.7135 15.0441 21.1341 15.3903 21.4805C15.7366 21.8268 16.157 22 16.6516 22C17.1462 22 17.5667 21.8268 17.9129 21.4805C18.2591 21.1341 18.4323 20.7135 18.4323 20.2188C18.4323 19.724 18.2591 19.3034 17.9129 18.957C17.5667 18.6107 17.1462 18.4375 16.6516 18.4375ZM10.7161 18.4375C10.2215 18.4375 9.80107 18.6107 9.45484 18.957C9.1086 19.3034 8.93548 19.724 8.93548 20.2188C8.93548 20.7135 9.1086 21.1341 9.45484 21.4805C9.80107 21.8268 10.2215 22 10.7161 22C11.2108 22 11.6312 21.8268 11.9774 21.4805C12.3237 21.1341 12.4968 20.7135 12.4968 20.2188C12.4968 19.724 12.3237 19.3034 11.9774 18.957C11.6312 18.6107 11.2108 18.4375 10.7161 18.4375Z" fill="#4F4F4F"/>
</g>
<defs>
<clipPath id="clip0_11_45">
<rect width="24" height="24" fill="white"/>
</clipPath>
</defs>
</svg>
