<svg width="20" height="21" viewBox="0 0 20 21" fill="none" xmlns="http://www.w3.org/2000/svg">
<path d="M13 20.065V15.065C13 14.2693 12.6839 13.5063 12.1213 12.9437C11.5587 12.3811 10.7956 12.065 10 12.065C9.20435 12.065 8.44129 12.3811 7.87868 12.9437C7.31607 13.5063 7 14.2693 7 15.065V20.065H2C1.46957 20.065 0.960859 19.8543 0.585786 19.4792C0.210714 19.1041 0 18.5954 0 18.065V7.19699C-3.32274e-06 6.85162 0.0894306 6.51213 0.259593 6.21159C0.429755 5.91104 0.674846 5.65969 0.971 5.48199L8.971 0.681992C9.28183 0.49549 9.63751 0.396973 10 0.396973C10.3625 0.396973 10.7182 0.49549 11.029 0.681992L19.029 5.48199C19.3252 5.65969 19.5702 5.91104 19.7404 6.21159C19.9106 6.51213 20 6.85162 20 7.19699V18.065C20 18.5954 19.7893 19.1041 19.4142 19.4792C19.0391 19.8543 18.5304 20.065 18 20.065H13Z" fill="#33907C"/>
</svg>
