<svg width="24" height="24" viewBox="0 0 24 24" fill="none" xmlns="http://www.w3.org/2000/svg">
<path d="M21.7314 6.36994C21.4304 5.67283 20.9963 5.04112 20.4534 4.51017C19.9102 3.97764 19.2696 3.55444 18.5667 3.26359C17.8378 2.9608 17.056 2.80582 16.2667 2.80763C15.1594 2.80763 14.079 3.11086 13.1401 3.68361C12.9155 3.82062 12.7021 3.97111 12.5 4.13507C12.2979 3.97111 12.0845 3.82062 11.8599 3.68361C10.921 3.11086 9.84062 2.80763 8.7333 2.80763C7.93594 2.80763 7.16328 2.96037 6.4333 3.26359C5.72803 3.55558 5.09238 3.9756 4.54658 4.51017C4.00302 5.04052 3.56881 5.67238 3.26855 6.36994C2.95635 7.09543 2.79688 7.86584 2.79688 8.65871C2.79688 9.40666 2.94961 10.186 3.25283 10.9789C3.50664 11.6415 3.87051 12.3288 4.33545 13.0229C5.07217 14.1212 6.08516 15.2667 7.34297 16.4279C9.42734 18.3528 11.4915 19.6825 11.5791 19.7364L12.1114 20.0778C12.3473 20.2283 12.6505 20.2283 12.8863 20.0778L13.4187 19.7364C13.5063 19.6803 15.5682 18.3528 17.6548 16.4279C18.9126 15.2667 19.9256 14.1212 20.6623 13.0229C21.1272 12.3288 21.4934 11.6415 21.7449 10.9789C22.0481 10.186 22.2009 9.40666 22.2009 8.65871C22.2031 7.86584 22.0437 7.09543 21.7314 6.36994ZM12.5 18.3012C12.5 18.3012 4.50391 13.1778 4.50391 8.65871C4.50391 6.36994 6.39736 4.51466 8.7333 4.51466C10.3752 4.51466 11.7992 5.43107 12.5 6.76974C13.2008 5.43107 14.6248 4.51466 16.2667 4.51466C18.6026 4.51466 20.4961 6.36994 20.4961 8.65871C20.4961 13.1778 12.5 18.3012 12.5 18.3012Z" fill="white"/>
</svg>
