<svg width="303" height="249" viewBox="0 0 303 249" fill="none" xmlns="http://www.w3.org/2000/svg">
<path d="M151.219 248.96C234.614 248.96 302.219 242.692 302.219 234.96C302.219 227.228 234.614 220.96 151.219 220.96C67.8239 220.96 0.218872 227.228 0.218872 234.96C0.218872 242.692 67.8239 248.96 151.219 248.96Z" fill="#BCBCBC"/>
<path fill-rule="evenodd" clip-rule="evenodd" d="M103.821 135.346C103.821 135.346 105.682 123.53 117.709 121.264C125.047 119.883 131.388 123.553 136.755 129.623C137.971 131 139.142 132.53 140.271 134.203C130.538 140.587 103.63 140.492 103.821 135.346Z" fill="#3446AD"/>
<path fill-rule="evenodd" clip-rule="evenodd" d="M117.865 118.81C117.865 118.81 117.71 120.521 116.922 122.331C117.542 123.356 119.152 123.979 120.854 123.987C123.442 124 124.114 122.542 124.114 122.542C124.114 122.542 123.354 121.432 123.758 118.81C122.265 118.205 117.865 118.81 117.865 118.81Z" fill="#FFD4D6"/>
<path fill-rule="evenodd" clip-rule="evenodd" d="M127.11 112.589C127.11 112.589 127.795 111.153 128.766 111.601C129.737 112.049 127.056 117.335 126.619 115.269C126.666 113.366 127.11 112.589 127.11 112.589Z" fill="#FFD4D6"/>
<path fill-rule="evenodd" clip-rule="evenodd" d="M114.312 112.589C114.312 112.589 113.626 111.153 112.655 111.601C111.686 112.049 114.364 117.335 114.804 115.269C114.754 113.366 114.312 112.589 114.312 112.589Z" fill="#FFD4D6"/>
<path fill-rule="evenodd" clip-rule="evenodd" d="M114.337 110.544C114.337 110.544 113.987 115.087 116.034 117.534C117.705 119.532 119.424 120.786 121.067 120.786C122.709 120.786 124.702 119.038 125.832 117.238C126.962 115.437 127.286 111.566 127.258 110.086C127.232 108.608 125.39 101.981 119.155 102.438C114.203 102.801 114.337 110.544 114.337 110.544Z" fill="#FFD4D6"/>
<path fill-rule="evenodd" clip-rule="evenodd" d="M123.772 109.548C122.637 109.548 121.716 110.469 121.716 111.601C121.716 112.734 122.637 113.655 123.772 113.655C124.905 113.655 125.827 112.734 125.827 111.601C125.827 110.469 124.905 109.548 123.772 109.548ZM123.772 113.883C122.512 113.883 121.486 112.859 121.486 111.601C121.486 110.343 122.512 109.318 123.772 109.318C125.031 109.318 126.057 110.343 126.057 111.601C126.057 112.859 125.031 113.883 123.772 113.883Z" fill="#262626"/>
<path fill-rule="evenodd" clip-rule="evenodd" d="M117.642 109.548C116.51 109.548 115.587 110.469 115.587 111.601C115.587 112.734 116.51 113.655 117.642 113.655C118.777 113.655 119.698 112.734 119.698 111.601C119.698 110.469 118.777 109.548 117.642 109.548ZM117.642 113.883C116.383 113.883 115.357 112.859 115.357 111.601C115.357 110.343 116.383 109.318 117.642 109.318C118.902 109.318 119.928 110.343 119.928 111.601C119.928 112.859 118.902 113.883 117.642 113.883Z" fill="#262626"/>
<mask id="mask0_2_392" style="mask-type:luminance" maskUnits="userSpaceOnUse" x="2" y="0" width="300" height="247">
<path fill-rule="evenodd" clip-rule="evenodd" d="M2 246.553H301.34V0H2V246.553Z" fill="white"/>
</mask>
<g mask="url(#mask0_2_392)">
<path fill-rule="evenodd" clip-rule="evenodd" d="M119.711 110.81H121.759V110.581H119.711V110.81Z" fill="#262626"/>
<path fill-rule="evenodd" clip-rule="evenodd" d="M116.087 105.327C116.087 105.327 117.268 106.386 121.863 107.739C121.57 107.092 120.788 105.856 120.788 105.856C120.788 105.856 122.571 107.739 124.516 108.328C124.398 108.034 123.927 107.503 123.751 106.828C124.929 107.974 125.74 108.174 126.344 108.328C126.946 108.482 126.53 109.591 126.873 110.506C127.217 111.421 126.688 113.242 126.619 113.771C127.697 112.065 127.939 111.728 128.642 111.558C129.349 111.389 132.579 103.162 125.212 99.9843C119.193 97.3877 117.148 99.8852 116.087 100.985C112.445 100.455 111.913 107.625 112.907 111.516C114.312 112.589 114.295 112.722 114.662 113.771C114.792 111.957 114.734 111.093 114.803 110.231C114.871 109.368 116.636 107.445 116.087 105.327Z" fill="#282828"/>
<path fill-rule="evenodd" clip-rule="evenodd" d="M106.068 107.616L129.716 109.13C129.716 109.13 131.717 102.164 127.261 99.9762C122.804 97.7875 115.191 97.5131 112.859 101.828C111.625 104.088 111.488 106.007 111.488 106.007C111.488 106.007 102.571 105.869 106.068 107.616Z" fill="#F2387F"/>
<path opacity="0.4" fill-rule="evenodd" clip-rule="evenodd" d="M136.214 139.838C136.214 139.838 164.391 121.187 168.978 100.246C173.565 79.3071 171.107 69.5278 171.627 64.93C172.551 56.7371 199.422 56.2149 204.336 74.5379C209.25 92.8609 203.084 115.952 201.117 117.915C229.294 117.915 245.457 119.551 251.682 119.551C260.301 119.551 269.56 137.547 258.093 149.981C268.249 158.16 269.069 168.467 258.093 179.429C264.974 188.917 256.782 202.333 246.954 204.95C253.835 215.421 244.333 228.509 226.968 228.509H154.234C147.354 228.509 136.214 219.019 136.214 219.019V139.838Z" fill="#33907C"/>
<path fill-rule="evenodd" clip-rule="evenodd" d="M199.499 76.7576C204.066 93.9988 198.337 115.727 196.51 117.574C198.173 117.574 199.787 117.58 201.36 117.591C203.538 114.193 209.063 92.1646 204.336 74.5377C199.56 56.7316 174.056 56.724 171.771 64.2575C178.488 60.432 195.776 62.6946 199.499 76.7576Z" fill="#EDEDED"/>
<path fill-rule="evenodd" clip-rule="evenodd" d="M258.093 149.981C269.559 137.547 260.301 119.551 251.682 119.551C250.081 119.551 247.808 119.442 244.856 119.281C252.411 121.035 259.487 136.715 249.441 147.746C258.877 155.443 259.637 165.141 249.441 175.455C255.833 184.384 248.224 197.008 239.092 199.47C245.484 209.323 236.658 228.509 220.526 228.509H226.969C244.333 228.509 253.835 215.421 246.954 204.95C256.782 202.333 264.974 188.917 258.093 179.429C269.069 168.467 268.249 158.16 258.093 149.981Z" fill="#EDEDED"/>
<path fill-rule="evenodd" clip-rule="evenodd" d="M247.012 233H249.302V123.794H247.012V233Z" fill="#545454"/>
<path fill-rule="evenodd" clip-rule="evenodd" d="M213.043 233H215.333V123.794H213.043V233Z" fill="#545454"/>
<path fill-rule="evenodd" clip-rule="evenodd" d="M214.188 222.804H247.585V219.945H214.188V222.804Z" fill="#545454"/>
<path fill-rule="evenodd" clip-rule="evenodd" d="M214.188 205.27H247.585V202.411H214.188V205.27Z" fill="#545454"/>
<path fill-rule="evenodd" clip-rule="evenodd" d="M214.188 187.736H247.585V184.877H214.188V187.736Z" fill="#545454"/>
<path fill-rule="evenodd" clip-rule="evenodd" d="M214.188 170.203H247.585V167.344H214.188V170.203Z" fill="#545454"/>
<path fill-rule="evenodd" clip-rule="evenodd" d="M214.188 152.668H247.585V149.81H214.188V152.668Z" fill="#545454"/>
<path fill-rule="evenodd" clip-rule="evenodd" d="M214.188 135.134H247.585V132.275H214.188V135.134Z" fill="#545454"/>
<path opacity="0.4" fill-rule="evenodd" clip-rule="evenodd" d="M141.129 231.125H26.7353V221.863L131.081 133.621H141.129V231.125Z" fill="#33907C"/>
<path opacity="0.4" fill-rule="evenodd" clip-rule="evenodd" d="M131.081 231.125V133.621C131.081 133.621 63.8604 131.354 37.4718 175.274C24.4947 196.873 26.7352 231.125 26.7352 231.125H131.081Z" fill="#33907C"/>
<path fill-rule="evenodd" clip-rule="evenodd" d="M116.49 131.72C116.49 131.72 115.062 131.381 114.012 131.483C112.962 131.586 109.211 131.865 107.882 134.861C107.513 135.722 109.091 136.092 110.474 135.352C111.857 134.612 113.021 134.667 113.923 134.788C114.823 134.909 115.61 134.585 116.246 134.327C116.882 134.069 116.49 131.72 116.49 131.72Z" fill="#FFD4D6"/>
<path fill-rule="evenodd" clip-rule="evenodd" d="M135.915 128.706C135.915 128.706 133.91 130.365 129.33 129.996C124.75 129.628 117.37 130.867 115.716 131.312C116.034 133.345 116.225 134.806 116.225 134.806C116.225 134.806 124.167 133.917 127.798 134.235C131.428 134.552 139.467 136.007 139.539 133.726C139.589 132.136 137.281 129.375 135.915 128.706Z" fill="#4E65C6"/>
<path fill-rule="evenodd" clip-rule="evenodd" d="M124.189 128.446C124.189 128.446 125.513 127.813 126.561 127.691C127.608 127.569 131.333 127.046 133.27 129.692C133.812 130.455 132.349 131.152 130.84 130.72C129.331 130.29 128.206 130.591 127.35 130.9C126.495 131.209 125.659 131.06 124.982 130.942C124.306 130.824 124.189 128.446 124.189 128.446Z" fill="#FFD4D6"/>
<path fill-rule="evenodd" clip-rule="evenodd" d="M106.141 129.325C106.141 129.325 106.879 130.812 111.276 129.482C115.673 128.151 123.147 127.799 124.86 127.883C124.98 129.938 125.104 131.406 125.104 131.406C125.104 131.406 117.154 132.22 113.673 133.299C110.193 134.378 104.28 137.197 103.724 134.984C103.338 133.44 104.949 130.267 106.141 129.325Z" fill="#4E65C6"/>
<path fill-rule="evenodd" clip-rule="evenodd" d="M77.0711 159.995C77.0711 159.995 77.4215 161.202 77.3261 162.091C77.2307 162.981 76.9765 166.158 73.9864 167.301C73.1276 167.618 72.7452 166.285 73.4772 165.109C74.2085 163.934 74.1452 162.949 74.0177 162.187C73.891 161.424 74.2093 160.757 74.4635 160.218C74.7177 159.678 77.0711 159.995 77.0711 159.995Z" fill="#FFD4D6"/>
<path fill-rule="evenodd" clip-rule="evenodd" d="M97.9695 107.238C97.9695 107.238 100.966 110.815 101.724 116.72C102.476 122.625 105.776 134.025 101.8 132.068C95.1337 128.785 89.194 130.355 85.8573 130.23C79.184 129.98 80.6108 130.115 80.9695 127.497C81.3321 124.882 84.5436 112.453 86.3581 109.991C88.1711 107.533 93.0566 102.883 97.9695 107.238Z" fill="#282828"/>
<path fill-rule="evenodd" clip-rule="evenodd" d="M103.002 225.856C103.002 225.856 105.424 228.493 106.235 230.256C107.046 232.019 110.985 235.338 111.558 236.338C112.13 237.339 111.224 238.148 110.461 238.1C109.698 238.053 104.629 237.347 101.071 234.032C101.071 234.33 101.035 235.219 101.035 235.219L99.9854 235.187C99.9854 235.187 98.8434 226.141 100.024 225.856C101.205 225.57 103.002 225.856 103.002 225.856Z" fill="#444444"/>
<path fill-rule="evenodd" clip-rule="evenodd" d="M89.8588 224.392L87.3214 224.188C87.3214 224.188 87.281 224.207 87.2077 224.245C86.8588 224.429 86.2481 225.49 85.4573 226.898C84.5031 228.598 82.5978 235.052 82.884 235.767C83.1703 236.481 84.4046 238.482 85.5772 238.816C86.7489 239.15 88.8077 237.244 89.5711 236.196C90.3344 235.148 90.5046 226.492 89.8588 224.392Z" fill="#444444"/>
<path fill-rule="evenodd" clip-rule="evenodd" d="M102.493 222.044C102.493 222.044 103.972 227.237 104.927 228.429C105.88 229.62 103.256 231.526 101.587 230.764C99.9167 230.001 100.203 225.951 99.8213 224.188C99.4396 222.425 102.493 222.044 102.493 222.044Z" fill="#FFD4D6"/>
<path fill-rule="evenodd" clip-rule="evenodd" d="M87.1305 221.329C87.1305 221.329 86.7488 225.188 86.3198 226.094C85.89 226.999 84.8877 228.143 86.3198 228.953C87.7503 229.763 90.1839 229.524 89.8503 227.094C89.516 224.664 90.3267 222.043 90.3267 222.043L87.1305 221.329Z" fill="#FFD4D6"/>
<path fill-rule="evenodd" clip-rule="evenodd" d="M103.002 167.079C103.002 167.079 96.7679 195.414 94.8595 199.098C92.9511 202.783 91.0427 222.985 91.0427 222.985L85.3175 222.096C85.3175 222.096 87.8625 197.954 90.5343 188.298C93.2061 178.642 89.8977 167.079 89.8977 167.079H103.002Z" fill="#2C4199"/>
<path fill-rule="evenodd" clip-rule="evenodd" d="M82.1373 167.079C82.1373 167.079 82.3915 171.017 84.5541 176.481C86.7175 181.945 93.206 197.954 93.7144 199.86C94.0961 206.213 97.277 220.954 99.1854 225.147C102.493 224.512 103.511 223.241 103.511 223.241C103.511 223.241 100.585 201.387 99.8213 197.956C99.0579 194.526 92.0847 167.715 92.0847 167.715L82.1373 167.079Z" fill="#3446AD"/>
<path fill-rule="evenodd" clip-rule="evenodd" d="M101.062 151.003V141.283C101.062 141.283 104.974 148.24 105.356 149.097C105.737 149.955 101.062 151.003 101.062 151.003ZM111.844 149.955C110.317 145.572 103.376 131.805 102.016 130.728C100.657 129.651 92.3473 127.303 92.3473 127.303C86.303 126.187 80.1702 129.702 78.8343 131.344C77.4984 132.986 69.4694 138.919 67.7999 145.161C67.1801 147.477 74.1931 154.024 73.0312 161.075L77.6755 160.313C77.3709 160.02 77.5412 155.041 76.3877 151.546C75.2686 148.159 73.6076 144.761 73.9862 144.336C74.5877 143.66 81.7465 138.554 81.7465 138.554C81.8106 140.46 80.9702 149.764 80.9702 149.764L80.4511 155.577C80.4511 155.577 80.6419 157.674 78.4473 167.013C90.7564 171.777 105.928 167.68 105.928 167.013C105.928 166.346 102.588 157.102 102.588 157.102C102.588 157.102 113.371 154.339 111.844 149.955Z" fill="#FFEB75"/>
<path fill-rule="evenodd" clip-rule="evenodd" d="M86.3328 117.113C86.3328 117.113 85.9748 115.566 84.9313 115.792C83.8893 116.019 85.3565 121.755 86.2282 119.836C86.5969 117.969 86.3328 117.113 86.3328 117.113Z" fill="#FFD4D6"/>
<path fill-rule="evenodd" clip-rule="evenodd" d="M95.195 114.922C95.195 114.922 98.5942 122.389 96.0675 124.334C94.0026 125.922 92.0538 126.775 90.4507 126.418C88.8492 126.063 87.2858 123.929 86.5729 121.927C85.8599 119.925 86.382 116.079 86.7293 114.643C87.0751 113.206 90.311 107.139 96.2912 108.933C101.045 110.357 95.195 114.922 95.195 114.922Z" fill="#FFD4D6"/>
<path fill-rule="evenodd" clip-rule="evenodd" d="M91.6286 109.9C91.6286 109.9 88.1797 114.653 86.2805 116.662C86.1645 116.368 85.4484 116.434 86.1881 113.669C86.9263 110.902 91.7301 106.765 96.5103 107.946C101.291 109.13 100.645 116.601 99.2011 119.496C98.1973 118.394 91.5049 110.957 91.6286 109.9Z" fill="#282828"/>
<path fill-rule="evenodd" clip-rule="evenodd" d="M94.0037 125.182C94.0037 125.182 93.5472 127.424 94.8472 129.576C92.4548 130.865 91.28 130.935 89.6518 130.452C88.022 129.965 86.348 127.829 86.348 127.829C86.348 127.829 88.08 126.552 88.2548 123.909C89.8426 123.642 94.0037 125.182 94.0037 125.182Z" fill="#FFD4D6"/>
<path fill-rule="evenodd" clip-rule="evenodd" d="M96.378 125.086C96.378 125.086 95.4872 136.266 91.0345 139.253C97.8406 139.697 103.791 133.874 103.678 130.727C103.563 127.58 96.378 125.086 96.378 125.086Z" fill="#282828"/>
<path fill-rule="evenodd" clip-rule="evenodd" d="M289.534 144.329C289.534 144.329 289.825 143.598 289.877 142.319C289.929 141.041 291.81 139.62 292.67 139.076C293.53 138.532 296.67 137.527 296.728 137.785C296.785 138.044 298.288 138.792 297.086 140.934C296.345 142.254 292.625 144.587 292.345 145.824C292.063 147.063 289.534 144.329 289.534 144.329Z" fill="#FFD4D6"/>
<path fill-rule="evenodd" clip-rule="evenodd" d="M265.012 140.81C265.012 140.81 259.224 138.528 259.309 142.743C259.394 146.958 272.946 157.709 276.182 159.445C279.417 161.182 290.326 150.184 292.227 147.952C293.716 145.491 290.389 143.14 288.69 143.558C286.992 143.978 278.276 151.849 277.481 151.591C276.688 151.333 270.506 143.096 265.012 140.81Z" fill="#864596"/>
<path fill-rule="evenodd" clip-rule="evenodd" d="M264.936 223.956C264.936 223.956 264.61 228.959 265.471 230.11C266.331 231.259 277.889 230.557 280.068 230.792C282.246 231.028 284.361 227.861 281.499 227.449C278.634 227.035 268.982 225.486 268.465 223.045C267.95 220.604 264.936 223.956 264.936 223.956Z" fill="#333333"/>
<path fill-rule="evenodd" clip-rule="evenodd" d="M261.905 191.664C261.905 191.664 256.976 191.036 255.784 191.815C254.594 192.594 254.582 204.043 254.217 206.179C253.851 208.314 256.856 210.597 257.439 207.796C258.023 204.993 260.143 195.562 262.592 195.203C265.039 194.842 261.905 191.664 261.905 191.664Z" fill="#333333"/>
<path fill-rule="evenodd" clip-rule="evenodd" d="M278.531 166.918C278.531 166.918 290.032 183.177 290.497 186.395C290.964 189.612 292.528 193.665 261.735 196.615C261.123 193.772 261.252 191.104 261.252 191.104C261.252 191.104 277.951 186.626 281.467 186.789C276.019 178.849 267.883 174.04 266.69 172.94C265.498 171.842 269.367 165.695 269.367 165.695L278.531 166.918Z" fill="#246642"/>
<path fill-rule="evenodd" clip-rule="evenodd" d="M259.328 170.461C259.328 170.461 264.612 187.126 265.307 192.126C265.028 199.348 263.499 219.475 263.917 224.201H270.313C270.313 224.201 272.522 204.01 273.219 200.26C273.914 196.511 274.74 188.449 273.88 181.746C272.827 173.524 272.342 167.676 272.342 167.676L259.328 170.461Z" fill="#2F8C57"/>
<path fill-rule="evenodd" clip-rule="evenodd" d="M271.838 116.916C271.838 116.916 268.273 121.129 268.204 121.221C268.134 121.314 272.957 129.624 272.957 129.624C272.957 129.624 274.207 127.192 275.179 126.082C276.154 124.97 271.838 116.916 271.838 116.916Z" fill="#FFD4D6"/>
<path fill-rule="evenodd" clip-rule="evenodd" d="M286.638 114.796C286.638 114.796 286.417 118.512 285.564 119.911C284.71 121.309 285.587 122.622 285.727 123.611C285.865 124.6 284.669 124.381 283.632 123.903C282.282 125.644 280.801 128.915 277.374 128.304C273.948 127.696 270.471 121.703 272.38 118.411C273.099 115.479 276.965 110.635 276.965 110.635L286.638 114.796Z" fill="#FFD4D6"/>
<path fill-rule="evenodd" clip-rule="evenodd" d="M280.207 111.036C280.207 111.036 278.804 114.335 277.29 114.623C275.775 114.912 275.116 117.409 275.116 117.409L273.876 116.883C273.876 116.883 271.972 116.152 271.673 117.585C271.378 119.015 269.326 119.907 269.326 119.907C269.326 119.907 268.974 111.747 272.068 109.454C275.161 107.161 280.207 111.036 280.207 111.036Z" fill="#703518"/>
<path fill-rule="evenodd" clip-rule="evenodd" d="M286.721 117.399L264.032 111.527C264.032 111.527 262.768 109.523 265.438 110.106C268.106 110.689 270.285 111.22 270.285 111.22C270.285 111.22 272.775 105.394 276.146 104.904C279.515 104.413 288.314 104.994 286.721 117.399Z" fill="#7F3C8F"/>
<path fill-rule="evenodd" clip-rule="evenodd" d="M273.005 127.634C273.005 127.634 276.651 129.713 277.589 135.685C278.527 141.658 279.136 154.916 279.589 158.163C280.043 161.41 282.179 172.158 282.179 172.158C282.179 172.158 264.043 174.182 258.441 175.385C256.561 167.436 254.592 150.435 255.572 143.37C256.553 136.301 257.821 133.576 259.364 132.015C258.31 126.68 260.25 116.845 263.418 114.309C265.615 115.942 273.005 127.634 273.005 127.634Z" fill="#C075D2"/>
<path fill-rule="evenodd" clip-rule="evenodd" d="M274.53 115.628C274.53 115.628 274.139 113.2 272.282 113.613C270.423 114.027 271.839 120.089 273.082 119.347C274.324 118.604 274.53 115.628 274.53 115.628Z" fill="#FFD4D6"/>
<path fill-rule="evenodd" clip-rule="evenodd" d="M266.772 136.546C266.772 136.546 268.008 130.455 263.867 131.278C259.727 132.099 251.503 147.307 250.357 150.792C249.213 154.278 261.967 163.079 264.499 164.557C267.187 165.588 268.923 161.906 268.211 160.308C267.5 158.712 258.213 151.521 258.329 150.695C258.446 149.87 265.482 142.348 266.772 136.546Z" fill="#864596"/>
<path fill-rule="evenodd" clip-rule="evenodd" d="M300.729 134.432L300.331 134.001L290.693 142.198L291.092 142.628L293.157 144.035L300.729 134.432Z" fill="#E0E0E0"/>
<path fill-rule="evenodd" clip-rule="evenodd" d="M300.33 134.001L297.811 132.998L290.692 142.197L292.757 143.602L300.33 134.001Z" fill="#FCFCFC"/>
<path fill-rule="evenodd" clip-rule="evenodd" d="M292.299 139.323C292.299 139.323 293.677 138.178 294.342 138.191C295.007 138.203 294.52 139.053 293.758 139.403C292.996 139.756 292.018 140.484 291.819 140.741C291.619 140.999 292.299 139.323 292.299 139.323Z" fill="#FAB490"/>
<path fill-rule="evenodd" clip-rule="evenodd" d="M297.375 138.687C297.375 138.687 296.416 137.98 295.898 138.323C295.379 138.668 295.921 138.878 295.921 138.878C295.921 138.878 295.162 138.962 295.218 139.438C295.27 139.627 295.487 139.676 295.487 139.676C295.487 139.676 294.892 139.85 294.769 140.118C294.646 140.387 294.803 140.523 294.986 140.534C294.546 140.729 294.448 141.21 294.84 141.308C295.227 141.407 295.927 141.16 296.5 140.679C297.075 140.197 297.817 139.17 297.375 138.687Z" fill="#FFD4D6"/>
<path fill-rule="evenodd" clip-rule="evenodd" d="M44.9467 174.13C44.9467 174.13 49.6276 175.179 57.1597 172.077C61.9933 168.04 60.491 162.53 60.491 162.53L38.5421 161.711L44.9467 174.13Z" fill="#5B4199"/>
<path fill-rule="evenodd" clip-rule="evenodd" d="M51.6283 233.022L55.4863 233.142C55.4657 231.101 55.5466 228.294 55.5466 228.294C55.5466 228.294 51.9978 227.396 52.0222 228.94C52.0359 229.819 51.8512 231.538 51.6283 233.022Z" fill="#FFD4D6"/>
<path fill-rule="evenodd" clip-rule="evenodd" d="M51.5187 229.189C51.5187 229.189 51.7454 224.467 50.9737 218.571C50.2027 212.675 48.4813 196.043 52.6752 193.864C56.8698 191.684 58.3775 199.042 58.1065 203.851C57.8347 208.658 56.3271 228.758 56.3271 228.758C56.3271 228.758 54.8721 229.985 51.5187 229.189Z" fill="#5B4199"/>
<path fill-rule="evenodd" clip-rule="evenodd" d="M60.9773 161.773C60.9773 161.773 60.8032 195.529 58.0582 198.426C54.3849 202.3 50.4406 198.825 50.4406 198.825C50.4406 198.825 49.6719 178.185 49.1933 174.899C48.7162 171.611 58.9345 161.751 60.9773 161.773Z" fill="#5B4199"/>
<path fill-rule="evenodd" clip-rule="evenodd" d="M56.3747 233.38C56.3747 233.38 56.3869 231.327 53.6228 230.987C50.922 230.649 50.019 233.099 50.1541 234.884C50.2892 236.668 53.435 235.811 54.832 235.919C56.2289 236.026 57.2594 235.456 56.3747 233.38Z" fill="#333333"/>
<path fill-rule="evenodd" clip-rule="evenodd" d="M43.1211 232.759L39.2631 232.639C39.4104 230.603 39.5043 227.796 39.5043 227.796C39.5043 227.796 43.102 227.12 42.9814 228.659C42.9142 229.536 42.9913 231.263 43.1211 232.759Z" fill="#FFD4D6"/>
<path fill-rule="evenodd" clip-rule="evenodd" d="M43.4692 228.939C43.4692 228.939 43.5363 224.211 44.6722 218.375C45.8073 212.538 48.5592 196.047 44.5089 193.61C40.4585 191.174 38.4959 198.426 38.4676 203.241C38.4402 208.056 38.6966 228.211 38.6966 228.211C38.6966 228.211 40.073 229.526 43.4692 228.939Z" fill="#5B4199"/>
<path fill-rule="evenodd" clip-rule="evenodd" d="M38.2166 161.067C38.2166 161.067 36.293 194.768 38.8533 197.83C42.2777 201.925 46.4311 198.7 46.4311 198.7C46.4311 198.7 48.4808 178.149 49.1624 174.898C49.8426 171.646 40.2571 161.171 38.2166 161.067Z" fill="#5B4199"/>
<path fill-rule="evenodd" clip-rule="evenodd" d="M38.362 232.822C38.362 232.822 38.4773 230.772 41.2574 230.604C43.9734 230.434 44.7231 232.935 44.4773 234.708C44.2307 236.481 41.1452 235.431 39.7444 235.451C38.3437 235.472 37.3498 234.839 38.362 232.822Z" fill="#333333"/>
<path fill-rule="evenodd" clip-rule="evenodd" d="M48.642 133.754C48.642 133.754 45.2954 133.715 43.1992 134.432C40.8275 135.241 39.9275 136.095 39.3305 136.371C39.4954 137.001 40.5084 142.289 40.0923 144.628C39.6763 146.965 35.4359 173.241 35.4359 173.241L63.9885 178.958L62.1656 146.095C62.1656 146.095 62.6778 139.101 63.9885 137.136C63.0885 135.325 56.1901 134.115 55.0778 133.954C53.9656 133.792 48.642 133.754 48.642 133.754Z" fill="#F68B50"/>
<path fill-rule="evenodd" clip-rule="evenodd" d="M45.5036 137.396L46.0983 138.7L47.5112 138.95L46.4525 139.919L46.6517 141.337L45.4028 140.63L44.1128 141.258L44.399 139.855L43.4028 138.823L44.8288 138.66L45.5036 137.396Z" fill="#FFF3B8"/>
<path fill-rule="evenodd" clip-rule="evenodd" d="M55.454 140.869L55.3869 141.74L56.0678 142.288L55.2166 142.494L54.9044 143.309L54.4472 142.565L53.5731 142.521L54.1395 141.856L53.9121 141.012L54.7212 141.346L55.454 140.869Z" fill="#FFF3B8"/>
<path fill-rule="evenodd" clip-rule="evenodd" d="M49.2823 148.394L49.8502 149.057L50.7204 148.965L50.2647 149.711L50.6212 150.507L49.7708 150.304L49.1212 150.889L49.051 150.02L48.293 149.584L49.1014 149.248L49.2823 148.394Z" fill="#FFF3B8"/>
<path fill-rule="evenodd" clip-rule="evenodd" d="M44.187 144.567L44.6199 145.074L45.2824 145.002L44.9351 145.571L45.2069 146.178L44.5588 146.023L44.0649 146.469L44.0115 145.806L43.4351 145.474L44.0496 145.218L44.187 144.567Z" fill="#FFF3B8"/>
<path fill-rule="evenodd" clip-rule="evenodd" d="M59.733 151.746L59.3445 152.915L60.0888 153.894L58.8575 153.889L58.1521 154.898L57.7788 153.725L56.6002 153.369L57.5995 152.651L57.5766 151.421L58.5697 152.15L59.733 151.746Z" fill="#FFF3B8"/>
<path fill-rule="evenodd" clip-rule="evenodd" d="M59.7002 137.114L59.4781 137.782L59.904 138.344L59.1987 138.34L58.7949 138.918L58.5811 138.246L57.9063 138.043L58.4781 137.632L58.4659 136.928L59.0338 137.345L59.7002 137.114Z" fill="#FFF3B8"/>
<path fill-rule="evenodd" clip-rule="evenodd" d="M45.0958 150.808L44.7561 151.833L45.4088 152.691L44.3278 152.686L43.711 153.571L43.3836 152.542L42.35 152.23L43.2263 151.6L43.2057 150.522L44.0759 151.162L45.0958 150.808Z" fill="#FFF3B8"/>
<path fill-rule="evenodd" clip-rule="evenodd" d="M58.0058 145.611L57.6661 146.637L58.3188 147.496L57.2379 147.49L56.6211 148.375L56.2936 147.346L55.26 147.034L56.1363 146.405L56.1157 145.326L56.986 145.967L58.0058 145.611Z" fill="#FFF3B8"/>
<path fill-rule="evenodd" clip-rule="evenodd" d="M60.1565 161.273L58.7649 161.624L58.2641 162.967L57.5008 161.752L56.0679 161.693L56.9885 160.593L56.6015 159.212L57.9328 159.746L59.1275 158.953L59.0313 160.383L60.1565 161.273Z" fill="#FFF3B8"/>
<path fill-rule="evenodd" clip-rule="evenodd" d="M54.9464 170.425L54.1014 170.202L53.438 170.772L53.3884 169.9L52.6411 169.447L53.4571 169.13L53.6571 168.28L54.2105 168.956L55.0823 168.884L54.609 169.619L54.9464 170.425Z" fill="#FFF3B8"/>
<path fill-rule="evenodd" clip-rule="evenodd" d="M48.6434 163.01L47.8885 163.449L47.8228 164.32L47.1694 163.738L46.3205 163.946L46.674 163.147L46.2129 162.403L47.0831 162.49L47.6495 161.824L47.8335 162.678L48.6434 163.01Z" fill="#FFF3B8"/>
<path fill-rule="evenodd" clip-rule="evenodd" d="M53.3287 158.692L52.7516 159.026L52.7035 159.69L52.205 159.247L51.5585 159.404L51.8272 158.796L51.4775 158.23L52.1394 158.296L52.5707 157.789L52.7111 158.44L53.3287 158.692Z" fill="#FFF3B8"/>
<path fill-rule="evenodd" clip-rule="evenodd" d="M43.464 172.673L42.3815 172.082L41.2838 172.637L41.5098 171.428L40.6434 170.555L41.8655 170.398L42.4289 169.304L42.9556 170.415L44.1716 170.613L43.2739 171.457L43.464 172.673Z" fill="#FFF3B8"/>
<path fill-rule="evenodd" clip-rule="evenodd" d="M57.8821 175.271L57.263 174.933L56.6332 175.25L56.763 174.558L56.2668 174.057L56.9675 173.968L57.2889 173.342L57.5912 173.978L58.2866 174.091L57.7729 174.575L57.8821 175.271Z" fill="#FFF3B8"/>
<path fill-rule="evenodd" clip-rule="evenodd" d="M47.0183 158.463L46.0702 157.945L45.1068 158.432L45.3061 157.371L44.5458 156.605L45.6175 156.469L46.1107 155.511L46.5733 156.483L47.6389 156.658L46.8526 157.398L47.0183 158.463Z" fill="#FFF3B8"/>
<path fill-rule="evenodd" clip-rule="evenodd" d="M49.8168 172.08L48.8679 171.562L47.9046 172.048L48.1046 170.988L47.3435 170.222L48.416 170.086L48.9092 169.127L49.371 170.1L50.4366 170.274L49.6504 171.015L49.8168 172.08Z" fill="#FFF3B8"/>
<path fill-rule="evenodd" clip-rule="evenodd" d="M50.0747 114.387C50.0747 114.387 47.3702 113.25 45.374 118.295C43.3778 123.339 39.8694 131.299 43.3366 133.366C46.803 135.431 52.8915 135.18 55.9335 135.176C58.9732 135.173 60.9129 134.303 61.1839 131.91C61.4534 129.519 60.7557 122.004 59.7083 119.424C58.6602 116.846 56.4923 113.227 50.0747 114.387Z" fill="#703518"/>
<path fill-rule="evenodd" clip-rule="evenodd" d="M58.1273 125.719C58.1273 125.719 58.793 124.432 59.6624 124.867C60.5319 125.302 57.9449 130.037 57.6044 128.146C57.7006 126.415 58.1273 125.719 58.1273 125.719Z" fill="#FFD4D6"/>
<path fill-rule="evenodd" clip-rule="evenodd" d="M46.4808 125.357C46.4808 125.357 45.8946 124.032 45.0007 124.412C44.1068 124.793 46.3953 129.678 46.8511 127.812C46.8617 126.079 46.4808 125.357 46.4808 125.357Z" fill="#FFD4D6"/>
<path fill-rule="evenodd" clip-rule="evenodd" d="M46.5606 123.498C46.5606 123.498 46.1133 127.622 47.9072 129.907C49.3721 131.773 50.9011 132.962 52.3958 133.009C53.8896 133.055 55.7522 131.522 56.8324 129.915C57.9118 128.307 58.3156 124.793 58.3339 123.448C58.35 122.1 56.8614 116.017 51.1759 116.258C46.6568 116.448 46.5606 123.498 46.5606 123.498Z" fill="#FFD4D6"/>
<path fill-rule="evenodd" clip-rule="evenodd" d="M49.6051 118.645C49.6051 118.645 53.9235 123.383 58.2754 125.33C58.4433 125.098 59.0601 125.318 59.0311 122.71C59.0013 120.1 55.6914 115.368 51.2044 115.34C46.7173 115.312 45.6059 122.052 46.228 124.933C47.3616 124.185 49.4769 119.609 49.6051 118.645Z" fill="#703518"/>
<path fill-rule="evenodd" clip-rule="evenodd" d="M43.7546 122.408C43.7546 122.408 52.5241 118.85 60.6462 123.477C60.7027 117.272 59.1203 113.218 52.502 112.823C45.8829 112.426 43.6088 118.341 43.7546 122.408Z" fill="#5B4199"/>
<path fill-rule="evenodd" clip-rule="evenodd" d="M43.3581 123.499C43.3581 123.499 42.6314 122.193 43.7703 121.18C44.9092 120.166 54.2909 118.166 60.6298 122.13C61.5153 123.399 60.8329 124.817 60.8329 124.817C60.8329 124.817 57.7848 122.341 52.2184 121.966C47.1833 121.627 44.6062 122.77 43.3581 123.499Z" fill="white"/>
<path fill-rule="evenodd" clip-rule="evenodd" d="M49.5366 131.121C49.5366 131.121 49.4358 133.203 47.803 134.81C49.6259 136.486 50.6465 136.813 52.1931 136.75C53.7411 136.688 55.7015 135.177 55.7015 135.177C55.7015 135.177 54.4587 133.661 54.8999 131.288C53.5595 130.695 49.5366 131.121 49.5366 131.121Z" fill="#FFD4D6"/>
<path fill-rule="evenodd" clip-rule="evenodd" d="M77.455 107.265C77.455 107.265 77.7199 106.028 77.8031 105.153C77.8863 104.28 77.2405 103.245 77.6382 101.366C78.0359 99.4868 78.7413 98.6322 79.1794 99.1072C79.6168 99.5813 79.1451 100.213 79.113 101.227C80.5527 98.5964 81.1092 97.045 82.3726 96.4382C82.8352 96.1302 85.2649 97.1274 83.7367 100.794C82.2092 104.46 80.4237 106.399 80.1252 107.774C78.7543 108.216 77.455 107.265 77.455 107.265Z" fill="#FFD4D6"/>
<path fill-rule="evenodd" clip-rule="evenodd" d="M58.9317 134.744C58.9317 134.744 65.2752 131.242 68.4508 125.17C71.6264 119.099 76.4233 106.088 76.4233 106.088L81.4867 107.122C81.4867 107.122 77.008 121.206 74.9134 126.4C72.8187 131.594 64.2164 140.887 62.4019 143.64C60.5874 146.392 58.9317 134.744 58.9317 134.744Z" fill="#F68B50"/>
<path fill-rule="evenodd" clip-rule="evenodd" d="M27.7219 105.724C27.7219 105.724 27.5341 104.471 27.5051 103.594C27.4761 102.718 28.1853 101.723 27.9051 99.8245C27.625 97.924 26.9746 97.0274 26.5074 97.4742C26.041 97.9209 26.4731 98.5803 26.441 99.5935C25.1685 96.8788 24.7089 95.2962 23.4853 94.6123C23.0433 94.2761 20.5555 95.1216 21.8532 98.8754C23.1517 102.628 24.812 104.675 25.025 106.066C26.3662 106.592 27.7219 105.724 27.7219 105.724Z" fill="#FFD4D6"/>
<path fill-rule="evenodd" clip-rule="evenodd" d="M44.5017 134.297C44.5017 134.297 38.3879 130.409 35.5956 124.151C32.8032 117.895 28.8246 104.612 28.8246 104.612L23.7062 105.33C23.7062 105.33 27.3017 119.665 29.0696 124.978C30.8368 130.292 38.8459 140.1 40.4849 142.96C42.1253 145.82 44.5017 134.297 44.5017 134.297Z" fill="#F68B50"/>
<path fill-rule="evenodd" clip-rule="evenodd" d="M235.72 96.5102C235.72 96.5102 240.796 94.9733 242.097 94.788C243.398 94.6035 245.906 97.765 245.889 98.0966C245.873 98.4298 243.137 99.0008 243.137 99.0008C243.137 99.0008 241.773 97.9342 241.063 97.9823C240.352 98.0295 240.288 99.3171 238.98 98.7942C237.674 98.2712 236.005 99.1456 236.005 99.1456L235.72 96.5102Z" fill="#FFD4D6"/>
<path fill-rule="evenodd" clip-rule="evenodd" d="M248.352 113.55C248.352 113.55 244.132 110.573 243.249 110.215C242.366 109.86 234.358 113.614 234.358 113.614L240.499 115.942L248.352 113.55Z" fill="#444444"/>
<path fill-rule="evenodd" clip-rule="evenodd" d="M255.009 116.288C255.009 116.288 245.252 110.786 241.217 112.233C237.185 113.678 239.903 116.897 242.312 117.998C245.681 119.537 252.646 121.197 254.226 120.443C256.752 119.236 256.92 117.289 255.009 116.288Z" fill="#3C3D3F"/>
<path fill-rule="evenodd" clip-rule="evenodd" d="M219.407 106.173C219.407 106.173 249.213 96.8164 254.697 97.0878C260.182 97.36 258.664 103.581 256.398 106.011C254.131 108.444 236.238 115.187 228.697 118.429C221.156 121.67 203.265 122.79 208.225 109.377C214.642 101.66 219.407 106.173 219.407 106.173Z" fill="#6D6D6D"/>
<path fill-rule="evenodd" clip-rule="evenodd" d="M228.376 65.5813C228.376 65.5813 226.325 69.0279 225.367 70.7897C225.025 73.5844 229.728 76.8313 229.728 76.8313C229.728 76.8313 232.136 73.2063 233.329 71.5635C234.76 69.5936 233.015 61.2588 228.376 65.5813Z" fill="#FFD4D6"/>
<path fill-rule="evenodd" clip-rule="evenodd" d="M229.541 73.7417C229.541 73.7417 232.32 76.1126 232.147 81.3721C231.975 86.6292 230.333 98.0651 230.192 100.916C230.049 103.766 230.505 102.822 230.505 102.822C230.505 102.822 213.208 109.259 208.224 109.377C202.958 105.634 207.281 94.242 209.271 88.3597C211.263 82.4767 215.591 76.3535 217.165 75.2695C217.131 70.5361 220.395 62.4438 223.517 60.791C225.129 62.5436 229.541 73.7417 229.541 73.7417Z" fill="#6CBA39"/>
<path fill-rule="evenodd" clip-rule="evenodd" d="M220.817 96.2614C220.817 96.2614 223.374 85.0244 222.8 82.6787C222.224 80.3314 218.776 77.5489 216.401 80.8689C214.026 84.1889 213.787 99.137 214.593 102.21C215.397 105.284 218.908 105.265 225.075 103.992C231.246 102.718 235.805 101.066 237.055 99.4899C236.963 97.1511 236.262 95.6935 236.262 95.6935C236.262 95.6935 224.562 96.7295 221.137 98.2702C220.653 97.2052 220.817 96.2614 220.817 96.2614Z" fill="#A2D680"/>
<path fill-rule="evenodd" clip-rule="evenodd" d="M265.613 77.2014C265.388 77.0505 265.061 77.1427 264.881 77.408L252.938 95.1478C252.756 95.4139 252.797 95.7508 253.02 95.901L253.232 96.0443C253.456 96.1945 253.785 96.1023 253.964 95.837L265.908 78.0987C266.088 77.8319 266.048 77.4949 265.824 77.3432L265.613 77.2014Z" fill="#EAEAEA"/>
<path fill-rule="evenodd" clip-rule="evenodd" d="M254.29 96.2251C254.223 95.9644 253.903 95.8188 253.574 95.9026L231.659 101.463C231.33 101.546 231.119 101.828 231.184 102.088L231.248 102.337C231.316 102.598 231.635 102.744 231.962 102.661L253.879 97.0995C254.208 97.0172 254.419 96.7351 254.353 96.4744L254.29 96.2251Z" fill="#EAEAEA"/>
<path fill-rule="evenodd" clip-rule="evenodd" d="M236.668 64.7331C236.668 64.7331 237.354 63.2976 238.325 63.7459C239.295 64.1934 236.615 69.4795 236.177 67.4135C236.224 65.5107 236.668 64.7331 236.668 64.7331Z" fill="#FFD4D6"/>
<path fill-rule="evenodd" clip-rule="evenodd" d="M223.87 64.7331C223.87 64.7331 223.185 63.2976 222.214 63.7459C221.245 64.1934 223.922 69.4795 224.362 67.4135C224.313 65.5107 223.87 64.7331 223.87 64.7331Z" fill="#FFD4D6"/>
<path fill-rule="evenodd" clip-rule="evenodd" d="M223.895 62.6881C223.895 62.6881 223.545 67.2317 225.592 69.678C227.263 71.6769 228.982 72.931 230.625 72.931C232.267 72.931 234.26 71.1829 235.391 69.3823C236.521 67.5816 236.844 63.7104 236.816 62.2307C236.791 60.7525 234.949 54.1254 228.714 54.5821C223.761 54.9457 223.895 62.6881 223.895 62.6881Z" fill="#FFD4D6"/>
<path fill-rule="evenodd" clip-rule="evenodd" d="M225.646 57.4703C225.646 57.4703 226.827 58.53 231.421 59.8824C231.128 59.2352 230.347 57.9994 230.347 57.9994C230.347 57.9994 232.13 59.8824 234.074 60.4717C233.957 60.1774 233.486 59.6461 233.309 58.9714C234.487 60.118 235.298 60.3177 235.902 60.4717C236.505 60.6257 236.089 61.7341 236.431 62.6497C236.776 63.5645 236.247 65.3858 236.178 65.9148C237.256 64.2087 237.497 63.8718 238.201 63.7018C238.908 63.5325 242.137 55.3053 234.77 52.1278C228.751 49.5313 226.706 52.0287 225.646 53.1288C222.004 52.5982 221.471 59.7681 222.466 63.6591C223.87 64.7324 223.853 64.8651 224.221 65.9148C224.35 64.1005 224.292 63.2367 224.362 62.3745C224.429 61.5115 226.195 59.5881 225.646 57.4703Z" fill="#282828"/>
<path fill-rule="evenodd" clip-rule="evenodd" d="M185.851 235.851C185.851 235.851 183.728 233.697 180.522 234.514C177.318 235.331 169.089 236.5 168.432 239.16C167.775 241.819 169.01 243.473 172.657 242.907C176.305 242.339 183.044 238.947 184.547 239.444C185.73 238.088 185.851 235.851 185.851 235.851Z" fill="#333333"/>
<path fill-rule="evenodd" clip-rule="evenodd" d="M199.947 220.142C199.947 220.142 208.238 222.395 217.549 226.826C224.381 230.076 217.607 237.113 206.079 238.673C195.107 240.159 184.932 239.836 184.932 239.836V233.842C184.932 233.842 200.603 231.401 205.56 232.171C201.995 232.999 186.672 234.144 186.672 234.144L186.912 221.79L199.947 220.142Z" fill="#064560"/>
<path fill-rule="evenodd" clip-rule="evenodd" d="M190.767 235.409C190.767 235.409 193.005 233.221 196.306 234.125C199.607 235.031 208.1 236.397 208.733 239.161C209.367 241.924 208.059 243.615 204.295 242.959C200.529 242.303 193.617 238.665 192.052 239.152C190.855 237.725 190.767 235.409 190.767 235.409Z" fill="#333333"/>
<path fill-rule="evenodd" clip-rule="evenodd" d="M178.091 220.142C178.091 220.142 164.338 222.365 158.967 227.789C154.95 231.847 159.328 235.271 170.76 237.858C184.631 240.995 193.106 239.836 193.106 239.836V233.842C193.106 233.842 177.436 231.401 172.477 232.171C176.044 232.999 191.366 234.144 191.366 234.144L191.127 221.79L178.091 220.142Z" fill="#064560"/>
<path fill-rule="evenodd" clip-rule="evenodd" d="M189.699 189.991C189.699 189.991 200.344 190.558 201.651 192.569C200.717 193.852 202.923 203.017 202.443 206.099C201.963 209.181 201.994 217.847 203.657 221.015C203.574 225.982 191.52 226.819 186.182 224.25C180.841 221.681 177.346 217.401 177.346 213.29C177.346 209.181 176.835 206.549 177.167 200.042C177.057 197.09 176.936 193.597 176.853 192.569C179.382 190.616 188.064 189.587 189.699 189.991Z" fill="#F59E6E"/>
<path fill-rule="evenodd" clip-rule="evenodd" d="M201.651 192.569C201.651 192.569 209.351 203.031 211.75 208.339C215.702 215.227 201.381 226.826 201.381 226.826L201.651 217.231C201.651 217.231 205.731 212.832 205.949 211.861C206.167 210.889 202.254 208.019 201.381 205.327C200.509 202.638 200.635 194.214 201.651 192.569Z" fill="#F59E6E"/>
<path fill-rule="evenodd" clip-rule="evenodd" d="M176.853 192.569C176.853 192.569 167.974 205.287 165.576 210.594C163.252 215.899 176.853 224.429 176.853 224.429L177.563 218.563C177.563 218.563 172.711 212.799 172.495 211.827C172.276 210.855 176.689 206.769 177.563 204.078C178.434 201.387 177.869 194.214 176.853 192.569Z" fill="#F59E6E"/>
<path fill-rule="evenodd" clip-rule="evenodd" d="M202.876 230.657C202.788 231.312 202.229 231.847 201.633 231.847H175.696C175.098 231.847 174.541 231.312 174.453 230.657C173.643 224.646 172.833 218.639 172.024 212.629C171.934 211.971 172.443 211.439 173.156 211.439H204.171C204.885 211.439 205.393 211.971 205.305 212.629C204.496 218.639 203.685 224.646 202.876 230.657Z" fill="#FCFCFC"/>
<path fill-rule="evenodd" clip-rule="evenodd" d="M174.273 232.363C174.273 232.078 174.604 231.847 175.012 231.847H202.27C202.677 231.847 203.009 232.078 203.009 232.363V232.628C203.009 232.912 202.677 233.143 202.27 233.143H175.012C174.604 233.143 174.273 232.912 174.273 232.628V232.363Z" fill="#EAEAEA"/>
<path fill-rule="evenodd" clip-rule="evenodd" d="M193.815 181.663C193.815 181.663 192.61 186.012 194.362 190.419C196.553 195.929 185.86 190.634 185.86 190.634C185.86 190.634 186.82 188.18 184.702 185.774C183.69 184.626 193.815 181.663 193.815 181.663Z" fill="#FFD4D6"/>
<path fill-rule="evenodd" clip-rule="evenodd" d="M184.966 168.912C184.966 168.912 182.379 171.772 181.948 173.434C181.517 175.092 179.932 175.38 179.104 175.99C178.276 176.603 179.28 177.351 180.363 177.79C180.297 178.237 180.192 178.73 180.088 179.25C181.631 179.931 182.75 179.939 182.75 180.696C182.182 181.96 182.279 181.797 179.808 181.781C179.966 182.838 180.439 184.909 181.518 185.722C184.378 187.877 191.247 186.169 192.331 182.335C193.989 179.666 194.841 173.225 194.841 173.225L184.966 168.912Z" fill="#FFD4D6"/>
<path fill-rule="evenodd" clip-rule="evenodd" d="M192.264 171.061C192.264 171.061 191.813 172.14 191.562 173.329C191.365 174.266 191.294 175.273 191.671 175.87C192.523 177.228 191.145 179.537 191.145 179.537L192.406 180.097C192.406 180.097 194.284 181.008 193.438 182.273C192.591 183.534 193.377 185.734 193.377 185.734C193.377 185.734 199.644 180.088 199.157 176.081C198.673 172.077 192.264 171.061 192.264 171.061Z" fill="#703518"/>
<path fill-rule="evenodd" clip-rule="evenodd" d="M192.405 173.597C192.405 173.597 184.952 168.837 180.805 170.484C183.202 166.665 186.315 164.198 192.405 165.531C198.496 166.865 200.121 171.04 198.629 174.552C195.775 176.53 192.405 173.597 192.405 173.597Z" fill="#703518"/>
<path fill-rule="evenodd" clip-rule="evenodd" d="M192.871 178.69C192.871 178.69 194.936 177.227 195.939 178.933C196.941 180.642 191.474 183.963 191.147 182.484C190.82 181.002 192.871 178.69 192.871 178.69Z" fill="#FFD4D6"/>
<path fill-rule="evenodd" clip-rule="evenodd" d="M186.04 22.6686C186.04 22.6686 182.19 22.744 179.805 23.6413C177.107 24.6568 176.102 25.6714 175.426 26.0099C175.638 26.7281 176.992 32.7727 176.597 35.4775C176.202 38.1808 176.315 53.4666 176.315 53.4666L200.428 54.6269L202.033 36.3778C202.033 36.3778 202.373 28.3153 203.809 26.0099C202.71 23.9592 194.734 22.8134 193.448 22.6686C192.163 22.5222 186.04 22.6686 186.04 22.6686Z" fill="#F76B8D"/>
<path fill-rule="evenodd" clip-rule="evenodd" d="M174.308 66.2868C174.308 66.2868 182.656 62.8876 197.206 66.4355C202.62 61.6198 200.696 55.3373 200.696 55.3373L175.426 55.1787L174.308 66.2868Z" fill="#A52959"/>
<path fill-rule="evenodd" clip-rule="evenodd" d="M186.995 0.345401C186.995 0.345401 183.844 -0.865966 181.73 5.00638C179.614 10.878 175.864 20.1565 179.925 22.41C183.986 24.6619 190.979 24.1557 194.476 24.0429C197.972 23.9301 200.172 22.8613 200.397 20.1001C200.622 17.3404 199.55 8.72358 198.253 5.79389C196.957 2.86648 194.334 -1.21817 186.995 0.345401Z" fill="#703518"/>
<path fill-rule="evenodd" clip-rule="evenodd" d="M196.661 13.0895C196.661 13.0895 197.38 11.5861 198.396 12.055C199.412 12.5253 196.605 18.0615 196.147 15.8995C196.196 13.9044 196.661 13.0895 196.661 13.0895Z" fill="#FFD4D6"/>
<path fill-rule="evenodd" clip-rule="evenodd" d="M183.255 13.0895C183.255 13.0895 182.534 11.5861 181.519 12.055C180.504 12.5253 183.311 18.0615 183.769 15.8995C183.719 13.9044 183.255 13.0895 183.255 13.0895Z" fill="#FFD4D6"/>
<path fill-rule="evenodd" clip-rule="evenodd" d="M183.28 10.9483C183.28 10.9483 182.914 15.7068 185.058 18.2699C186.808 20.3648 188.609 21.6775 190.33 21.6775C192.05 21.6775 194.137 19.8479 195.321 17.9611C196.505 16.0728 196.846 12.0179 196.817 10.4695C196.787 8.91969 194.859 1.97777 188.328 2.45728C183.138 2.83617 183.28 10.9483 183.28 10.9483Z" fill="#FFD4D6"/>
<path fill-rule="evenodd" clip-rule="evenodd" d="M186.608 5.25891C186.608 5.25891 191.744 10.5534 196.818 12.6377C197.002 12.364 197.719 12.595 197.593 9.5959C197.465 6.59683 193.49 1.27337 188.328 1.40068C183.167 1.52799 182.131 9.31917 182.949 12.6102C184.225 11.7091 186.495 6.37194 186.608 5.25891Z" fill="#703518"/>
<path fill-rule="evenodd" clip-rule="evenodd" d="M186.975 19.6082C186.975 19.6082 186.933 22.0066 185.114 23.9124C187.27 25.7756 188.455 26.1133 190.231 25.9868C192.009 25.8595 194.21 24.0519 194.21 24.0519C194.21 24.0519 192.727 22.3534 193.149 19.6082C191.586 18.9747 186.975 19.6082 186.975 19.6082Z" fill="#FFD4D6"/>
<path fill-rule="evenodd" clip-rule="evenodd" d="M203.81 26.0098C203.81 26.0098 209.252 36.8854 210.606 42.3484C211.396 45.5029 199.213 52.656 199.213 52.656L199.664 48.0934C199.664 48.0934 205.132 42.9483 205.358 42.1608C205.584 41.3718 202.139 34.6677 202.139 34.6677C202.139 34.6677 202.541 27.6397 203.81 26.0098Z" fill="#F76B8D"/>
<path fill-rule="evenodd" clip-rule="evenodd" d="M175.426 26.0098C175.426 26.0098 168.709 36.8854 167.356 42.3484C166.566 45.5029 180.022 52.656 180.022 52.656L179.572 48.0934C179.572 48.0934 172.391 42.9483 172.166 42.1608C171.94 41.3718 177.097 34.6677 177.097 34.6677C177.097 34.6677 176.695 27.6397 175.426 26.0098Z" fill="#F76B8D"/>
<path fill-rule="evenodd" clip-rule="evenodd" d="M190.897 95.7959C190.897 95.7959 192.477 97.8535 191.094 100.603C189.713 103.352 187.213 111.041 182.608 112.618C181.621 112.947 181.555 110.582 182.015 107.886C182.475 105.194 185.036 96.1885 187.935 94.8438C190.436 95.5992 190.897 95.7959 190.897 95.7959Z" fill="#333333"/>
<path fill-rule="evenodd" clip-rule="evenodd" d="M193.475 90.39C193.475 90.39 191.485 96.2006 191.225 97.6978C190.966 99.1966 189.725 102.398 186.984 101.468C184.243 100.538 185.484 97.6978 186.157 96.8211C186.83 95.9414 188.882 91.6044 189.382 89.899C189.882 88.1952 193.475 90.39 193.475 90.39Z" fill="#FFD4D6"/>
<path fill-rule="evenodd" clip-rule="evenodd" d="M188.744 90.0027C188.744 90.0027 190.605 84.8888 191.769 78.1474C192.933 71.4068 195.493 56.2224 200.845 55.2542C206.199 54.2845 205.346 62.8853 203.406 68.0761C201.467 73.2676 194.174 91.1629 194.174 91.1629C194.174 91.1629 192.157 92.0175 188.744 90.0027Z" fill="#C33E6B"/>
<path fill-rule="evenodd" clip-rule="evenodd" d="M184.542 95.7931C184.542 95.7931 182.97 97.8407 184.346 100.579C185.722 103.315 188.212 110.969 192.796 112.538C193.777 112.866 193.844 110.512 193.384 107.83C192.927 105.147 190.377 96.1842 187.491 94.8447C185.002 95.5979 184.542 95.7931 184.542 95.7931Z" fill="#474747"/>
<path fill-rule="evenodd" clip-rule="evenodd" d="M181.967 90.39C181.967 90.39 183.958 96.2006 184.216 97.6978C184.475 99.1966 185.716 102.398 188.458 101.468C191.199 100.538 189.959 97.6978 189.286 96.8211C188.614 95.9414 186.561 91.6044 186.062 89.899C185.562 88.1952 181.967 90.39 181.967 90.39Z" fill="#FFD4D6"/>
<path fill-rule="evenodd" clip-rule="evenodd" d="M186.7 90.0027C186.7 90.0027 184.838 84.8888 183.674 78.1474C182.51 71.4068 179.95 56.2224 174.597 55.2542C169.244 54.2845 170.097 62.8853 172.037 68.0761C173.977 73.2676 181.269 91.1629 181.269 91.1629C181.269 91.1629 183.287 92.0175 186.7 90.0027Z" fill="#C33E6B"/>
<path fill-rule="evenodd" clip-rule="evenodd" d="M202.902 53.4618C202.813 54.1052 202.25 54.6267 201.649 54.6267H175.521C174.919 54.6267 174.358 54.1052 174.269 53.4618C173.454 47.5849 172.637 41.7087 171.822 35.8318C171.732 35.1876 172.244 34.6685 172.963 34.6685H204.207C204.926 34.6685 205.437 35.1876 205.348 35.8318C204.534 41.7087 203.716 47.5849 202.902 53.4618Z" fill="#FCFCFC"/>
<path fill-rule="evenodd" clip-rule="evenodd" d="M174.087 55.1309C174.087 54.8534 174.421 54.627 174.832 54.627H202.291C202.701 54.627 203.034 54.8534 203.034 55.1309V55.3923C203.034 55.6691 202.701 55.8955 202.291 55.8955H174.832C174.421 55.8955 174.087 55.6691 174.087 55.3923V55.1309Z" fill="#EAEAEA"/>
</g>
</svg>
