<svg width="287" height="245" viewBox="0 0 287 245" fill="none" xmlns="http://www.w3.org/2000/svg">
<path opacity="0.3" d="M142.219 222.048C189.95 222.048 228.644 218.44 228.644 213.988C228.644 209.537 189.95 205.929 142.219 205.929C94.4878 205.929 55.7941 209.537 55.7941 213.988C55.7941 218.44 94.4878 222.048 142.219 222.048Z" fill="#212121"/>
<path d="M200.882 156.605C200.882 156.605 212.998 135.147 231.256 128.971C238.913 126.374 245.598 121.494 250.169 114.825C252.333 111.655 254.201 108.293 255.752 104.783" stroke="#535461" stroke-width="0.60747"/>
<path d="M267.212 100.817C265.131 102.833 255.448 104.919 255.448 104.919C255.448 104.919 257.826 95.3079 259.904 93.2885C261.983 91.2708 265.305 91.3205 267.323 93.3993C269.341 95.4782 269.291 98.799 267.212 100.817Z" fill="#22CCAC"/>
<path d="M261.736 118.215C258.893 118.776 249.632 115.266 249.632 115.266C249.632 115.266 256.851 108.488 259.691 107.923C261.549 107.512 263.483 108.138 264.748 109.559C266.012 110.98 266.408 112.975 265.783 114.771C265.158 116.567 263.609 117.885 261.736 118.215Z" fill="#22CCAC"/>
<path d="M241.78 137.039C239.047 136.092 232.82 128.388 232.82 128.388C232.82 128.388 242.476 126.177 245.212 127.124C247.027 127.704 248.385 129.221 248.76 131.089C249.136 132.956 248.47 134.88 247.02 136.116C245.571 137.352 243.565 137.705 241.78 137.039Z" fill="#22CCAC"/>
<path d="M223.492 147.884C220.634 147.413 213.199 140.866 213.199 140.866C213.199 140.866 222.341 137.057 225.199 137.525C227.048 137.83 228.594 139.098 229.255 140.851C229.915 142.605 229.59 144.578 228.401 146.026C227.213 147.475 225.341 148.179 223.492 147.874V147.884Z" fill="#22CCAC"/>
<path d="M241.555 107.765C241.555 110.662 246.798 119.065 246.798 119.065C246.798 119.065 252.046 110.665 252.049 107.768C251.981 104.92 249.652 102.646 246.802 102.646C243.953 102.646 241.624 104.92 241.555 107.768V107.765Z" fill="#22CCAC"/>
<path d="M220.318 120.711C221.184 123.474 228.698 129.925 228.698 129.925C228.698 129.925 231.195 120.34 230.329 117.577C229.464 114.81 226.518 113.268 223.75 114.133C220.983 114.999 219.441 117.944 220.306 120.711H220.318Z" fill="#22CCAC"/>
<path d="M201.402 136.135C201.787 139.007 208.108 146.633 208.108 146.633C208.108 146.633 212.187 137.611 211.802 134.738C211.416 131.866 208.775 129.852 205.903 130.237C203.031 130.623 201.016 133.263 201.402 136.135Z" fill="#6C63FF"/>
<path d="M267.212 100.817C265.131 102.833 255.448 104.919 255.448 104.919C255.448 104.919 257.826 95.3079 259.904 93.2885C261.983 91.2708 265.305 91.3205 267.323 93.3993C269.341 95.4782 269.291 98.799 267.212 100.817Z" fill="#33907C"/>
<path d="M261.736 118.214C258.893 118.776 249.632 115.265 249.632 115.265C249.632 115.265 256.851 108.487 259.691 107.923C261.549 107.511 263.483 108.137 264.748 109.559C266.012 110.98 266.408 112.974 265.783 114.77C265.158 116.567 263.609 117.884 261.736 118.214Z" fill="#33907C"/>
<path d="M241.78 137.039C239.047 136.092 232.82 128.388 232.82 128.388C232.82 128.388 242.476 126.177 245.212 127.124C247.027 127.704 248.385 129.221 248.76 131.089C249.136 132.956 248.47 134.88 247.02 136.116C245.571 137.352 243.565 137.705 241.78 137.039Z" fill="#33907C"/>
<path d="M223.492 147.884C220.634 147.413 213.199 140.866 213.199 140.866C213.199 140.866 222.341 137.057 225.199 137.525C227.048 137.83 228.594 139.098 229.255 140.851C229.915 142.605 229.59 144.578 228.401 146.026C227.213 147.475 225.341 148.179 223.492 147.874V147.884Z" fill="#33907C"/>
<path d="M241.555 107.765C241.555 110.662 246.798 119.065 246.798 119.065C246.798 119.065 252.046 110.665 252.049 107.768C251.981 104.92 249.652 102.646 246.802 102.646C243.953 102.646 241.624 104.92 241.555 107.768V107.765Z" fill="#33907C"/>
<path d="M220.318 120.71C221.184 123.474 228.698 129.924 228.698 129.924C228.698 129.924 231.195 120.34 230.329 117.576C229.464 114.809 226.518 113.267 223.75 114.133C220.983 114.998 219.441 117.943 220.306 120.71H220.318Z" fill="#33907C"/>
<path opacity="0.25" d="M201.402 136.135C201.787 139.007 208.108 146.633 208.108 146.633C208.108 146.633 212.187 137.611 211.802 134.738C211.416 131.866 208.775 129.852 205.903 130.237C203.031 130.623 201.016 133.263 201.402 136.135Z" fill="black"/>
<path d="M201.581 156.177C201.581 156.177 203.959 131.652 218.131 118.61C224.111 113.175 228.167 105.949 229.691 98.0141C230.384 94.2414 230.73 90.4133 230.724 86.5776" stroke="#535461" stroke-width="0.60747"/>
<path d="M239.608 78.3082C238.524 80.9957 230.518 86.8112 230.518 86.8112C230.518 86.8112 228.792 77.0601 229.877 74.3604C231.041 71.8072 234.009 70.6227 236.612 71.6726C239.215 72.7224 240.53 75.6346 239.596 78.2809L239.608 78.3082Z" fill="#33907C"/>
<path d="M241.65 96.4255C239.28 98.0927 229.391 98.6363 229.391 98.6363C229.391 98.6363 233.245 89.5259 235.614 87.8466C237.984 86.2175 241.223 86.7991 242.877 89.1506C244.532 91.5021 243.984 94.7469 241.65 96.4255Z" fill="#33907C"/>
<path opacity="0.7" d="M231.046 121.716C228.161 121.959 219.349 117.437 219.349 117.437C219.349 117.437 227.28 111.506 230.168 111.264C232.036 111.107 233.845 111.958 234.915 113.497C235.984 115.035 236.152 117.028 235.354 118.723C234.556 120.418 232.914 121.559 231.046 121.716Z" fill="#33907C"/>
<path d="M218.715 139.044C215.911 139.77 206.462 136.803 206.462 136.803C206.462 136.803 213.278 129.615 216.081 128.889C218.886 128.162 221.749 129.846 222.476 132.65C223.203 135.454 221.519 138.317 218.715 139.044Z" fill="#33907C"/>
<path d="M218.964 95.0411C220.139 97.6891 228.337 103.24 228.337 103.24C228.337 103.24 229.731 93.4376 228.559 90.7896C227.384 88.1405 224.285 86.9447 221.635 88.1187C218.985 89.2927 217.789 92.392 218.964 95.0411Z" fill="#33907C"/>
<path d="M204.797 115.491C206.711 117.665 216.197 120.516 216.197 120.516C216.197 120.516 214.593 110.744 212.682 108.567C210.77 106.386 207.452 106.169 205.271 108.081C203.091 109.993 202.873 113.31 204.785 115.491H204.797Z" fill="#6C63FF"/>
<path d="M193.757 137.255C195.275 139.724 204.141 144.136 204.141 144.136C204.141 144.136 204.214 134.233 202.699 131.764C201.182 129.296 197.951 128.523 195.482 130.04C193.013 131.556 192.24 134.786 193.757 137.255Z" fill="#6C63FF"/>
<path d="M64.1134 0.94043V9.25512V215.173H218.229V9.25512V0.94043H64.1134Z" fill="#030303"/>
<rect x="65.465" y="2.82031" width="151.412" height="8.16588" fill="#F6F7F9"/>
<g opacity="0.2">
<rect x="65.465" y="2.82031" width="151.412" height="8.16588" fill="#199880"/>
</g>
<rect x="65.465" y="10.9858" width="151.412" height="202.307" fill="white"/>
<path d="M69.447 8.28663C70.212 8.28663 70.8321 7.66665 70.8321 6.90186C70.8321 6.13707 70.212 5.51709 69.447 5.51709C68.6821 5.51709 68.062 6.13707 68.062 6.90186C68.062 7.66665 68.6821 8.28663 69.447 8.28663Z" fill="#F6F7F9"/>
<path d="M73.2012 8.28663C73.9661 8.28663 74.5862 7.66665 74.5862 6.90186C74.5862 6.13707 73.9661 5.51709 73.2012 5.51709C72.4363 5.51709 71.8162 6.13707 71.8162 6.90186C71.8162 7.66665 72.4363 8.28663 73.2012 8.28663Z" fill="#F6F7F9"/>
<path d="M76.9553 8.28663C77.7203 8.28663 78.3404 7.66665 78.3404 6.90186C78.3404 6.13707 77.7203 5.51709 76.9553 5.51709C76.1904 5.51709 75.5703 6.13707 75.5703 6.90186C75.5703 7.66665 76.1904 8.28663 76.9553 8.28663Z" fill="#F6F7F9"/>
<g opacity="0.2">
<rect x="92.4883" y="23.458" width="97.3623" height="3.81115" fill="#33907C"/>
</g>
<rect x="176.915" y="23.458" width="12.9361" height="3.81115" fill="#33907C"/>
<g opacity="0.2">
<rect x="78.5348" y="101.342" width="61.2694" height="43.8783" fill="#33907C"/>
</g>
<g opacity="0.2">
<rect x="78.5348" y="44.4238" width="61.2694" height="43.8783" fill="#33907C"/>
</g>
<g opacity="0.2">
<rect x="78.5348" y="157.52" width="61.2694" height="43.8783" fill="#33907C"/>
</g>
<g opacity="0.2">
<rect x="142.538" y="101.342" width="61.2694" height="43.8783" fill="#33907C"/>
</g>
<g opacity="0.2">
<rect x="142.538" y="44.4238" width="61.2694" height="43.8783" fill="#33907C"/>
</g>
<g opacity="0.2">
<rect x="142.538" y="157.52" width="61.2694" height="43.8783" fill="#33907C"/>
</g>
<path d="M269.319 204.852C269.319 204.852 271.487 207.685 268.32 211.961C265.152 216.236 262.549 219.856 263.596 222.516C263.596 222.516 268.374 214.572 272.265 214.463C276.156 214.354 273.598 209.628 269.319 204.852Z" fill="#33907C"/>
<path opacity="0.1" d="M269.319 204.852C269.508 205.125 269.657 205.423 269.762 205.738C273.559 210.196 275.579 214.357 271.931 214.463C268.535 214.56 264.456 220.634 263.481 222.167C263.513 222.286 263.552 222.402 263.596 222.516C263.596 222.516 268.374 214.572 272.265 214.463C276.156 214.354 273.598 209.628 269.319 204.852Z" fill="black"/>
<path d="M273.349 208.462C273.349 209.458 273.237 210.266 273.1 210.266C272.964 210.266 272.848 209.458 272.848 208.462C272.848 207.466 272.988 207.934 273.128 207.934C273.267 207.934 273.349 207.463 273.349 208.462Z" fill="#FFD037"/>
<path d="M274.731 209.653C273.857 210.13 273.091 210.418 273.027 210.297C272.964 210.175 273.617 209.689 274.491 209.212C275.366 208.736 275.023 209.085 275.099 209.212C275.175 209.34 275.606 209.185 274.731 209.653Z" fill="#33907C"/>
<path d="M257.874 204.852C257.874 204.852 255.705 207.685 258.873 211.961C262.041 216.236 264.644 219.856 263.596 222.516C263.596 222.516 258.819 214.572 254.928 214.463C251.037 214.354 253.588 209.628 257.874 204.852Z" fill="#33907C"/>
<path opacity="0.1" d="M257.874 204.852C257.685 205.125 257.535 205.423 257.431 205.738C253.634 210.196 251.614 214.357 255.262 214.463C258.661 214.56 262.737 220.634 263.712 222.167C263.681 222.286 263.643 222.403 263.596 222.516C263.596 222.516 258.819 214.572 254.928 214.463C251.037 214.354 253.588 209.628 257.874 204.852Z" fill="black"/>
<path d="M253.844 208.462C253.844 209.458 253.956 210.266 254.096 210.266C254.235 210.266 254.345 209.458 254.345 208.462C254.345 207.466 254.205 207.934 254.068 207.934C253.932 207.934 253.844 207.463 253.844 208.462Z" fill="#FFD037"/>
<path d="M252.461 209.653C253.339 210.13 254.102 210.418 254.168 210.297C254.235 210.175 253.576 209.689 252.701 209.212C251.827 208.736 252.17 209.085 252.094 209.212C252.018 209.34 251.587 209.185 252.461 209.653Z" fill="#FFD037"/>
<path opacity="0.3" d="M263.596 244.193C276.11 244.193 286.255 242.636 286.255 240.716C286.255 238.796 276.11 237.239 263.596 237.239C251.082 237.239 240.938 238.796 240.938 240.716C240.938 242.636 251.082 244.193 263.596 244.193Z" fill="#212121"/>
<path d="M275.26 218.699L275.151 219.583L274.999 220.834L274.935 221.353L274.783 222.604L274.716 223.127L274.564 224.375L272.83 238.587C272.675 239.856 270.604 240.843 268.101 240.843H259.092C256.589 240.843 254.536 239.856 254.366 238.587L252.629 224.369L252.477 223.121L252.413 222.598L252.258 221.347L252.194 220.828L252.042 219.577L251.933 218.693C251.848 217.992 252.981 217.384 254.384 217.384H272.812C274.224 217.384 275.348 217.992 275.26 218.699Z" fill="#65617D"/>
<path d="M275.151 219.583L274.999 220.831H252.194L252.042 219.583H275.151Z" fill="#9D9CB5"/>
<path d="M274.935 221.354L274.783 222.605H252.413L252.258 221.354H274.935Z" fill="#9D9CB5"/>
<path d="M274.716 223.124L274.564 224.375H252.629L252.477 223.124H274.716Z" fill="#9D9CB5"/>
<path d="M158.201 52.9028C158.201 52.9028 157.646 51.515 161.394 51.8612C165.142 52.2074 175.903 53.4039 180.556 52.3562C185.21 51.3085 187.983 50.9745 187.706 52.3562C187.43 53.7379 179.654 56.8598 179.654 56.8598L169.585 57.9014L162.159 56.7201L158.171 54.3605L158.201 52.9028Z" fill="#F5A623"/>
<path opacity="0.1" d="M187.715 52.3562C187.436 53.738 179.663 56.8598 179.663 56.8598L169.595 57.9014L162.168 56.7231L158.183 54.3635L158.211 52.9059C158.131 52.6597 158.217 52.3904 158.423 52.2348C158.766 51.9311 159.568 51.6942 161.403 51.8643C165.154 52.2105 175.912 53.4039 180.565 52.3562C184.356 51.5029 186.901 51.1233 187.551 51.7489C187.715 51.905 187.778 52.139 187.715 52.3562Z" fill="#F5A623"/>
<path d="M193.699 73.3795C187.22 74.6265 181.111 77.3318 175.833 81.2903C175.566 80.58 175.063 79.9829 174.409 79.5989C173.962 79.3217 173.474 79.1167 172.963 78.9915C172.498 78.8731 172.052 79.1555 171.642 79.5624C171.17 80.0843 170.774 80.6701 170.466 81.3025C163.386 76.4436 152.646 73.3431 152.646 73.3431V72.3713C152.646 72.18 152.68 71.9492 152.716 71.6881C152.752 71.4269 152.798 71.1961 152.856 70.9137C153.767 66.2796 157.369 55.6903 157.369 55.6903H158.484H161.442L169.339 57.3302L178.224 56.7866L187.172 54.9251L188.332 54.6821C190.267 56.2005 192.463 66.8292 193.325 71.354C193.435 71.928 193.52 72.4017 193.584 72.7509C193.659 73.1457 193.699 73.3795 193.699 73.3795Z" fill="#F5A623"/>
<path d="M154.116 71.3722C154.35 66.9233 157.886 57.2815 158.484 55.6812H157.369C157.369 55.6812 153.554 66.9172 152.78 71.3023C152.778 71.3134 152.778 71.3246 152.78 71.3357C152.758 71.4542 152.737 71.5696 152.722 71.6789C152.686 71.94 152.661 72.1708 152.652 72.3621V73.3339C152.652 73.3339 163.392 76.4375 170.472 81.2933C170.78 80.6609 171.176 80.0751 171.648 79.5532C168.941 77.0934 158.678 73.0849 154.116 71.3722Z" fill="#6C63FF"/>
<path d="M193.584 72.7387C193.556 72.5838 193.523 72.4047 193.486 72.2073C193.441 71.9522 193.386 71.6637 193.325 71.3418C192.463 66.8109 190.267 56.1792 188.332 54.6699L187.172 54.9129C187.876 56.8048 192.417 69.1584 192.031 71.5696C184.438 73.088 176.741 78.0227 174.415 79.5988C175.069 79.9829 175.572 80.58 175.839 81.2903C181.117 77.3318 187.226 74.6265 193.705 73.3795C193.705 73.3795 193.659 73.1457 193.584 72.7387Z" fill="#6C63FF"/>
<path opacity="0.1" d="M154.396 71.0928C154.626 66.6439 158.165 57.0021 158.763 55.4048H157.646C157.646 55.4048 153.831 66.6408 153.056 71.0229C153.056 71.0229 153.056 71.0472 153.056 71.0563C153.034 71.1778 153.016 71.2932 153.001 71.4025C152.965 71.6637 152.941 71.8945 152.932 72.0858V73.0575C152.932 73.0575 163.669 76.1581 170.752 81.0169C171.057 80.3839 171.452 79.7979 171.924 79.2769C169.218 76.8231 158.958 72.8055 154.396 71.0928Z" fill="black"/>
<path d="M154.116 71.3722C154.35 66.9233 157.886 57.2815 158.484 55.6812H157.369C157.369 55.6812 153.554 66.9172 152.78 71.3023C152.778 71.3134 152.778 71.3246 152.78 71.3357C152.758 71.4542 152.737 71.5696 152.722 71.6789C152.686 71.94 152.661 72.1708 152.652 72.3621V73.3339C152.652 73.3339 163.392 76.4375 170.472 81.2933C170.78 80.6609 171.176 80.0751 171.648 79.5532C168.941 77.0934 158.678 73.0849 154.116 71.3722Z" fill="#E69B1F"/>
<path opacity="0.1" d="M193.307 72.4594L193.21 71.928C193.161 71.6729 193.11 71.3874 193.049 71.0625C192.189 66.5347 189.99 55.9029 188.056 54.3906L186.898 54.6366C187.603 56.5285 192.144 68.8821 191.758 71.2933C184.165 72.8117 176.465 77.7464 174.141 79.3195C174.796 79.7047 175.299 80.3028 175.566 81.014C180.841 77.0534 186.95 74.347 193.429 73.1002C193.429 73.1002 193.383 72.8724 193.307 72.4594Z" fill="black"/>
<path d="M193.584 72.7387C193.556 72.5838 193.523 72.4047 193.486 72.2073C193.441 71.9522 193.386 71.6637 193.325 71.3418C192.463 66.8109 190.267 56.1792 188.332 54.6699L187.172 54.9129C187.876 56.8048 192.417 69.1584 192.031 71.5696C184.438 73.088 176.741 78.0227 174.415 79.5988C175.069 79.9829 175.572 80.58 175.839 81.2903C181.117 77.3318 187.226 74.6265 193.705 73.3795C193.705 73.3795 193.659 73.1457 193.584 72.7387Z" fill="#E69B1F"/>
<path opacity="0.1" d="M156.756 61.1717C156.756 61.1717 163.802 65.6054 165.449 59.1128L167.016 59.5319C167.016 59.5319 167.532 66.726 156.288 62.6203L156.756 61.1717Z" fill="black"/>
<path d="M156.756 60.6161C156.756 60.6161 163.802 65.0498 165.449 58.5571L167.016 58.9762C167.016 58.9762 167.532 66.1703 156.288 62.0646L156.756 60.6161Z" fill="#E69B1F"/>
<path opacity="0.1" d="M178.928 59.3225C178.928 59.3225 179.839 64.6277 189.495 62.0556L189.155 61.0534C189.155 61.0534 182.561 63.7865 180.171 59.04L178.928 59.3225Z" fill="black"/>
<path d="M178.928 58.7668C178.928 58.7668 179.839 64.072 189.495 61.4999L189.155 60.4978C189.155 60.4978 182.561 63.2309 180.171 58.4844L178.928 58.7668Z" fill="#E69B1F"/>
<path opacity="0.1" d="M172.501 59.2528V70.3248H174.214C174.214 70.3248 176.583 69.4715 176.529 64.4942C176.474 59.517 176.113 58.1777 176.113 58.1777L172.501 59.2528Z" fill="black"/>
<path d="M172.225 58.9764V70.0485H173.938C173.938 70.0485 176.307 69.1951 176.252 64.2179C176.198 59.2406 175.833 57.9014 175.833 57.9014L172.225 58.9764Z" fill="#E69B1F"/>
<path opacity="0.1" d="M188.323 55.2288C187.624 56.5286 181.282 58.6634 180.161 59.0309L179.991 59.0855C179.991 59.0855 179.59 59.1888 178.919 59.3285C176.878 59.7536 172.328 60.5432 168.896 59.8508C168.398 59.7536 167.881 59.6473 167.356 59.5471L166.141 59.2829C162.193 58.4053 158.107 57.2574 157.381 56.2462C157.381 56.2462 157.579 52.9452 158.244 53.0332C158.909 53.1213 166.335 56.2462 166.335 56.2462L166.442 56.2613C166.633 56.2856 167.067 56.3403 167.678 56.4101C170.09 56.6743 175.171 57.0934 177.905 56.3616C178.035 56.3251 178.157 56.2887 178.275 56.2462C178.482 56.1763 178.697 56.1034 178.919 56.0214C182.436 54.7764 187.703 52.5474 187.703 52.5474C187.703 52.5474 189.094 53.7985 188.323 55.2288Z" fill="black"/>
<path opacity="0.1" d="M187.715 52.3559C187.436 53.7377 179.663 56.8595 179.663 56.8595L169.595 57.9011L162.168 56.7228L158.183 54.3633L158.211 52.9056C158.131 52.6595 158.217 52.3901 158.423 52.2345C159.744 52.6353 166.32 55.4018 166.32 55.4018L166.427 55.417C166.618 55.4413 167.052 55.496 167.663 55.5658C170.074 55.83 175.156 56.2491 177.89 55.5172C178.02 55.4808 178.142 55.4443 178.26 55.4018C178.467 55.335 178.682 55.2591 178.904 55.1771C182.084 54.0505 186.698 52.1191 187.551 51.7607C187.71 51.9145 187.773 52.1425 187.715 52.3559Z" fill="black"/>
<path d="M188.323 54.6699C187.624 55.9696 181.282 58.1014 180.161 58.4689L179.991 58.5266C179.991 58.5266 179.59 58.6268 178.919 58.7665C176.878 59.1916 172.328 59.9812 168.896 59.2888C168.398 59.1916 167.881 59.0853 167.356 58.9851L166.141 58.7209C162.193 57.8433 158.107 56.6954 157.381 55.6841C157.381 55.6841 157.579 52.3832 158.244 52.4743C158.909 52.5654 166.335 55.6841 166.335 55.6841L166.442 55.6993C166.633 55.7236 167.067 55.7813 167.678 55.8481C170.09 56.1123 175.171 56.5314 177.905 55.7995C178.035 55.7631 178.157 55.7267 178.275 55.6841C178.482 55.6173 178.697 55.5414 178.919 55.4594C182.436 54.2143 187.703 51.9854 187.703 51.9854C187.703 51.9854 189.094 53.2456 188.323 54.6699Z" fill="#E69B1F"/>
<path opacity="0.1" d="M173.704 59.2888C174.318 59.2888 174.816 58.7912 174.816 58.1774C174.816 57.5635 174.318 57.0659 173.704 57.0659C173.09 57.0659 172.592 57.5635 172.592 58.1774C172.592 58.7912 173.09 59.2888 173.704 59.2888Z" fill="black"/>
<path d="M173.704 59.0095C174.318 59.0095 174.816 58.5119 174.816 57.8981C174.816 57.2842 174.318 56.7866 173.704 56.7866C173.09 56.7866 172.592 57.2842 172.592 57.8981C172.592 58.5119 173.09 59.0095 173.704 59.0095Z" fill="#F5A623"/>
<path opacity="0.1" d="M167.942 55.8363L167.638 58.9703L166.424 58.7061L166.727 55.6875C166.897 55.7179 167.335 55.7756 167.942 55.8363Z" fill="black"/>
<path d="M167.669 55.8363L167.365 58.9703L166.15 58.7061L166.454 55.6875C166.621 55.7179 167.061 55.7756 167.669 55.8363Z" fill="#E69B1F"/>
<path opacity="0.1" d="M179.891 58.4691L179.721 58.5268C179.721 58.5268 179.323 58.627 178.649 58.7667L177.613 55.7937C177.744 55.7573 177.868 55.7208 177.987 55.6783C178.193 55.6115 178.409 55.5356 178.631 55.4536L179.891 58.4691Z" fill="black"/>
<path d="M180.171 58.4691L180 58.5268C180 58.5268 179.6 58.627 178.928 58.7667L177.893 55.7937C178.023 55.7573 178.145 55.7208 178.263 55.6783C178.47 55.6115 178.685 55.5356 178.907 55.4536L180.171 58.4691Z" fill="#E69B1F"/>
<g opacity="0.858515">
<path d="M101.831 50.3699C103.252 50.3792 104.645 50.7659 105.868 51.4905C105.868 51.4905 109.567 51.9399 111.584 51.4905C113.601 51.041 114.622 49.4741 115.004 49.9205C115.387 50.3669 115.396 54.5728 115.396 54.5728L113.659 59.2252L109.734 62.1374L103.514 60.3457L101.455 55.083L101.831 50.3699Z" fill="#E96D79"/>
<path opacity="0.1" d="M115.396 54.5789L113.659 59.2313L109.734 62.1435L103.514 60.3518L101.455 55.083L101.846 50.376H101.938C103.328 50.4114 104.686 50.7979 105.886 51.4996C105.886 51.4996 109.586 51.9491 111.602 51.4996C113.519 51.0745 114.527 49.6351 114.944 49.878C114.968 49.8894 114.99 49.906 115.007 49.9266C115.396 50.37 115.396 54.5789 115.396 54.5789Z" fill="black"/>
<path opacity="0.1" d="M115.396 54.5787L113.659 59.2311L109.734 62.1434L103.514 60.3517L101.455 55.0829L101.846 50.3759H101.938C102.284 51.8608 103.76 56.5496 108.462 56.8806C113.297 57.2177 114.67 51.4661 114.956 49.8809C114.98 49.8923 115.002 49.9089 115.019 49.9294C115.396 50.3698 115.396 54.5787 115.396 54.5787Z" fill="black"/>
<path d="M101.831 50.3699C101.831 50.3699 102.84 56.9262 108.447 57.318C114.054 57.7097 115.004 49.9204 115.004 49.9204C115.004 49.9204 123.132 52.5837 125.028 57.3332C126.923 62.0827 128.335 65.8938 128.335 65.8938C128.335 65.8938 127.728 66.9567 127.044 67.0691C126.361 67.1814 121.72 70.3761 121.72 70.3761C121.72 70.3761 121.665 79.4561 122.169 80.0148C122.674 80.5736 122.507 82.9848 120.991 82.8724C119.475 82.7601 108.996 80.4066 100.033 82.3683C100.033 82.3683 96.279 83.7136 96.3883 81.5271C96.4977 79.3407 96.6678 70.7679 96.6678 70.7679C96.6678 70.7679 91.0061 68.302 90.672 68.302C90.3379 68.302 89.4935 67.8586 90.3896 66.3979C91.2856 64.9373 92.4094 59.9539 92.4094 59.9539C92.4094 59.9539 94.657 52.7993 101.831 50.3699Z" fill="#FF748E"/>
<path opacity="0.1" d="M119.263 62.1436C119.263 62.1436 120.945 63.3765 120.554 64.33C120.162 65.2836 119.263 62.1436 119.263 62.1436Z" fill="black"/>
<path opacity="0.1" d="M121.729 63.3276C121.572 63.8744 121.572 64.4541 121.729 65.0009V63.3276Z" fill="black"/>
<path opacity="0.1" d="M122.85 66.4043C122.85 66.4043 123.075 67.9227 122.403 68.0836L122.85 66.4043Z" fill="black"/>
<path opacity="0.1" d="M99.9815 61.752C99.9815 61.752 96.8439 64.485 97.907 65.5631L99.9815 61.752Z" fill="black"/>
<path opacity="0.1" d="M98.0194 68.3657C98.0194 68.3657 97.9678 71.2233 98.8334 71.448L98.0194 68.3657Z" fill="black"/>
<path opacity="0.1" d="M107.043 77.9469C107.043 77.9469 109.169 76.4923 109.734 76.5469L107.043 77.9469Z" fill="black"/>
<path opacity="0.1" d="M109.169 79.4621C109.169 79.4621 111.472 77.8344 112.088 77.9437L109.169 79.4621Z" fill="black"/>
</g>
<g opacity="0.885021">
<path d="M159.164 105.533C159.164 105.533 177.504 106.402 186.622 105.867L186.421 108.272L170.287 110.398L165.512 108.928L159.164 105.533Z" fill="#6C63FF"/>
<path opacity="0.1" d="M186.634 105.867L186.434 108.272L170.302 110.398L165.524 108.928L159.164 105.533C159.164 105.533 159.541 105.554 160.212 105.582C164.191 105.755 178.518 106.314 186.385 105.885L186.634 105.867Z" fill="black"/>
<path d="M192.982 140.067C189.441 142.193 177.148 140.134 177.148 140.134L173.74 127.987L169.932 140.344C164.522 142.281 153.363 139.475 153.363 139.475L157.706 112.752L158.457 109.068L159.164 105.533L166.047 107.604C166.047 107.604 168.115 109.007 176.735 108.606C185.355 108.206 186.622 105.873 186.622 105.873C187.002 105.983 187.363 107.322 187.727 108.986C188.256 111.415 188.794 114.531 189.428 115.561C190.51 117.292 192.982 140.067 192.982 140.067Z" fill="#212121"/>
<path opacity="0.1" d="M187.74 109.247C180.055 113.465 173.44 113.35 173.44 113.35C171.803 113.55 158.457 109.332 158.457 109.332L159.164 105.8L166.047 107.871C166.047 107.871 168.115 109.274 176.735 108.874C185.355 108.473 186.622 106.14 186.622 106.14C187.014 106.247 187.375 107.583 187.74 109.247Z" fill="black"/>
<path opacity="0.1" d="M186.634 105.867L186.434 108.272L170.302 110.398L165.524 108.928L159.164 105.533C159.164 105.533 159.541 105.554 160.212 105.582L166.044 107.337C166.044 107.337 168.112 108.74 176.732 108.339C183.503 108.036 185.738 106.517 186.385 105.882L186.634 105.867Z" fill="black"/>
<path d="M187.74 108.98C180.055 113.198 173.44 113.083 173.44 113.083C171.803 113.283 158.457 109.065 158.457 109.065L159.164 105.533L166.047 107.604C166.047 107.604 168.115 109.007 176.735 108.606C185.355 108.206 186.622 105.873 186.622 105.873C187.014 105.977 187.375 107.316 187.74 108.98Z" fill="#6C63FF"/>
<path opacity="0.1" d="M174.743 112.445C175.13 112.445 175.444 112.131 175.444 111.743C175.444 111.356 175.13 111.042 174.743 111.042C174.355 111.042 174.041 111.356 174.041 111.743C174.041 112.131 174.355 112.445 174.743 112.445Z" fill="black"/>
<path fill-rule="evenodd" clip-rule="evenodd" d="M174.743 112.178C175.13 112.178 175.444 111.864 175.444 111.476C175.444 111.089 175.13 110.775 174.743 110.775C174.355 110.775 174.041 111.089 174.041 111.476C174.041 111.864 174.355 112.178 174.743 112.178Z" stroke="#6C63FF" stroke-width="0.561404"/>
<path opacity="0.1" d="M156.804 124.036C156.804 124.036 158.04 127.711 158.909 127.644C159.778 127.577 156.804 124.036 156.804 124.036Z" fill="black"/>
<path opacity="0.1" d="M156.002 127.644C156.002 127.644 156.771 129.849 157.573 130.216L156.002 127.644Z" fill="black"/>
<path opacity="0.1" d="M156.002 129.949C156.002 129.949 157.217 131.485 157.937 131.853L156.002 129.949Z" fill="black"/>
<path opacity="0.1" d="M188.627 116.056C188.627 116.056 189.762 117.759 188.627 118.127V116.056Z" fill="black"/>
<path opacity="0.1" d="M189.143 118.825C187.825 117.261 188.639 120.951 188.639 120.951C188.639 120.951 189.48 119.226 189.143 118.825Z" fill="black"/>
<path opacity="0.1" d="M189.808 120.729C189.808 120.729 187.803 123.702 188.204 124.036L189.808 120.729Z" fill="black"/>
<path opacity="0.1" d="M163.289 116.12C160.832 116.12 158.268 115.008 158.125 114.941L158.235 114.695C158.283 114.72 163.189 116.848 165.843 115.251C166.846 114.644 167.408 113.575 167.517 112.062L167.784 112.084C167.669 113.687 167.061 114.817 165.98 115.479C165.158 115.933 164.228 116.155 163.289 116.12Z" fill="black"/>
<path d="M163.289 115.852C160.832 115.852 158.268 114.741 158.125 114.674L158.235 114.431C158.283 114.452 163.189 116.581 165.843 114.984C166.846 114.376 167.408 113.307 167.517 111.795L167.784 111.816C167.669 113.42 167.061 114.549 165.98 115.211C165.158 115.666 164.228 115.887 163.289 115.852Z" fill="#6C63FF"/>
<path opacity="0.1" d="M183.463 116.32C182.834 116.329 182.211 116.195 181.641 115.928C179.648 114.968 179.326 112.618 179.311 112.518L179.578 112.484C179.578 112.509 179.897 114.795 181.759 115.688C183.417 116.487 185.771 115.992 188.745 114.17L188.882 114.398C186.765 115.679 184.951 116.32 183.463 116.32Z" fill="black"/>
<path d="M183.463 116.053C182.834 116.062 182.211 115.928 181.641 115.661C179.648 114.701 179.326 112.351 179.311 112.251L179.578 112.217C179.578 112.242 179.897 114.528 181.759 115.421C183.417 116.22 185.771 115.725 188.745 113.903L188.882 114.13C186.765 115.412 184.951 116.053 183.463 116.053Z" fill="#6C63FF"/>
</g>
<path d="M103.38 105.943C103.38 105.943 106.828 110.756 109.169 110.288C111.511 109.821 111.742 109.308 113.823 105.943L115.53 109.869L113.519 114.728L111.138 117.811L106.09 117.018L104.456 111.503L103.38 105.943Z" fill="#6C63FF"/>
<path opacity="0.1" d="M115.53 109.866L113.519 114.725L111.138 117.807L106.09 117.015L104.456 111.5L103.38 105.943C103.38 105.943 103.684 106.362 104.158 106.939C105.315 108.32 107.517 110.616 109.169 110.279C111.478 109.818 111.736 109.31 113.741 106.07L113.823 105.934L115.53 109.866Z" fill="black"/>
<path opacity="0.1" d="M115.53 109.866L113.519 114.725L111.138 117.808L106.09 117.015L104.456 111.5L103.38 105.943C103.38 105.943 103.684 106.362 104.158 106.939C104.911 109.368 106.53 113.265 109.169 113.231C112.149 113.198 113.352 108.263 113.741 106.08L113.823 105.943L115.53 109.866Z" fill="black"/>
<path d="M101.558 105.8C101.558 105.8 100.388 105.66 100.996 107.109C101.603 108.557 102.724 113.322 102.165 114.303C101.606 115.284 101.886 117.947 99.456 118.463L100.155 121.218C100.155 121.218 100.294 127.291 100.015 128.181C99.7354 129.071 99.6868 133.972 99.781 134.485C99.8752 134.999 99.8296 138.363 99.456 138.506C99.0824 138.649 98.8485 140.28 100.063 140.559C101.278 140.838 106.463 140.981 107.399 141.26C108.334 141.54 114.968 141.26 114.968 141.26C114.968 141.26 117.771 140.887 118.473 140.653C119.174 140.419 119.314 139.861 119.08 138.786C118.846 137.71 117.771 129.909 118.005 128.928C118.239 127.947 118.288 118.369 118.288 118.369C118.288 118.369 116.465 117.762 116.465 115.985C116.465 114.209 115.764 109.444 117.212 106.456C117.212 106.456 116.043 105.654 115.858 105.797C115.672 105.94 113.908 105.427 113.908 105.427C113.908 105.427 112.997 113.556 109.185 113.602C105.373 113.647 103.675 105.427 103.675 105.427C103.675 105.427 103.708 104.68 101.558 105.8Z" fill="#413E4D"/>
<path opacity="0.1" d="M107.071 131.871C107.071 131.871 107.857 133.787 109.169 134.067C110.482 134.346 107.071 131.871 107.071 131.871Z" fill="black"/>
<path opacity="0.1" d="M105.856 133.365C105.856 133.365 108.395 135.421 108.286 135.843L105.856 133.365Z" fill="black"/>
<path opacity="0.1" d="M100.762 121.218C100.762 121.218 102.773 122.572 102.773 123.553L100.762 121.218Z" fill="black"/>
<path opacity="0.1" d="M102.117 125.469C102.117 125.469 101.558 123.507 101.184 123.088L102.117 125.469Z" fill="black"/>
<path opacity="0.1" d="M101.184 126.216C101.184 126.216 102.026 127.899 102.117 128.366L101.184 126.216Z" fill="black"/>
<path opacity="0.1" d="M117.492 122.806C117.492 122.806 114.877 123.602 115.108 124.583L117.492 122.806Z" fill="black"/>
<path opacity="0.1" d="M115.095 131.871C115.095 131.871 118.521 127.899 117.492 127.993C116.462 128.087 115.095 131.871 115.095 131.871Z" fill="black"/>
<g opacity="0.1">
<path d="M116.462 115.985C116.462 115.165 116.313 113.708 116.295 112.083C116.277 113.948 116.462 115.672 116.462 116.593C116.462 118.33 118.203 118.946 118.285 118.973C118.285 118.594 118.285 118.366 118.285 118.366C118.285 118.366 116.462 117.762 116.462 115.985Z" fill="black"/>
<path d="M119.071 139.393C119.107 139.552 119.134 139.714 119.153 139.876C119.192 139.511 119.164 139.141 119.071 138.786C118.871 137.875 118.057 132.026 117.972 129.742C117.881 131.303 118.859 138.373 119.071 139.393Z" fill="black"/>
<path d="M99.7385 133.334C99.7385 131.667 99.8327 129.368 100.015 128.779C100.164 128.305 100.194 126.368 100.191 124.655C100.191 126.192 100.145 127.753 100.015 128.172C99.8084 128.834 99.7294 131.682 99.7385 133.334Z" fill="black"/>
<path d="M101.558 106.407C103.705 105.287 103.66 106.034 103.66 106.034C103.66 106.034 105.342 114.257 109.169 114.209C112.997 114.16 113.908 106.034 113.908 106.034C113.908 106.034 115.685 106.547 115.87 106.404C116.055 106.262 116.678 106.708 117.021 106.927C117.085 106.766 117.152 106.608 117.228 106.456C117.228 106.456 116.058 105.654 115.87 105.797C115.682 105.94 113.908 105.427 113.908 105.427C113.908 105.427 112.997 113.556 109.185 113.602C105.373 113.647 103.675 105.427 103.675 105.427C103.675 105.427 103.72 104.68 101.573 105.8C101.573 105.8 100.622 105.691 100.887 106.738C101.038 106.347 101.558 106.407 101.558 106.407Z" fill="black"/>
<path d="M99.453 139.113C99.7567 139.001 99.8387 136.921 99.8205 135.773C99.8053 136.927 99.699 138.412 99.453 138.506C99.207 138.6 99.0885 139.113 99.1827 139.608C99.2313 139.347 99.3284 139.156 99.453 139.113Z" fill="black"/>
<path d="M102.165 114.91C102.314 114.512 102.363 114.084 102.308 113.662C102.305 113.883 102.257 114.101 102.165 114.303C101.603 115.284 101.883 117.947 99.453 118.463L99.5988 119.034C101.871 118.445 101.616 115.873 102.165 114.91Z" fill="black"/>
</g>
<path d="M115.663 162.925C114.515 165.014 102.861 162.925 102.861 162.925L102.891 162.715L103.122 161.097H115.402L115.636 162.712L115.663 162.925Z" fill="#6C63FF"/>
<path opacity="0.1" d="M115.663 162.925C114.515 165.014 102.861 162.925 102.861 162.925L102.891 162.716C103.45 162.716 111.882 162.515 115.648 162.716L115.663 162.925Z" fill="black"/>
<path d="M102.861 162.925C102.861 162.925 100.771 163.447 97.5304 172.223C94.2895 181 93.1414 192.339 93.1414 192.339C93.1414 192.339 91.319 195.424 99.0976 195.631C99.0976 195.631 98.4719 197.669 102.861 197.356C107.25 197.043 106.618 197.046 106.618 197.046C106.618 197.046 109.44 195.27 110.694 195.582C111.949 195.895 112.732 196.001 114.09 197.149C115.448 198.297 119.788 197.83 119.84 196.943C119.875 196.507 119.875 196.07 119.84 195.634C119.84 195.634 126.476 196.053 125.222 191.246C123.967 186.439 122.923 178.549 122.923 178.549C122.923 178.549 119.527 163.137 115.657 162.928C111.788 162.718 102.861 162.925 102.861 162.925Z" fill="#6C63FF"/>
<path opacity="0.1" d="M99.0041 195.638L101.463 168.991L101.671 169.01L99.2128 195.657L99.0041 195.638Z" fill="black"/>
<path opacity="0.1" d="M106.506 197.027L106.614 168.971L106.824 168.971L106.716 197.028L106.506 197.027Z" fill="black"/>
<path opacity="0.1" d="M112.963 168.973L113.172 168.965L114.22 197.127L114.01 197.134L112.963 168.973Z" fill="black"/>
<path opacity="0.1" d="M119.739 195.634C119.375 179.585 116.641 168.598 116.608 168.5L116.811 168.449C116.839 168.558 119.588 179.566 119.949 195.643L119.739 195.634Z" fill="black"/>
<path opacity="0.1" d="M103.225 164.492C103.225 164.492 102.861 164.702 103.225 165.707V164.492Z" fill="black"/>
<path opacity="0.1" d="M104.273 164.492C104.273 164.492 103.28 165.118 104.273 166.165V164.492Z" fill="black"/>
<path opacity="0.1" d="M113.574 164.492C113.574 164.492 114.931 165.798 114.618 166.165L113.574 164.492Z" fill="black"/>
<path opacity="0.1" d="M114.667 164.179C114.667 164.179 114.88 165.746 115.663 166.165L114.667 164.179Z" fill="black"/>
<g opacity="0.88837">
<path d="M170.135 161.674C170.135 161.674 175.262 159.633 177.479 162.123C179.697 164.613 175.961 167.644 175.961 167.644L174.394 170.772L170.706 170.368L169.838 166.044L170.135 161.674Z" fill="#57CCB7"/>
<path opacity="0.1" d="M175.961 167.629L174.394 170.757L170.706 170.365L169.838 166.044L170.141 161.674L170.223 161.644C170.873 161.404 175.262 159.873 177.361 161.981C177.405 162.021 177.446 162.063 177.486 162.108C179.697 164.586 175.961 167.629 175.961 167.629Z" fill="black"/>
<path opacity="0.1" d="M175.961 167.629L174.394 170.757L170.706 170.365L169.838 166.044L170.141 161.674L170.223 161.644C170.858 165.121 172.553 166.587 172.838 166.806L172.881 166.836L173.923 166.751C175.949 165.634 177.018 162.977 177.361 161.972C177.405 162.012 177.446 162.054 177.486 162.099C179.697 164.586 175.961 167.629 175.961 167.629Z" fill="black"/>
<path d="M184.915 179.539C184.915 179.539 183.785 193.927 184.092 195.664C184.399 197.401 183.439 197.532 183.439 197.532C183.439 197.532 179.35 198.443 178.579 197.836C177.808 197.228 176.492 197.11 176.492 197.11C176.492 197.11 173.455 197.805 172.1 197.286C170.746 196.767 168.492 196.982 168.492 196.982C168.492 196.982 166.755 198.027 166.275 197.808C165.795 197.59 165.187 197.678 163.796 197.289C162.405 196.9 161.621 196.548 162.36 194.158C163.098 191.768 162.451 184.204 162.405 183.289C162.36 182.375 161.928 180.162 161.318 177.52C160.707 174.878 162.36 175.433 162.36 175.433C166.232 173.435 164.622 169.521 164.015 167.784C163.407 166.047 164.361 165.962 164.838 165.962C165.315 165.962 167.143 164.398 167.143 164.398L167.885 163.733L170.144 161.704C170.706 165.503 172.529 167.097 172.832 167.334L172.875 167.368L173.917 167.28C176.438 165.892 177.479 162.117 177.479 162.117C177.783 162.633 178.461 163.222 179.217 163.769C180.207 164.469 181.238 165.108 182.306 165.682C184.128 166.769 182.786 167.857 182.786 167.857C180.568 175.418 183.697 175.752 183.697 175.752C186.002 176.092 184.915 179.539 184.915 179.539Z" fill="#33907C"/>
<path opacity="0.1" d="M167.83 165.977C167.83 165.977 167.177 166.326 167.177 166.715L167.83 165.977Z" fill="black"/>
<path opacity="0.1" d="M168.222 166.715C168.222 166.715 167.353 167.626 167.505 167.89L168.222 166.715Z" fill="black"/>
<path opacity="0.1" d="M168.222 167.893C168.222 167.893 167.569 168.588 167.83 168.98L168.222 167.893Z" fill="black"/>
<path opacity="0.1" d="M172.571 167.857L169.838 170.496C169.737 167.562 168.319 165.215 167.62 164.225L169.88 162.196C170.433 166.026 172.27 167.62 172.571 167.857Z" fill="black"/>
<path d="M172.832 167.334L170.099 169.976C170.002 167.04 168.58 164.695 167.885 163.702L170.144 161.674C170.706 165.503 172.529 167.098 172.832 167.334Z" fill="#57CCB7"/>
<path opacity="0.1" d="M179.478 164.283C178.385 165.989 176.353 170.496 176.353 170.496L174.178 167.802C176.699 166.411 177.741 162.64 177.741 162.64C178.044 163.144 178.722 163.733 179.478 164.283Z" fill="black"/>
<path d="M179.211 163.76C178.12 165.47 176.085 169.977 176.085 169.977L173.917 167.286C176.438 165.898 177.479 162.124 177.479 162.124C177.783 162.625 178.461 163.214 179.211 163.76Z" fill="#57CCB7"/>
<path opacity="0.1" d="M177.613 191.623C177.613 191.623 177.148 195.57 176.881 195.795L177.613 191.623Z" fill="black"/>
<path opacity="0.1" d="M181.437 192.318C181.437 192.318 181.96 195.142 181.741 195.795L181.437 192.318Z" fill="black"/>
<path opacity="0.1" d="M170.308 192.491C170.308 192.491 169.831 195.142 170.308 195.446V192.491Z" fill="black"/>
<path opacity="0.1" d="M167.487 192.099C167.487 192.099 167.092 195.23 167.183 195.795L167.487 192.099Z" fill="black"/>
<path opacity="0.1" d="M182.09 176.843C182.09 176.843 180.875 177.799 180.96 178.057L182.09 176.843Z" fill="black"/>
<path opacity="0.1" d="M182.959 177.453C182.959 177.453 180.632 179.409 181.796 179.19C182.959 178.972 182.959 177.453 182.959 177.453Z" fill="black"/>
</g>
<path fill-rule="evenodd" clip-rule="evenodd" d="M202.898 91.4315C204.858 90.6159 206.133 88.6999 206.128 86.5776C206.121 83.6859 203.775 81.3452 200.882 81.3452C198.76 81.3452 196.846 82.6243 196.035 84.5856C195.224 86.5468 195.675 88.8035 197.177 90.3024C198.68 91.8014 200.938 92.2471 202.898 91.4315ZM204.169 85.4631L200.275 89.3532V89.3593C200.212 89.4233 200.126 89.4593 200.036 89.4593C199.947 89.4593 199.861 89.4233 199.798 89.3593L197.599 87.1606C197.535 87.0978 197.499 87.0119 197.499 86.9222C197.499 86.8326 197.535 86.7467 197.599 86.6839L198.076 86.2041C198.209 86.0737 198.422 86.0737 198.556 86.2041L200.038 87.6799L203.212 84.5065C203.275 84.4425 203.361 84.4065 203.45 84.4065C203.54 84.4065 203.626 84.4425 203.689 84.5065L204.169 84.9863C204.299 85.1186 204.299 85.3308 204.169 85.4631Z" fill="#33907C"/>
<path fill-rule="evenodd" clip-rule="evenodd" d="M137.338 149.381C140.235 149.381 142.583 147.033 142.583 144.137C142.583 141.24 140.235 138.892 137.338 138.892C134.441 138.892 132.092 141.24 132.092 144.137C132.092 147.033 134.441 149.381 137.338 149.381ZM140.636 143.022L136.73 146.912C136.667 146.976 136.581 147.012 136.49 147.012C136.4 147.012 136.314 146.976 136.25 146.912L134.051 144.714C133.921 144.58 133.921 144.367 134.051 144.234L134.531 143.757C134.594 143.693 134.68 143.657 134.77 143.657C134.859 143.657 134.945 143.693 135.008 143.757L136.49 145.239L139.664 142.081C139.728 142.017 139.814 141.98 139.904 141.98C139.995 141.98 140.081 142.017 140.144 142.081L140.636 142.542C140.701 142.606 140.737 142.692 140.737 142.782C140.737 142.872 140.701 142.959 140.636 143.022Z" fill="#33907C"/>
<path fill-rule="evenodd" clip-rule="evenodd" d="M137.338 206.673C140.235 206.673 142.583 204.325 142.583 201.428C142.583 198.532 140.235 196.184 137.338 196.184C134.441 196.184 132.092 198.532 132.092 201.428C132.092 204.325 134.441 206.673 137.338 206.673ZM140.636 200.314L136.73 204.204H136.746C136.682 204.268 136.596 204.304 136.506 204.304C136.415 204.304 136.329 204.268 136.266 204.204L134.067 202.005C133.936 201.872 133.936 201.659 134.067 201.525L134.547 201.049C134.609 200.985 134.695 200.948 134.785 200.948C134.875 200.948 134.961 200.985 135.023 201.049L136.506 202.53L139.68 199.357C139.743 199.293 139.829 199.257 139.92 199.257C140.01 199.257 140.096 199.293 140.16 199.357L140.636 199.834C140.701 199.897 140.737 199.984 140.737 200.074C140.737 200.164 140.701 200.25 140.636 200.314Z" fill="#33907C"/>
<path opacity="0.3" d="M42.1939 238.88C64.964 238.88 83.4229 235.272 83.4229 230.821C83.4229 226.37 64.964 222.761 42.1939 222.761C19.4238 222.761 0.964905 226.37 0.964905 230.821C0.964905 235.272 19.4238 238.88 42.1939 238.88Z" fill="#212121"/>
<path d="M76.5281 121.43L76.5433 121.409L76.516 121.388L76.3519 121.278L76.3853 121.303C76.1416 121.162 75.8305 121.23 75.6685 121.461L75.6017 121.555L71.9113 126.863L71.2674 127.808C69.3205 127.221 66.1586 129.687 64.5579 131.102C64.4577 131.19 64.3635 131.272 64.2785 131.351C64.1509 131.066 64.075 130.884 64.075 130.884C63.996 131.752 60.9283 133.055 60.2115 133.529C59.8858 133.726 59.5208 133.848 59.1423 133.887C59.2456 130.586 56.6912 127.112 56.6912 127.112L50.4494 119.171C50.2198 117.735 50.4427 116.263 51.0873 114.959C51.1389 114.856 51.1905 114.752 51.2482 114.655H51.2786C51.0425 115.322 50.9103 116.022 50.8868 116.729C50.902 117.267 51.4001 119.872 52.1017 119.766C52.2436 119.781 52.3817 119.715 52.4601 119.596C53.019 118.946 53.0676 117.841 53.0403 116.817C53.0306 117.118 52.9971 117.418 52.94 117.713C52.9856 116.863 52.8884 115.964 52.8884 115.323C52.8884 115.068 52.8884 114.816 52.9066 114.561H52.9826C52.9826 114.658 52.9826 114.762 52.9826 114.865C52.9826 114.759 52.9826 114.655 52.9826 114.561H53.0615C54.4616 114.305 55.7734 113.697 56.8734 112.794C57.422 112.772 57.9387 112.53 58.307 112.123C58.4423 112.574 58.3406 113.063 58.0367 113.422C58.872 113.383 59.5797 112.733 59.9016 111.971C60.1775 111.192 60.2589 110.358 60.1386 109.541C60.0185 108.724 59.9586 107.899 59.9594 107.072C60.0169 106.626 60.0413 106.177 60.0323 105.727C60.0188 105.59 59.9945 105.454 59.9594 105.32H59.9837C60.1453 105.324 60.3016 105.262 60.418 105.15C60.7643 104.883 60.8766 104.361 60.9647 103.96C61.2045 103.037 61.3129 102.085 61.2867 101.133C61.2685 101.421 61.232 101.713 61.1895 102.001C61.2654 100.908 61.1136 99.8449 60.3907 99.0523C59.8925 98.5087 59.197 98.1899 58.5288 97.871C58.2898 97.7856 58.0794 97.6352 57.9213 97.4368C57.8032 97.2029 57.7388 96.9456 57.733 96.6836C57.4991 95.0863 55.9956 93.9748 54.4982 93.3432C52.5725 92.505 50.2459 92.1467 48.4083 93.1428C47.4971 93.6256 46.7985 94.3818 45.9784 94.9982C44.9518 95.7787 43.7672 96.3253 42.6708 97.0055C41.5743 97.6858 40.5446 98.5482 40.007 99.7204C39.2021 101.542 39.8065 103.607 39.9068 105.584C40.0678 108.697 38.786 111.962 36.2468 113.784C35.9424 113.97 35.6706 114.205 35.4419 114.479C35.2133 114.763 35.1866 115.16 35.375 115.472C35.5057 115.642 35.7122 115.739 35.855 115.9C36.1435 116.228 36.0858 116.729 35.9734 117.148C35.6046 118.52 34.8696 119.765 33.8473 120.75C33.8928 121.072 34.2907 121.2 34.6157 121.248C35.4756 121.375 36.3436 121.437 37.2126 121.436H37.5862C37.5468 121.537 37.5042 121.643 37.4617 121.755C36.9909 122.994 36.3804 124.901 36.5839 126.067C36.8877 127.908 37.8596 136.323 37.3797 137.799C36.8998 139.274 38.1512 149.976 38.1512 149.976C38.1512 149.976 38.3182 150.802 38.6068 152.035C37.8566 153.802 37 155.764 36.5718 156.551C35.7092 158.127 36.1344 166.174 39.108 169.751C39.108 169.751 40.3229 171.488 40.0192 172.117C39.7154 172.746 40.0738 173.854 40.0738 173.854L40.5446 184.267C40.5345 185.331 40.4615 186.394 40.3259 187.45C39.0563 189.02 37.1003 191.31 36.1799 191.683C34.7554 192.263 24.1308 205.148 24.1308 205.148C24.1308 205.148 24.2158 205.303 24.3829 205.555L24.0791 205.901L22.0411 208.264L21.8801 208.449C21.4974 208.376 18.9491 207.915 16.9292 207.769H16.7288V207.732C16.0209 207.651 15.3051 207.671 14.6026 207.79C14.4697 207.815 14.3471 207.878 14.2503 207.972C13.5608 208.816 13.1902 222.069 13.1902 222.069C13.1902 222.069 13.9253 228.704 16.2276 229.075C16.345 229.116 16.4679 229.138 16.5921 229.142H16.6923C18.3325 229.02 19.0857 228.082 19.4259 227.438C19.5266 227.246 19.6031 227.042 19.6537 226.831C19.6537 226.831 19.3864 225.649 20.1033 224.019C20.8201 222.388 22.1595 219.518 22.1595 219.518C22.1595 219.518 24.5894 216.964 24.1551 215.725C24.2219 215.625 24.3009 215.516 24.3859 215.391C25.2971 214.091 27.1438 211.525 28.6382 209.813C28.7354 209.697 28.8326 209.591 28.9419 209.485C29.4856 209.714 30.0545 209.878 30.6368 209.974C30.6368 209.974 32.9209 209.081 33.7683 207.082C34.1297 206.232 35.5482 204.726 37.0577 203.277L37.0091 203.663L36.9575 216.339C37.4484 216.676 37.9713 216.964 38.5187 217.198V217.502C38.5294 219.308 38.4198 221.113 38.1907 222.904L38.1451 223.187C37.9568 223.053 37.7928 223.007 37.6895 223.111C37.2218 223.584 36.9302 226.609 36.9028 228.003C36.9028 228.048 36.9028 228.094 36.9028 228.143C36.8269 229.533 36.0342 231.556 38.4215 231.659C40.2075 231.735 47.9072 231.85 52.0258 231.911C54.2448 231.953 56.4035 231.188 58.1005 229.758C59.4096 228.638 60.2024 227.304 58.4194 226.323C58.3101 226.263 58.1947 226.205 58.0671 226.147L54.1185 225.54L47.3726 222.096C47.3726 222.096 47.3331 220.013 46.5221 220.359C46.2812 220.412 46.0504 220.503 45.8387 220.63C45.7992 220.554 45.7567 220.472 45.7172 220.387C45.1678 219.298 44.8827 218.095 44.885 216.876C44.885 216.767 44.885 216.654 44.9002 216.542C45.0977 216.362 45.2844 216.17 45.4591 215.968C45.4591 215.968 45.4074 211.234 45.939 210.341C46.4705 209.448 48.1167 200.399 48.1167 200.399C48.1167 200.399 48.1684 198.716 49.2314 197.717C50.2945 196.718 49.9209 193.824 49.9209 193.824C49.9209 193.824 51.4092 193.034 51.8861 190.459C52.3629 187.884 53.9059 182.26 53.9059 182.26C53.9059 182.26 57.0921 173.948 56.8825 168.692C56.673 163.435 57.1863 160.696 57.1863 160.696L57.8484 148.476V148.288C58.1127 148.488 58.2919 148.652 58.2919 148.652C58.2919 148.652 58.2919 148.603 58.2919 148.518C58.389 148.6 58.4437 148.652 58.4437 148.652C58.4437 148.652 58.7839 143.107 58.6685 140.908C60.5273 140.277 63.3582 139.238 63.5282 138.71C63.7652 137.923 66.9544 135.436 66.9544 135.436C66.8854 135.425 66.8193 135.4 66.76 135.363C66.8602 135.317 66.9635 135.263 67.0637 135.205C69.1534 134.088 73.0352 130.82 72.3821 128.828L76.6344 122.727C76.9089 122.324 76.8646 121.784 76.5281 121.43Z" fill="url(#paint0_linear_2_114)"/>
<path d="M66.6354 136.165C66.3251 136.359 65.9793 136.49 65.6179 136.55C64.2906 136.59 63.188 132.997 63.188 132.997C63.188 132.997 63.5647 132.615 64.1661 132.086C65.946 130.504 69.6789 127.583 71.4284 129.217C73.4027 131.042 68.9347 134.929 66.6354 136.165Z" fill="#FFD4D6"/>
<path d="M46.4583 221.841L41.5591 227.128C41.5591 227.128 37.0273 227.18 37.9143 224.68C38.0914 224.139 38.2175 223.581 38.2909 223.016C38.5141 221.242 38.6207 219.454 38.6098 217.665C38.6098 216.493 38.5916 215.67 38.5916 215.67C38.5916 215.67 45.7263 212.545 44.9974 215.801C44.9067 216.208 44.8578 216.623 44.8516 217.04C44.8487 218.246 45.1274 219.437 45.6656 220.517C45.8858 220.983 46.1513 221.427 46.4583 221.841Z" fill="#FFD4D6"/>
<path opacity="0.1" d="M46.4583 221.841L41.5591 227.128C41.5591 227.128 37.0273 227.18 37.9143 224.681C38.0914 224.139 38.2175 223.582 38.2909 223.016C38.9378 223.517 39.8673 224.993 39.8673 224.993C39.8673 224.993 42.9927 225.904 43.8523 223.171C44.3322 221.653 45.0915 220.885 45.6747 220.517C45.892 220.983 46.1545 221.426 46.4583 221.841Z" fill="black"/>
<path d="M57.8241 229.804C56.163 231.219 54.0404 231.975 51.8587 231.93C47.8191 231.872 40.2713 231.753 38.5187 231.681C36.1739 231.577 36.9514 229.576 37.0274 228.197C37.0274 228.149 37.0274 228.106 37.0274 228.061C37.0547 226.679 37.3311 223.685 37.7989 223.217C38.2666 222.749 39.8673 225.3 39.8673 225.3C39.8673 225.3 42.9927 226.211 43.8523 223.478C44.7119 220.745 46.4583 220.481 46.4583 220.481C47.2511 220.138 47.2906 222.2 47.2906 222.2L53.9059 225.61L57.7876 226.217C57.9122 226.275 58.0246 226.333 58.1309 226.39C59.8865 227.374 59.1089 228.692 57.8241 229.804Z" fill="#C17174"/>
<path opacity="0.25" d="M45.6018 224.547C45.7595 224.547 45.8873 224.419 45.8873 224.262C45.8873 224.104 45.7595 223.976 45.6018 223.976C45.4441 223.976 45.3163 224.104 45.3163 224.262C45.3163 224.419 45.4441 224.547 45.6018 224.547Z" fill="white"/>
<path opacity="0.25" d="M48.2868 225.877C48.4445 225.877 48.5723 225.749 48.5723 225.592C48.5723 225.434 48.4445 225.306 48.2868 225.306C48.1291 225.306 48.0013 225.434 48.0013 225.592C48.0013 225.749 48.1291 225.877 48.2868 225.877Z" fill="white"/>
<path opacity="0.25" d="M49.6658 226.494C49.8234 226.494 49.9513 226.366 49.9513 226.208C49.9513 226.051 49.8234 225.923 49.6658 225.923C49.5081 225.923 49.3802 226.051 49.3802 226.208C49.3802 226.366 49.5081 226.494 49.6658 226.494Z" fill="white"/>
<path opacity="0.25" d="M52.53 227.593C52.6877 227.593 52.8155 227.465 52.8155 227.307C52.8155 227.15 52.6877 227.022 52.53 227.022C52.3723 227.022 52.2445 227.15 52.2445 227.307C52.2445 227.465 52.3723 227.593 52.53 227.593Z" fill="white"/>
<path opacity="0.25" d="M51.0721 227.125C51.2298 227.125 51.3576 226.997 51.3576 226.84C51.3576 226.682 51.2298 226.554 51.0721 226.554C50.9144 226.554 50.7866 226.682 50.7866 226.84C50.7866 226.997 50.9144 227.125 51.0721 227.125Z" fill="white"/>
<path d="M57.8241 229.804C56.163 231.219 54.0404 231.975 51.8587 231.929C47.8191 231.872 40.2713 231.753 38.5187 231.68C36.1739 231.577 36.9514 229.576 37.0274 228.197L51.7494 229.108C51.7494 229.108 57.7785 228.197 58.1278 226.399C59.8865 227.374 59.1089 228.692 57.8241 229.804Z" fill="#C17174"/>
<path opacity="0.25" d="M57.8241 229.804C56.163 231.219 54.0404 231.975 51.8587 231.929C47.8191 231.872 40.2713 231.753 38.5187 231.68C36.1739 231.577 36.9514 229.576 37.0274 228.197L51.7494 229.108C51.7494 229.108 57.7785 228.197 58.1278 226.399C59.8865 227.374 59.1089 228.692 57.8241 229.804Z" fill="white"/>
<path d="M30.4181 208.562C29.8764 209.003 29.3817 209.5 28.9419 210.043C27.481 211.738 25.6738 214.295 24.7777 215.564C24.4315 216.062 24.2219 216.375 24.2219 216.375L22.2658 216.087C22.2658 216.087 20.1579 212.859 20.1853 212.783C20.2126 212.707 21.8558 209.239 21.8558 209.239L22.4906 208.495L24.4922 206.156L25.4034 205.1C25.4034 205.1 32.1828 207.286 30.4181 208.562Z" fill="#FFD4D6"/>
<path opacity="0.1" d="M24.7777 215.57C24.4315 216.068 24.2219 216.381 24.2219 216.381L22.2658 216.093C22.2658 216.093 20.1579 212.865 20.1853 212.789C20.2126 212.713 21.8558 209.239 21.8558 209.239L22.4906 208.495L22.6971 208.534H23.1953C21.4488 210.356 23.3228 214.365 23.3228 214.365C23.3228 214.365 24.1308 214.441 24.7777 215.57Z" fill="black"/>
<path d="M22.5939 219.652C22.5939 219.652 21.2908 222.464 20.5862 224.079C19.8815 225.695 20.1427 226.864 20.1427 226.864C20.0931 227.075 20.0187 227.279 19.921 227.472C19.4121 228.483 18.3868 229.133 17.2542 229.16H17.1266C14.7514 229.099 13.9982 222.206 13.9982 222.206C13.9982 222.206 14.3627 209.084 15.04 208.237C15.1331 208.142 15.2529 208.079 15.3832 208.054C16.0744 207.935 16.7792 207.915 17.4759 207.997C19.6233 208.152 22.3843 208.68 22.3843 208.68H22.8794C21.1329 210.502 23.0069 214.514 23.0069 214.514C23.0069 214.514 23.8422 214.59 24.4922 215.762C25.1422 216.934 22.5939 219.652 22.5939 219.652Z" fill="#C17174"/>
<path opacity="0.25" d="M19.7266 216.032C19.8843 216.032 20.0121 215.904 20.0121 215.746C20.0121 215.589 19.8843 215.461 19.7266 215.461C19.5689 215.461 19.4411 215.589 19.4411 215.746C19.4411 215.904 19.5689 216.032 19.7266 216.032Z" fill="white"/>
<path opacity="0.25" d="M19.5839 218.306C19.7415 218.306 19.8694 218.178 19.8694 218.021C19.8694 217.863 19.7415 217.735 19.5839 217.735C19.4262 217.735 19.2983 217.863 19.2983 218.021C19.2983 218.178 19.4262 218.306 19.5839 218.306Z" fill="white"/>
<path d="M19.7297 227.414C19.2207 228.426 18.1954 229.075 17.0629 229.102H16.9383C14.5631 229.042 13.8068 222.148 13.8068 222.148C13.8068 222.148 14.1713 209.026 14.8486 208.179C14.9418 208.085 15.0615 208.021 15.1919 207.997C15.883 207.877 16.5879 207.858 17.2846 207.939C17.2451 210.299 17.1327 217.754 17.2846 218.495C17.4365 219.236 18.782 225.437 19.7297 227.414Z" fill="#C17174"/>
<path opacity="0.25" d="M19.7297 227.414C19.2207 228.426 18.1954 229.075 17.0629 229.102H16.9383C14.5631 229.042 13.8068 222.148 13.8068 222.148C13.8068 222.148 14.1713 209.026 14.8486 208.179C14.9418 208.085 15.0615 208.021 15.1919 207.997C15.883 207.877 16.5879 207.858 17.2846 207.939C17.2451 210.299 17.1327 217.754 17.2846 218.495C17.4365 219.236 18.782 225.437 19.7297 227.414Z" fill="white"/>
<path d="M16.9353 229.108C14.5601 229.047 13.8038 222.154 13.8038 222.154C13.8038 222.154 14.1683 209.032 14.8456 208.185C14.9387 208.09 15.0585 208.027 15.1888 208.002C15.6869 208.743 16.1243 210.383 15.7295 213.991C14.9883 220.827 15.8813 221.258 15.8813 221.258C15.8813 221.258 16.996 227.067 16.9353 229.108Z" fill="#C17174"/>
<path opacity="0.1" d="M16.9353 229.108C14.5601 229.047 13.8038 222.154 13.8038 222.154C13.8038 222.154 14.1683 209.032 14.8456 208.185C14.9387 208.09 15.0585 208.027 15.1888 208.002C15.6869 208.743 16.1243 210.383 15.7295 213.991C14.9883 220.827 15.8813 221.258 15.8813 221.258C15.8813 221.258 16.996 227.067 16.9353 229.108Z" fill="black"/>
<path opacity="0.1" d="M66.6354 136.165C66.3251 136.359 65.9793 136.49 65.6179 136.55C64.2906 136.59 63.188 132.997 63.188 132.997C63.188 132.997 63.5647 132.615 64.1661 132.086C64.6004 133.058 65.7971 135.679 66.6354 136.165Z" fill="black"/>
<path d="M58.1187 134.871C58.1187 134.871 59.2121 134.95 59.9138 134.482C60.6154 134.015 63.6254 132.724 63.7044 131.865C63.7044 131.865 65.4995 136.238 66.517 136.396C66.517 136.396 63.3915 138.855 63.1577 139.636C62.9238 140.416 56.8278 142.333 56.8278 142.333L58.1187 134.871Z" fill="#FF748E"/>
<path opacity="0.1" d="M58.1187 134.871C58.1187 134.871 59.2121 134.95 59.9138 134.482C60.6154 134.015 63.6254 132.724 63.7044 131.865C63.7044 131.865 65.4995 136.238 66.517 136.396C66.517 136.396 63.3915 138.855 63.1577 139.636C62.9238 140.416 56.8278 142.333 56.8278 142.333L58.1187 134.871Z" fill="black"/>
<path opacity="0.1" d="M30.4181 208.562C29.8764 209.003 29.3817 209.5 28.942 210.043C26.585 209.057 25.0663 207.04 24.4892 206.156L25.4004 205.1C25.4004 205.1 32.1828 207.286 30.4181 208.562Z" fill="black"/>
<path d="M41.5651 186.417C41.5651 186.417 37.7442 191.522 36.347 192.096C34.9498 192.67 24.5347 205.428 24.5347 205.428C24.5347 205.428 26.7733 209.543 30.8889 210.217C30.8889 210.217 33.1274 209.333 33.9627 207.353C34.7979 205.373 41.3586 199.779 41.3586 199.779L41.5651 186.417Z" fill="#5E5A6B"/>
<path opacity="0.1" d="M41.5651 186.417C41.5651 186.417 37.7442 191.522 36.347 192.096C34.9498 192.67 24.5347 205.428 24.5347 205.428C24.5347 205.428 26.7733 209.543 30.8889 210.217C30.8889 210.217 33.1274 209.333 33.9627 207.353C34.7979 205.373 41.3586 199.779 41.3586 199.779L41.5651 186.417Z" fill="black"/>
<path opacity="0.1" d="M29.9898 203.499C31.1459 203.62 32.3115 203.62 33.4676 203.499C35.5239 203.302 33.9748 204.553 29.9898 203.499Z" fill="black"/>
<path opacity="0.1" d="M29.0513 204.826C29.0513 204.826 31.7849 206.387 32.8419 205.607C33.8989 204.826 31.8244 206.36 29.0513 204.826Z" fill="black"/>
<path opacity="0.1" d="M45.0034 215.801C44.9127 216.208 44.8639 216.623 44.8576 217.04C42.7467 218.956 40.2044 218.364 38.6159 217.665C38.6159 216.493 38.5977 215.67 38.5977 215.67C38.5977 215.67 45.7324 212.533 45.0034 215.801Z" fill="black"/>
<path d="M57.6601 147.865L57.5842 149.305L56.9342 161.406C56.9342 161.406 56.4117 164.115 56.6304 169.32C56.8491 174.525 53.7024 182.773 53.7024 182.773C53.7024 182.773 52.1838 188.346 51.7221 190.896C51.2604 193.447 49.7964 194.237 49.7964 194.237C49.7964 194.237 50.1609 197.101 49.1191 198.091C48.0773 199.081 48.0256 200.745 48.0256 200.745C48.0256 200.745 46.4098 209.703 45.8995 210.59C45.3892 211.477 45.4287 216.162 45.4287 216.162C42.0451 220.171 37.0972 216.527 37.0972 216.527L37.1489 203.976C37.1489 203.976 38.5552 192.415 39.597 190.799C40.6388 189.184 40.6388 184.759 40.6388 184.759L40.1741 174.434C40.1741 174.434 39.8035 173.341 40.1224 172.715C40.4414 172.09 39.2325 170.374 39.2325 170.374C36.3136 166.83 35.8914 158.862 36.7449 157.316C37.5984 155.77 40.1224 149.505 40.1224 149.505L43.6063 147.474L49.9027 147.659L57.6601 147.865Z" fill="#5E5A6B"/>
<path opacity="0.1" d="M42.8439 209.239C42.8439 209.239 43.667 212.09 44.3291 212.403C44.9913 212.716 42.8439 209.239 42.8439 209.239Z" fill="black"/>
<path opacity="0.1" d="M43.9768 199.749C43.9768 199.749 46.103 201.431 47.0142 201.428C47.9254 201.425 43.9768 199.749 43.9768 199.749Z" fill="black"/>
<path d="M56.8279 129.247V132.685L54.5589 131.707L52.2961 130.732L47.3695 125.888C47.3695 125.888 43.4726 123.359 41.389 121.054C40.1984 119.739 39.6 118.497 40.6479 117.841C41.1557 117.508 41.6148 117.107 42.0117 116.648C43.0589 115.413 43.9693 114.069 44.727 112.639C44.7605 112.581 44.7939 112.524 44.8242 112.466C45.8387 110.604 46.51 109.016 46.51 109.016C46.51 109.016 49.3651 109.927 51.1996 111.227C51.3485 111.33 51.4882 111.436 51.6218 111.546C52.6454 112.384 53.1557 113.368 52.2111 114.327C51.9684 114.578 51.7441 114.846 51.5398 115.129C51.3873 115.339 51.2473 115.558 51.1207 115.785C51.066 115.888 51.0113 115.989 50.9627 116.089C50.3307 117.381 50.1122 118.837 50.337 120.258L56.8279 129.247Z" fill="#FFD4D6"/>
<path d="M56.4117 104.728C56.5302 104.935 56.6942 105.111 56.8035 105.32C56.9878 105.783 57.0474 106.285 56.9767 106.778C56.9174 107.557 56.9686 108.34 57.1285 109.104C57.2895 109.79 57.5902 110.452 57.6145 111.157C57.6479 112.15 57.1316 113.07 56.6334 113.929C57.1804 113.913 57.6965 113.672 58.061 113.264C58.195 113.709 58.0969 114.192 57.7998 114.549C58.6168 114.51 59.3185 113.866 59.6222 113.113C59.8994 112.334 59.9797 111.5 59.8561 110.683C59.7371 109.874 59.6782 109.057 59.6799 108.239C59.7364 107.797 59.7597 107.351 59.7498 106.905C59.6738 106.022 59.1423 105.253 58.6077 104.537L57.5507 103.085C57.4773 102.966 57.3721 102.871 57.247 102.809C56.2477 102.384 56.1323 104.224 56.4117 104.728Z" fill="#464353"/>
<path opacity="0.1" d="M52.2293 114.327C51.9866 114.578 51.7623 114.846 51.558 115.129C51.4055 115.339 51.2655 115.558 51.1389 115.785C51.0842 115.888 51.0295 115.988 50.9809 116.088C48.543 115.952 46.2928 114.736 44.8424 112.772C44.809 112.727 44.7756 112.681 44.7452 112.633C44.7787 112.575 44.8121 112.517 44.8424 112.46C45.8569 110.598 46.5282 109.01 46.5282 109.01C46.5282 109.01 49.3833 109.921 51.2178 111.221C51.3667 111.324 51.5064 111.43 51.64 111.539C52.6515 112.384 53.1617 113.355 52.2293 114.327Z" fill="black"/>
<path d="M59.6344 107.595C59.6353 111.551 56.8105 114.944 52.9188 115.66C52.4277 115.749 51.9296 115.794 51.4305 115.794H51.3941C51.306 115.794 51.2149 115.794 51.1268 115.794C46.6409 115.628 43.1223 111.886 43.2321 107.4C43.3419 102.913 47.0394 99.3481 51.528 99.4015C56.0167 99.4548 59.6283 103.106 59.6313 107.595H59.6344Z" fill="#FFD4D6"/>
<path opacity="0.1" d="M52.5057 127.868C52.5057 127.868 56.6365 130.197 55.5795 128.233L50.1882 120.264L56.3084 128.126C56.3084 128.126 60.2145 133.492 58.0792 137.188C58.0792 137.188 57.7755 140.261 58.1309 140.99C58.4862 141.719 58.0276 149.493 58.0276 149.493C58.0276 149.493 56.5666 148.139 55.786 148.397C55.0054 148.655 49.4957 149.117 49.4957 149.117L52.5057 127.868Z" fill="black"/>
<path opacity="0.1" d="M57.6601 147.866L57.5841 149.305C57.0891 148.947 56.3996 148.546 55.9409 148.698C55.1603 148.959 49.6415 149.429 49.6415 149.429L49.8936 147.635L57.6601 147.866Z" fill="black"/>
<path d="M52.6606 127.868C52.6606 127.868 56.7944 130.197 55.7344 128.233L50.3431 120.264L56.4634 128.126C56.4634 128.126 60.3694 133.492 58.2341 137.188C58.2341 137.188 57.9304 140.261 58.2858 140.99C58.6411 141.719 58.1825 149.493 58.1825 149.493C58.1825 149.493 56.7246 148.139 55.944 148.397C55.1634 148.655 49.6415 149.129 49.6415 149.129L52.6606 127.868Z" fill="#464353"/>
<path opacity="0.1" d="M54.8687 131.862C54.6288 134.367 53.5991 137.346 53.5991 137.346C53.5991 137.346 52.8702 144.741 51.9256 146.939C50.9809 149.138 51.4031 152.147 50.8837 157.72C50.6954 159.727 50.0485 161.106 49.1767 162.035C47.7431 163.554 45.6959 163.885 44.0801 163.79L43.6974 163.76C41.0913 163.502 38.5916 150.951 38.5916 150.951C38.5916 150.951 37.3949 140.274 37.8626 138.804C38.3304 137.334 37.4009 129.022 37.0881 127.2C36.8876 126.043 37.486 124.164 37.9477 122.931C38.218 122.22 38.4397 121.716 38.4397 121.716C38.4397 121.716 39.3266 118.904 40.7846 117.446C41.1907 117.029 41.7485 116.795 42.3306 116.796C43.016 116.824 43.6816 117.034 44.2593 117.404C44.2827 117.417 44.305 117.432 44.3261 117.449C44.3261 117.449 53.8087 127.137 54.6926 129.375C54.9386 130.003 54.9629 130.896 54.8687 131.862Z" fill="black"/>
<path d="M54.559 131.707C54.316 134.209 53.2863 137.188 53.2863 137.188C53.2863 137.188 52.5574 144.586 51.6188 146.772C50.6803 148.959 51.0994 151.98 50.577 157.553C50.3887 159.557 49.7417 160.936 48.87 161.868C47.4364 163.387 45.3892 163.714 43.7733 163.623L43.3906 163.593C40.7846 163.332 38.2849 150.781 38.2849 150.781C38.2849 150.781 37.0881 140.107 37.5559 138.649C38.0236 137.191 37.0881 128.858 36.7753 127.033C36.5748 125.879 37.1732 123.997 37.6349 122.764C37.9052 122.053 38.1269 121.564 38.1269 121.564C38.1269 121.564 39.0138 118.752 40.4717 117.294C40.8768 116.876 41.4356 116.642 42.0178 116.648C42.7037 116.672 43.3702 116.882 43.9465 117.255L44.0133 117.297C44.0133 117.297 53.4959 126.985 54.3798 129.223C54.6258 129.845 54.6592 130.741 54.559 131.707Z" fill="#FF748E"/>
<path opacity="0.1" d="M43.9373 169.831C43.9373 169.831 41.7869 171.744 41.0458 171.653C40.3047 171.562 43.9373 169.831 43.9373 169.831Z" fill="black"/>
<path opacity="0.1" d="M44.5083 171.668C44.5083 171.668 42.2425 172.718 41.5651 172.882C40.8878 173.046 43.6336 171.397 44.5083 171.668Z" fill="black"/>
<path opacity="0.1" d="M53.2742 142.918C53.2742 142.918 56.6335 142.958 57.1407 144.012C57.648 145.065 54.3555 142.487 53.2742 142.918Z" fill="black"/>
<path opacity="0.1" d="M52.8033 144.753C52.8033 144.753 55.3821 145.3 56.1627 145.925C56.9433 146.551 52.8033 144.753 52.8033 144.753Z" fill="black"/>
<path opacity="0.1" d="M48.4691 138.388C48.4691 138.388 48.1653 148.971 47.0051 150.34C45.8448 151.71 48.4691 138.388 48.4691 138.388Z" fill="black"/>
<path opacity="0.1" d="M45.5775 168.306C45.5775 168.306 43.421 177.641 47.7462 178.218C52.0714 178.795 50.735 167.589 50.735 167.589L45.5775 168.306Z" fill="black"/>
<path d="M45.4195 168.151C45.4195 168.151 43.2752 177.486 47.5912 178.069C51.9073 178.652 50.577 167.44 50.577 167.44L45.4195 168.151Z" fill="#FFD4D6"/>
<path opacity="0.1" d="M59.5827 106.69C59.4624 106.511 59.3607 106.321 59.279 106.122C58.705 104.926 57.2288 105.515 56.1475 106.083L55.5704 106.827C55.3071 107.135 55.0855 107.477 54.9113 107.844C54.8005 108.142 54.7081 108.446 54.6349 108.755C54.4861 109.283 54.2674 109.787 54.07 110.304C53.4151 112.02 53.0269 113.827 52.9188 115.661C52.4277 115.75 51.9296 115.795 51.4305 115.794H51.3941V115.758C51.4487 115.551 51.4943 115.342 51.5368 115.132C51.7629 113.951 51.7906 112.74 51.6188 111.549C51.6188 111.521 51.6188 111.497 51.6188 111.47C51.5793 111.206 51.5277 110.938 51.5064 110.674C51.4062 110.856 51.309 111.042 51.2027 111.23C50.5497 112.445 49.8632 113.659 48.6301 114.191C48.1296 114.387 47.6021 114.506 47.0658 114.543C46.4038 114.578 45.7477 114.687 45.1098 114.868C44.8923 114.927 44.6956 115.046 44.5418 115.211C44.3701 115.465 44.2713 115.761 44.2563 116.068C44.1904 116.472 44.0888 116.869 43.9525 117.255C43.3948 118.696 42.5233 119.995 41.4012 121.057L41.1187 121.33C40.6376 121.827 40.0639 122.224 39.4299 122.499C38.854 122.693 38.2483 122.783 37.6409 122.767C37.9113 122.056 38.133 121.567 38.133 121.567C38.133 121.567 39.0199 118.755 40.4778 117.297C40.8828 116.879 41.4416 116.645 42.0238 116.651C43.1121 115.364 44.0553 113.962 44.8364 112.469C42.7905 109.693 42.6999 105.935 44.6096 103.064C46.5193 100.193 50.0214 98.8234 53.3725 99.6366C56.7237 100.45 59.208 103.272 59.5888 106.699L59.5827 106.69Z" fill="black"/>
<path d="M60.1051 100.291C59.6192 99.751 58.9358 99.4351 58.2827 99.1223C58.0502 99.0342 57.8457 98.8853 57.6904 98.6911C57.5771 98.459 57.515 98.2053 57.5082 97.9471C57.2804 96.3619 55.8043 95.2656 54.3372 94.6218C52.448 93.7928 50.1791 93.4375 48.3658 94.4214C47.485 94.9012 46.7894 95.6513 45.9936 96.2617C44.9852 97.033 43.8249 97.5736 42.7497 98.2478C41.6745 98.9219 40.6479 99.7661 40.1376 100.938C39.3479 102.73 39.9402 104.786 40.0404 106.742C40.1953 109.827 38.9409 113.049 36.4503 114.874C36.1502 115.058 35.8832 115.291 35.6605 115.563C35.4376 115.845 35.4122 116.236 35.5968 116.544C35.7213 116.714 35.9278 116.812 36.0645 116.969C36.35 117.294 36.2923 117.789 36.1799 118.208C35.8202 119.562 35.1001 120.793 34.0963 121.771C34.1388 122.092 34.5276 122.217 34.8465 122.266C35.6902 122.391 36.542 122.453 37.3949 122.451C38.7427 122.561 40.0635 122.029 40.9577 121.014C42.4764 119.587 43.7612 117.805 44.1044 115.752C44.1223 115.446 44.2208 115.151 44.3899 114.895C44.5459 114.733 44.7418 114.615 44.9579 114.552C46.0908 114.163 47.3878 114.355 48.4782 113.875C49.8996 113.268 50.6043 111.749 51.3485 110.358C51.3728 110.623 51.4214 110.89 51.4639 111.157C51.6808 112.586 51.6085 114.044 51.2513 115.445C51.0478 116.238 50.7531 117.027 50.7744 117.844C50.7896 118.451 51.4062 121.625 52.2171 120.674C53.0281 119.724 52.7305 117.622 52.7305 116.444C52.7314 114.238 53.1359 112.051 53.9241 109.991C54.1185 109.478 54.3403 108.971 54.4891 108.442C54.5627 108.134 54.654 107.829 54.7624 107.531C54.9388 107.165 55.1613 106.823 55.4246 106.514L56.0047 105.77C57.086 105.196 58.5622 104.613 59.1362 105.809C59.3549 106.268 59.4734 106.775 60.0474 106.329C60.3846 106.064 60.4939 105.545 60.582 105.15C60.9434 103.495 61.2411 101.549 60.1051 100.291Z" fill="#464353"/>
<path opacity="0.1" d="M49.113 128.962C48.8913 123.353 41.0397 122.193 39.2082 127.498C39.1933 127.533 39.1812 127.57 39.1718 127.607C37.972 131.2 38.4944 140.298 38.4944 140.298C38.4944 140.298 38.6493 146.408 39.2234 148.439C39.7974 150.471 41.4103 156.302 41.4103 157.246C41.4103 158.19 42.9077 161.777 43.5364 162.038C44.1652 162.299 44.4841 164.328 44.639 164.692C44.7939 165.057 45.2465 169.797 45.2465 169.797C45.2465 169.797 51.1328 169.433 51.2361 168.494C51.3394 167.556 49.9331 162.973 49.9331 162.973C49.9331 162.973 48.8974 161.1 48.7637 159.59C48.6301 158.081 47.8161 157.395 47.977 156.353C48.138 155.312 47.5062 154.792 47.5062 154.115C47.5062 153.438 47.0385 151.616 47.0385 151.616C47.0385 151.616 46.0483 150.832 46.2063 149.897C46.3642 148.962 44.8 147.085 45.2161 146.408C45.6322 145.731 45.7355 144.063 45.7355 144.063C45.7355 144.063 46.2579 136.566 46.6224 134.534C46.9869 132.502 49.1221 129.223 49.1221 129.223C49.1221 129.223 49.1191 129.129 49.113 128.962Z" fill="black"/>
<path opacity="0.1" d="M48.87 161.868C47.4364 163.386 45.3892 163.714 43.7733 163.623C43.585 162.913 43.3116 162.038 42.9137 161.874C42.282 161.613 40.7876 158.02 40.7876 157.085C40.7876 156.15 39.1748 150.313 38.6007 148.278C38.0267 146.244 37.8717 140.14 37.8717 140.14C37.8717 140.14 37.3493 131.03 38.5491 127.446C38.5491 127.413 38.5703 127.376 38.5855 127.34C40.4079 122.032 48.2686 123.195 48.4903 128.804C48.4903 128.971 48.4903 129.062 48.4903 129.062C48.4903 129.062 46.3642 132.341 45.9906 134.373C45.617 136.405 45.1098 143.902 45.1098 143.902C45.1098 143.902 45.0034 145.57 44.5873 146.247C44.1712 146.924 45.7324 148.801 45.5775 149.736C45.4226 150.671 46.4097 151.455 46.4097 151.455C46.4097 151.455 46.8775 153.277 46.8775 153.957C46.8775 154.637 47.5032 155.154 47.3483 156.195C47.1934 157.237 48.0256 157.914 48.1593 159.423C48.2708 160.27 48.5105 161.094 48.87 161.868Z" fill="black"/>
<path d="M48.8001 128.807C48.5784 123.198 40.7269 122.038 38.8953 127.343L38.8589 127.449C37.6591 131.045 38.1816 140.143 38.1816 140.143C38.1816 140.143 38.3365 146.25 38.9105 148.282C39.4846 150.313 41.0974 156.147 41.0974 157.088C41.0974 158.03 42.5948 161.619 43.2236 161.88C43.8523 162.141 44.1712 164.173 44.3261 164.537C44.481 164.902 44.9336 169.639 44.9336 169.639C44.9336 169.639 50.82 169.275 50.9232 168.339C51.0265 167.404 49.6233 162.819 49.6233 162.819C49.6233 162.819 48.5845 160.942 48.4508 159.433C48.3172 157.923 47.485 157.246 47.6429 156.204C47.8008 155.163 47.1721 154.641 47.1721 153.963C47.1721 153.286 46.7044 151.464 46.7044 151.464C46.7044 151.464 45.7142 150.684 45.8721 149.745C46.0301 148.807 44.4658 146.933 44.882 146.256C45.2981 145.579 45.4013 143.915 45.4013 143.915C45.4013 143.915 45.9238 136.414 46.2882 134.382C46.6527 132.351 48.788 129.071 48.788 129.071C48.788 129.071 48.8062 128.974 48.8001 128.807Z" fill="#FF748E"/>
<path opacity="0.1" d="M39.1323 143.231C39.2872 143.073 42.2577 139.794 43.1932 140.966C44.1287 142.138 39.1323 143.231 39.1323 143.231Z" fill="black"/>
<path opacity="0.1" d="M39.4056 145.77C39.521 145.652 42.3731 145.536 43.0777 143.948C43.7824 142.36 39.4056 145.77 39.4056 145.77Z" fill="black"/>
<path d="M36.1557 116.969C36.2258 117.052 36.2785 117.148 36.3106 117.252C36.4269 116.893 36.3697 116.5 36.1557 116.189C36.0159 116.028 35.8124 115.934 35.6849 115.764C35.6849 115.764 35.6697 115.736 35.6606 115.721C35.5171 115.979 35.5264 116.295 35.6849 116.544C35.8276 116.714 36.0159 116.811 36.1557 116.969Z" fill="black"/>
<path d="M40.1315 106.854C40.1315 106.55 40.1315 106.246 40.1315 105.967C40.0768 104.904 39.8794 103.814 39.8278 102.748C39.764 104.054 40.0556 105.423 40.1315 106.747C40.1315 106.778 40.1285 106.811 40.1315 106.854Z" fill="black"/>
<path d="M52.3052 119.894C51.5823 120.741 51.0143 118.303 50.8898 117.34C50.8701 117.507 50.861 117.676 50.8625 117.844C50.8807 118.451 51.4942 121.625 52.3052 120.674C52.855 120.03 52.9127 118.934 52.8762 117.923C52.8367 118.697 52.7152 119.414 52.3052 119.894Z" fill="black"/>
<path d="M51.552 111.157C51.6138 111.565 51.6513 111.977 51.6643 112.39C51.6907 111.716 51.6531 111.04 51.552 110.373C51.5125 110.109 51.4608 109.842 51.4365 109.575C50.6863 110.978 49.9908 112.478 48.5693 113.094C47.4667 113.571 46.1819 113.383 45.049 113.772C44.8315 113.831 44.6348 113.95 44.481 114.115C44.3101 114.369 44.2115 114.665 44.1955 114.971C43.8492 117.024 42.5614 118.806 41.0458 120.234C40.1516 121.248 38.8308 121.781 37.4829 121.67C36.6311 121.671 35.7804 121.609 34.9376 121.485C34.807 121.465 34.6787 121.431 34.5549 121.385C34.4365 121.518 34.312 121.646 34.1844 121.77C34.2269 122.092 34.6187 122.217 34.9376 122.265C35.7802 122.391 36.6311 122.453 37.4829 122.451C38.8308 122.561 40.1516 122.029 41.0458 121.014C42.5644 119.587 43.8492 117.804 44.1955 115.752C44.2119 115.446 44.3105 115.15 44.481 114.895C44.636 114.732 44.8322 114.613 45.049 114.552C46.1819 114.163 47.4789 114.355 48.5693 113.875C49.9908 113.267 50.6954 111.749 51.4365 110.358C51.4608 110.622 51.5125 110.89 51.552 111.157Z" fill="black"/>
<path d="M60.6701 104.37C60.582 104.764 60.4696 105.281 60.1325 105.548C59.5615 105.991 59.446 105.487 59.2213 105.029C58.6472 103.832 57.1711 104.421 56.0898 104.989L55.5096 105.733C55.2463 106.042 55.0247 106.384 54.8505 106.75C54.7393 107.048 54.648 107.352 54.5772 107.661C54.4253 108.19 54.2066 108.694 54.0092 109.207C53.224 111.268 52.8205 113.455 52.8185 115.66C52.8185 115.76 52.8185 115.87 52.8185 115.982C52.8726 113.932 53.2742 111.906 54.0061 109.991C54.2036 109.477 54.4223 108.97 54.5741 108.442C54.6449 108.132 54.7363 107.828 54.8475 107.531C55.0217 107.164 55.2433 106.822 55.5066 106.514L56.0867 105.77C57.168 105.196 58.6442 104.612 59.2182 105.809C59.44 106.268 59.5554 106.775 60.1294 106.328C60.4666 106.064 60.579 105.545 60.6671 105.15C60.8961 104.235 60.9983 103.293 60.9708 102.35C60.9221 103.03 60.8216 103.705 60.6701 104.37Z" fill="black"/>
<path d="M67.7744 133.936L67.9354 134.045C67.79 133.948 67.69 133.797 67.6585 133.625C67.627 133.453 67.6667 133.276 67.7684 133.134L75.0094 122.645C75.1059 122.504 75.2549 122.407 75.4232 122.376C75.5915 122.345 75.7651 122.383 75.9054 122.481L75.7445 122.369C76.2146 122.693 76.3329 123.338 76.0087 123.808L69.2142 133.669C68.8893 134.138 68.2462 134.258 67.7744 133.936Z" fill="#464353"/>
<path d="M75.8222 122.408L75.9447 122.493L67.9742 134.062L67.8516 133.977C67.6112 133.812 67.5506 133.483 67.7162 133.243L75.0854 122.546C75.251 122.306 75.5801 122.245 75.8204 122.411L75.8222 122.408Z" fill="#9F9EFF"/>
<path d="M74.8324 123.987C74.8486 123.964 74.8808 123.958 74.9043 123.974L74.9268 123.989C74.9502 124.005 74.9562 124.038 74.94 124.061L74.349 124.919C74.3328 124.942 74.3007 124.948 74.2772 124.932L74.2547 124.917C74.2312 124.9 74.2253 124.868 74.2415 124.845L74.8324 123.987Z" fill="#464353"/>
<defs>
<linearGradient id="paint0_linear_2_114" x1="76.834" y1="231.935" x2="76.834" y2="92.4534" gradientUnits="userSpaceOnUse">
<stop stop-color="#808080" stop-opacity="0.25"/>
<stop offset="0.54" stop-color="#808080" stop-opacity="0.12"/>
<stop offset="1" stop-color="#808080" stop-opacity="0.1"/>
</linearGradient>
</defs>
</svg>
