<svg width="303" height="240" viewBox="0 0 303 240" fill="none" xmlns="http://www.w3.org/2000/svg">
<path opacity="0.3" d="M151.219 239.96C234.614 239.96 302.219 233.692 302.219 225.96C302.219 218.228 234.614 211.96 151.219 211.96C67.8239 211.96 0.218872 218.228 0.218872 225.96C0.218872 233.692 67.8239 239.96 151.219 239.96Z" fill="white"/>
<path fill-rule="evenodd" clip-rule="evenodd" d="M234.326 162.619C234.326 162.619 234.2 162.284 233.95 161.715C233.688 161.152 233.348 160.328 232.878 159.376C231.954 157.462 230.622 154.97 229.191 152.535C227.753 150.103 226.219 147.729 224.99 145.994C224.385 145.122 223.826 144.426 223.461 143.924C223.084 143.43 222.85 143.157 222.85 143.157C222.85 143.157 222.977 143.492 223.226 144.062C223.489 144.624 223.826 145.449 224.298 146.401C225.219 148.316 226.555 150.806 227.985 153.242C229.424 155.672 230.96 158.046 232.188 159.78C232.794 160.653 233.35 161.35 233.716 161.852C234.094 162.346 234.326 162.619 234.326 162.619Z" fill="#F3F8FF"/>
<path fill-rule="evenodd" clip-rule="evenodd" d="M241.126 151.054C241.126 151.054 240.967 150.665 240.66 150.001C240.339 149.346 239.917 148.387 239.348 147.274C238.227 145.039 236.629 142.117 234.937 139.253C233.235 136.394 231.437 133.592 230.011 131.537C229.307 130.503 228.667 129.674 228.243 129.078C227.808 128.49 227.543 128.164 227.543 128.164C227.543 128.164 227.701 128.553 228.01 129.216C228.329 129.873 228.75 130.832 229.319 131.945C230.44 134.181 232.039 137.101 233.732 139.964C235.435 142.824 237.234 145.625 238.66 147.681C239.364 148.714 240.003 149.544 240.427 150.139C240.861 150.728 241.126 151.054 241.126 151.054Z" fill="#F3F8FF"/>
<path fill-rule="evenodd" clip-rule="evenodd" d="M247.927 139.49C247.927 139.49 247.801 139.154 247.551 138.585C247.289 138.023 246.949 137.199 246.479 136.247C245.556 134.333 244.223 131.84 242.792 129.405C241.354 126.974 239.82 124.6 238.591 122.865C237.986 121.992 237.428 121.297 237.062 120.795C236.685 120.3 236.452 120.027 236.452 120.027C236.452 120.027 236.578 120.363 236.828 120.933C237.09 121.495 237.428 122.32 237.899 123.272C238.821 125.186 240.157 127.677 241.587 130.113C243.025 132.543 244.561 134.916 245.789 136.651C246.395 137.523 246.952 138.22 247.317 138.722C247.695 139.217 247.927 139.49 247.927 139.49Z" fill="#F3F8FF"/>
<path fill-rule="evenodd" clip-rule="evenodd" d="M254.728 127.924C254.728 127.924 254.375 126.865 253.687 125.371C253.008 123.871 252 121.931 250.896 120.049C249.783 118.17 248.575 116.348 247.59 115.027C246.615 113.701 245.858 112.88 245.858 112.88C245.858 112.88 246.21 113.939 246.897 115.434C247.575 116.934 248.585 118.874 249.689 120.756C250.803 122.633 252.013 124.455 252.997 125.776C253.971 127.102 254.728 127.924 254.728 127.924Z" fill="#F3F8FF"/>
<path fill-rule="evenodd" clip-rule="evenodd" d="M232.325 166.021C232.325 166.021 232.677 166.091 233.294 166.177C233.912 166.251 234.793 166.396 235.852 166.497C237.97 166.72 240.796 166.899 243.625 166.966C246.453 167.024 249.284 166.971 251.41 166.84C252.472 166.785 253.358 166.677 253.979 166.631C254.599 166.571 254.955 166.516 254.955 166.516C254.955 166.516 254.602 166.447 253.985 166.359C253.367 166.286 252.486 166.139 251.427 166.038C249.309 165.814 246.484 165.637 243.655 165.571C240.826 165.514 237.995 165.569 235.87 165.7C234.807 165.755 233.921 165.861 233.3 165.907C232.68 165.968 232.325 166.021 232.325 166.021Z" fill="#F3F8FF"/>
<path fill-rule="evenodd" clip-rule="evenodd" d="M237.091 192.782C237.091 192.782 237.27 193.094 237.608 193.615C237.957 194.129 238.424 194.888 239.041 195.753C240.26 197.495 241.976 199.742 243.778 201.917C245.588 204.087 247.482 206.186 248.974 207.702C249.712 208.467 250.375 209.065 250.815 209.502C251.268 209.93 251.541 210.161 251.541 210.161C251.541 210.161 251.364 209.85 251.026 209.329C250.676 208.814 250.21 208.055 249.593 207.191C248.375 205.448 246.657 203.202 244.855 201.027C243.044 198.857 241.148 196.76 239.657 195.244C238.919 194.479 238.258 193.88 237.816 193.442C237.364 193.015 237.091 192.782 237.091 192.782Z" fill="#F3F8FF"/>
<path fill-rule="evenodd" clip-rule="evenodd" d="M250.305 190.331C250.305 190.331 250.523 190.691 250.93 191.299C251.347 191.898 251.912 192.78 252.648 193.792C254.101 195.828 256.131 198.467 258.248 201.037C260.372 203.598 262.582 206.09 264.31 207.901C265.165 208.814 265.927 209.535 266.436 210.058C266.958 210.572 267.271 210.854 267.271 210.854C267.271 210.854 267.053 210.493 266.647 209.885C266.23 209.285 265.664 208.403 264.93 207.392C263.476 205.354 261.446 202.717 259.327 200.148C257.202 197.586 254.992 195.095 253.264 193.284C252.409 192.372 251.649 191.651 251.138 191.127C250.618 190.614 250.305 190.331 250.305 190.331Z" fill="#F3F8FF"/>
<path fill-rule="evenodd" clip-rule="evenodd" d="M226.573 186.902C226.573 186.902 226.566 186.544 226.521 185.924C226.461 185.306 226.416 184.417 226.289 183.363C226.058 181.252 225.632 178.459 225.096 175.688C224.551 172.918 223.896 170.17 223.317 168.126C223.037 167.101 222.743 166.26 222.566 165.666C222.375 165.073 222.245 164.739 222.245 164.739C222.245 164.739 222.253 165.097 222.299 165.717C222.358 166.336 222.401 167.225 222.528 168.279C222.758 170.391 223.186 173.183 223.723 175.954C224.269 178.723 224.925 181.472 225.505 183.515C225.785 184.539 226.077 185.381 226.254 185.976C226.446 186.567 226.573 186.902 226.573 186.902Z" fill="#F3F8FF"/>
<path fill-rule="evenodd" clip-rule="evenodd" d="M236.844 178.254C236.844 178.254 236.824 177.834 236.755 177.107C236.673 176.382 236.594 175.338 236.429 174.1C236.119 171.619 235.586 168.334 234.945 165.071C234.295 161.81 233.534 158.57 232.876 156.159C232.556 154.951 232.229 153.956 232.029 153.253C231.814 152.555 231.673 152.159 231.673 152.159C231.673 152.159 231.693 152.579 231.762 153.307C231.843 154.031 231.921 155.076 232.087 156.314C232.397 158.795 232.931 162.079 233.573 165.342C234.224 168.603 234.985 171.842 235.645 174.255C235.964 175.462 236.289 176.457 236.49 177.16C236.704 177.859 236.844 178.254 236.844 178.254Z" fill="#F3F8FF"/>
<path fill-rule="evenodd" clip-rule="evenodd" d="M247.116 169.607C247.116 169.607 247.109 169.249 247.064 168.629C247.003 168.011 246.959 167.122 246.832 166.068C246.601 163.956 246.175 161.164 245.639 158.392C245.094 155.623 244.439 152.875 243.859 150.831C243.58 149.806 243.286 148.966 243.109 148.371C242.918 147.778 242.788 147.444 242.788 147.444C242.788 147.444 242.796 147.802 242.841 148.422C242.901 149.041 242.944 149.93 243.071 150.984C243.301 153.096 243.729 155.888 244.266 158.659C244.812 161.428 245.468 164.177 246.048 166.22C246.328 167.244 246.621 168.086 246.797 168.681C246.989 169.273 247.116 169.607 247.116 169.607Z" fill="#F3F8FF"/>
<path fill-rule="evenodd" clip-rule="evenodd" d="M223.552 189.446C223.552 189.446 223.861 189.629 224.413 189.915C224.971 190.19 225.754 190.619 226.719 191.066C228.641 191.98 231.247 193.087 233.891 194.089C236.54 195.082 239.227 195.972 241.275 196.554C242.295 196.856 243.167 197.048 243.767 197.21C244.372 197.359 244.725 197.426 244.725 197.426C244.725 197.426 244.416 197.244 243.864 196.956C243.306 196.682 242.524 196.251 241.56 195.804C239.637 194.89 237.031 193.785 234.386 192.783C231.737 191.791 229.049 190.903 227.002 190.319C225.981 190.019 225.11 189.825 224.509 189.663C223.904 189.513 223.552 189.446 223.552 189.446Z" fill="#F3F8FF"/>
<path fill-rule="evenodd" clip-rule="evenodd" d="M234.326 162.619C234.326 162.619 234.2 162.284 233.95 161.715C233.688 161.152 233.348 160.328 232.878 159.376C231.954 157.462 230.622 154.97 229.191 152.535C227.753 150.103 226.219 147.729 224.99 145.994C224.385 145.122 223.826 144.426 223.461 143.924C223.084 143.43 222.85 143.157 222.85 143.157C222.85 143.157 222.977 143.492 223.226 144.062C223.489 144.624 223.826 145.449 224.298 146.401C225.219 148.316 226.555 150.806 227.985 153.242C229.424 155.672 230.96 158.046 232.188 159.78C232.794 160.653 233.35 161.35 233.716 161.852C234.094 162.346 234.326 162.619 234.326 162.619Z" fill="#F3F8FF"/>
<path fill-rule="evenodd" clip-rule="evenodd" d="M241.126 151.054C241.126 151.054 240.967 150.665 240.66 150.001C240.339 149.346 239.917 148.387 239.348 147.274C238.227 145.039 236.629 142.117 234.937 139.253C233.235 136.394 231.437 133.592 230.011 131.537C229.307 130.503 228.667 129.674 228.243 129.078C227.808 128.49 227.543 128.164 227.543 128.164C227.543 128.164 227.701 128.553 228.01 129.216C228.329 129.873 228.75 130.832 229.319 131.945C230.44 134.181 232.039 137.101 233.732 139.964C235.435 142.824 237.234 145.625 238.66 147.681C239.364 148.714 240.003 149.544 240.427 150.139C240.861 150.728 241.126 151.054 241.126 151.054Z" fill="#F3F8FF"/>
<path fill-rule="evenodd" clip-rule="evenodd" d="M247.927 139.49C247.927 139.49 247.801 139.154 247.551 138.585C247.289 138.023 246.949 137.199 246.479 136.247C245.556 134.333 244.223 131.84 242.792 129.405C241.354 126.974 239.82 124.6 238.591 122.865C237.986 121.992 237.428 121.297 237.062 120.795C236.685 120.3 236.452 120.027 236.452 120.027C236.452 120.027 236.578 120.363 236.828 120.933C237.09 121.495 237.428 122.32 237.899 123.272C238.821 125.186 240.157 127.677 241.587 130.113C243.025 132.543 244.561 134.916 245.789 136.651C246.395 137.523 246.952 138.22 247.317 138.722C247.695 139.217 247.927 139.49 247.927 139.49Z" fill="#F3F8FF"/>
<path fill-rule="evenodd" clip-rule="evenodd" d="M232.325 166.021C232.325 166.021 232.677 166.091 233.294 166.177C233.912 166.251 234.793 166.396 235.852 166.497C237.97 166.72 240.796 166.899 243.625 166.966C246.453 167.024 249.284 166.971 251.41 166.84C252.472 166.785 253.358 166.677 253.979 166.631C254.599 166.571 254.955 166.516 254.955 166.516C254.955 166.516 254.602 166.447 253.985 166.359C253.367 166.286 252.486 166.139 251.427 166.038C249.309 165.814 246.484 165.637 243.655 165.571C240.826 165.514 237.995 165.569 235.87 165.7C234.807 165.755 233.921 165.861 233.3 165.907C232.68 165.968 232.325 166.021 232.325 166.021Z" fill="#F3F8FF"/>
<path fill-rule="evenodd" clip-rule="evenodd" d="M237.091 192.782C237.091 192.782 237.27 193.094 237.608 193.615C237.957 194.129 238.424 194.888 239.041 195.753C240.26 197.495 241.976 199.742 243.778 201.917C245.588 204.087 247.482 206.186 248.974 207.702C249.712 208.467 250.375 209.065 250.815 209.502C251.268 209.93 251.541 210.161 251.541 210.161C251.541 210.161 251.364 209.85 251.026 209.329C250.676 208.814 250.21 208.055 249.593 207.191C248.375 205.448 246.657 203.202 244.855 201.027C243.044 198.857 241.148 196.76 239.657 195.244C238.919 194.479 238.258 193.88 237.816 193.442C237.364 193.015 237.091 192.782 237.091 192.782Z" fill="#F3F8FF"/>
<path fill-rule="evenodd" clip-rule="evenodd" d="M250.305 190.331C250.305 190.331 250.523 190.691 250.93 191.299C251.347 191.898 251.912 192.78 252.648 193.792C254.101 195.828 256.131 198.467 258.248 201.037C260.372 203.598 262.582 206.09 264.31 207.901C265.165 208.814 265.927 209.535 266.436 210.058C266.958 210.572 267.271 210.854 267.271 210.854C267.271 210.854 267.053 210.493 266.647 209.885C266.23 209.285 265.664 208.403 264.93 207.392C263.476 205.354 261.446 202.717 259.327 200.148C257.202 197.586 254.992 195.095 253.264 193.284C252.409 192.372 251.649 191.651 251.138 191.127C250.618 190.614 250.305 190.331 250.305 190.331Z" fill="#F3F8FF"/>
<path fill-rule="evenodd" clip-rule="evenodd" d="M226.573 186.902C226.573 186.902 226.566 186.544 226.521 185.924C226.461 185.306 226.416 184.417 226.289 183.363C226.058 181.252 225.632 178.459 225.096 175.688C224.551 172.918 223.896 170.17 223.317 168.126C223.037 167.101 222.743 166.26 222.566 165.666C222.375 165.073 222.245 164.739 222.245 164.739C222.245 164.739 222.253 165.097 222.299 165.717C222.358 166.336 222.401 167.225 222.528 168.279C222.758 170.391 223.186 173.183 223.723 175.954C224.269 178.723 224.925 181.472 225.505 183.515C225.785 184.539 226.077 185.381 226.254 185.976C226.446 186.567 226.573 186.902 226.573 186.902Z" fill="#F3F8FF"/>
<path fill-rule="evenodd" clip-rule="evenodd" d="M236.844 178.254C236.844 178.254 236.824 177.834 236.755 177.107C236.673 176.382 236.594 175.338 236.429 174.1C236.119 171.619 235.586 168.334 234.945 165.071C234.295 161.81 233.534 158.57 232.876 156.159C232.556 154.951 232.229 153.956 232.029 153.253C231.814 152.555 231.673 152.159 231.673 152.159C231.673 152.159 231.693 152.579 231.762 153.307C231.843 154.031 231.921 155.076 232.087 156.314C232.397 158.795 232.931 162.079 233.573 165.342C234.224 168.603 234.985 171.842 235.645 174.255C235.964 175.462 236.289 176.457 236.49 177.16C236.704 177.859 236.844 178.254 236.844 178.254Z" fill="#F3F8FF"/>
<path fill-rule="evenodd" clip-rule="evenodd" d="M247.116 169.607C247.116 169.607 247.109 169.249 247.064 168.629C247.003 168.011 246.959 167.122 246.832 166.068C246.601 163.956 246.175 161.164 245.639 158.392C245.094 155.623 244.439 152.875 243.859 150.831C243.58 149.806 243.286 148.966 243.109 148.371C242.918 147.778 242.788 147.444 242.788 147.444C242.788 147.444 242.796 147.802 242.841 148.422C242.901 149.041 242.944 149.93 243.071 150.984C243.301 153.096 243.729 155.888 244.266 158.659C244.812 161.428 245.468 164.177 246.048 166.22C246.328 167.244 246.621 168.086 246.797 168.681C246.989 169.273 247.116 169.607 247.116 169.607Z" fill="#F3F8FF"/>
<path fill-rule="evenodd" clip-rule="evenodd" d="M223.552 189.446C223.552 189.446 223.861 189.629 224.413 189.915C224.971 190.19 225.754 190.619 226.719 191.066C228.641 191.98 231.247 193.087 233.891 194.089C236.54 195.082 239.227 195.972 241.275 196.554C242.295 196.856 243.167 197.048 243.767 197.21C244.372 197.359 244.725 197.426 244.725 197.426C244.725 197.426 244.416 197.244 243.864 196.956C243.306 196.682 242.524 196.251 241.56 195.804C239.637 194.89 237.031 193.785 234.386 192.783C231.737 191.791 229.049 190.903 227.002 190.319C225.981 190.019 225.11 189.825 224.509 189.663C223.904 189.513 223.552 189.446 223.552 189.446Z" fill="#F3F8FF"/>
<path fill-rule="evenodd" clip-rule="evenodd" d="M56.6889 162.619C56.6889 162.619 56.8151 162.284 57.0651 161.715C57.3272 161.152 57.667 160.328 58.137 159.376C59.06 157.462 60.3941 154.97 61.8236 152.535C63.2619 150.103 64.7958 147.729 66.0246 145.994C66.6298 145.122 67.188 144.426 67.5536 143.924C67.9314 143.43 68.1644 143.157 68.1644 143.157C68.1644 143.157 68.0382 143.492 67.7882 144.062C67.5261 144.624 67.188 145.449 66.7171 146.401C65.7949 148.316 64.46 150.806 63.0289 153.242C61.5906 155.672 60.0551 158.046 58.8271 159.78C58.2211 160.653 57.6645 161.35 57.2989 161.852C56.9211 162.346 56.6889 162.619 56.6889 162.619Z" fill="#F3F8FF"/>
<path fill-rule="evenodd" clip-rule="evenodd" d="M49.8883 151.054C49.8883 151.054 50.0477 150.665 50.3551 150.001C50.6755 149.346 51.0977 148.387 51.6665 147.274C52.7869 145.039 54.3847 142.117 56.0779 139.253C57.78 136.394 59.5776 133.592 61.0038 131.537C61.7076 130.503 62.3475 129.674 62.7706 129.078C63.2059 128.49 63.472 128.164 63.472 128.164C63.472 128.164 63.3135 128.553 63.0052 129.216C62.6857 129.873 62.265 130.832 61.6955 131.945C60.575 134.181 58.9757 137.101 57.2817 139.964C55.5795 142.824 53.7812 145.625 52.3549 147.681C51.6503 148.714 51.0112 149.544 50.5889 150.139C50.1537 150.728 49.8883 151.054 49.8883 151.054Z" fill="#F3F8FF"/>
<path fill-rule="evenodd" clip-rule="evenodd" d="M43.0874 139.49C43.0874 139.49 43.2136 139.154 43.4636 138.585C43.7265 138.023 44.0655 137.199 44.5363 136.247C45.4585 134.333 46.7926 131.84 48.2221 129.405C49.6604 126.974 51.1943 124.6 52.4239 122.865C53.0291 121.992 53.5873 121.297 53.9521 120.795C54.3299 120.3 54.5629 120.027 54.5629 120.027C54.5629 120.027 54.4367 120.363 54.1867 120.933C53.9246 121.495 53.5865 122.32 53.1156 123.272C52.1934 125.186 50.8585 127.677 49.4274 130.113C47.9891 132.543 46.4536 134.916 45.2256 136.651C44.6196 137.523 44.063 138.22 43.6974 138.722C43.3196 139.217 43.0874 139.49 43.0874 139.49Z" fill="#F3F8FF"/>
<path fill-rule="evenodd" clip-rule="evenodd" d="M58.6896 166.021C58.6896 166.021 58.3377 166.091 57.7205 166.177C57.1032 166.251 56.2214 166.396 55.1625 166.497C53.0445 166.72 50.2187 166.899 47.3905 166.966C44.5623 167.024 41.7308 166.971 39.6056 166.84C38.5426 166.785 37.6559 166.677 37.0362 166.631C36.4158 166.571 36.0606 166.516 36.0606 166.516C36.0606 166.516 36.4125 166.447 37.0298 166.359C37.6478 166.286 38.5288 166.139 39.5878 166.038C41.7049 165.814 44.5315 165.637 47.3598 165.571C50.1888 165.514 53.0194 165.569 55.1455 165.7C56.2077 165.755 57.0943 165.861 57.714 165.907C58.3345 165.968 58.6896 166.021 58.6896 166.021Z" fill="#F3F8FF"/>
<path fill-rule="evenodd" clip-rule="evenodd" d="M53.9234 192.782C53.9234 192.782 53.7454 193.094 53.4072 193.615C53.0577 194.129 52.5901 194.888 51.9737 195.753C50.7554 197.495 49.0387 199.742 47.2363 201.917C45.4274 204.087 43.5319 206.186 42.0409 207.702C41.3031 208.467 40.6406 209.065 40.1989 209.502C39.7466 209.93 39.4732 210.161 39.4732 210.161C39.4732 210.161 39.6512 209.85 39.9893 209.329C40.3388 208.814 40.8048 208.055 41.4221 207.191C42.6396 205.448 44.3571 203.202 46.1603 201.027C47.9708 198.857 49.8663 196.76 51.3581 195.244C52.0959 194.479 52.7568 193.88 53.1985 193.442C53.6507 193.015 53.9234 192.782 53.9234 192.782Z" fill="#F3F8FF"/>
<path fill-rule="evenodd" clip-rule="evenodd" d="M40.7094 190.331C40.7094 190.331 40.4918 190.691 40.0857 191.299C39.6674 191.898 39.1019 192.78 38.3674 193.792C36.9136 195.828 34.883 198.467 32.7667 201.037C30.6423 203.598 28.433 206.09 26.705 207.901C25.8491 208.814 25.0886 209.535 24.5781 210.058C24.0572 210.572 23.7441 210.854 23.7441 210.854C23.7441 210.854 23.9609 210.493 24.3678 209.885C24.7852 209.285 25.3499 208.403 26.0845 207.392C27.5382 205.354 29.5696 202.717 31.6875 200.148C33.8119 197.586 36.0229 195.095 37.7501 193.284C38.606 192.372 39.3657 191.651 39.8761 191.127C40.3971 190.614 40.7094 190.331 40.7094 190.331Z" fill="#F3F8FF"/>
<path fill-rule="evenodd" clip-rule="evenodd" d="M64.441 186.902C64.441 186.902 64.4483 186.544 64.4944 185.924C64.5535 185.306 64.5996 184.417 64.725 183.363C64.9564 181.252 65.3827 178.459 65.9183 175.688C66.4635 172.918 67.118 170.17 67.698 168.126C67.9779 167.101 68.2716 166.26 68.4496 165.666C68.6397 165.073 68.7691 164.739 68.7691 164.739C68.7691 164.739 68.7618 165.097 68.7165 165.717C68.6567 166.336 68.613 167.225 68.4868 168.279C68.2562 170.391 67.8283 173.183 67.2911 175.954C66.7458 178.723 66.0898 181.472 65.5097 183.515C65.2298 184.539 64.9378 185.381 64.7606 185.976C64.5689 186.567 64.441 186.902 64.441 186.902Z" fill="#F3F8FF"/>
<path fill-rule="evenodd" clip-rule="evenodd" d="M54.1699 178.254C54.1699 178.254 54.1901 177.834 54.2588 177.107C54.3414 176.382 54.4206 175.338 54.5857 174.1C54.8963 171.619 55.4286 168.334 56.0702 165.071C56.7206 161.81 57.4802 158.57 58.1396 156.159C58.4591 154.951 58.786 153.956 58.9866 153.253C59.2002 152.555 59.3425 152.159 59.3425 152.159C59.3425 152.159 59.3223 152.579 59.2535 153.307C59.171 154.031 59.0934 155.076 58.9283 156.314C58.6177 158.795 58.0846 162.079 57.4422 165.342C56.7902 168.603 56.0289 171.842 55.3704 174.255C55.0508 175.462 54.7256 176.457 54.525 177.16C54.3106 177.859 54.1699 178.254 54.1699 178.254Z" fill="#F3F8FF"/>
<path fill-rule="evenodd" clip-rule="evenodd" d="M43.8983 169.607C43.8983 169.607 43.9056 169.249 43.9509 168.629C44.0108 168.011 44.0561 167.122 44.1823 166.068C44.4136 163.956 44.84 161.164 45.3755 158.392C45.9208 155.623 46.5753 152.875 47.1553 150.831C47.4352 149.806 47.7289 148.966 47.906 148.371C48.097 147.778 48.2256 147.444 48.2256 147.444C48.2256 147.444 48.2191 147.802 48.1738 148.422C48.114 149.041 48.0703 149.93 47.9441 150.984C47.7127 153.096 47.2856 155.888 46.7484 158.659C46.2031 161.428 45.547 164.177 44.967 166.22C44.6871 167.244 44.3942 168.086 44.2179 168.681C44.0261 169.273 43.8983 169.607 43.8983 169.607Z" fill="#F3F8FF"/>
<path fill-rule="evenodd" clip-rule="evenodd" d="M67.4628 189.446C67.4628 189.446 67.1538 189.629 66.6013 189.915C66.0431 190.19 65.2608 190.619 64.2957 191.066C62.3735 191.98 59.7686 193.087 57.1232 194.089C54.4753 195.082 51.7879 195.972 49.7395 196.554C48.7194 196.856 47.8473 197.048 47.247 197.21C46.6419 197.359 46.2892 197.426 46.2892 197.426C46.2892 197.426 46.5982 197.244 47.1508 196.956C47.709 196.682 48.4904 196.251 49.4556 195.804C51.3777 194.89 53.9835 193.785 56.6289 192.783C59.2775 191.791 61.9658 190.903 64.0133 190.319C65.0335 190.019 65.9055 189.825 66.505 189.663C67.1101 189.513 67.4628 189.446 67.4628 189.446Z" fill="#F3F8FF"/>
<path fill-rule="evenodd" clip-rule="evenodd" d="M59.5799 189.105H231.434V182.732H59.5799V189.105Z" fill="#279D8A"/>
<path fill-rule="evenodd" clip-rule="evenodd" d="M42.1295 183.055H248.885C250.802 183.055 252.357 181.505 252.357 179.592V48.6563C252.357 46.7436 250.802 45.1934 248.885 45.1934H42.1295C40.2121 45.1934 38.6581 46.7436 38.6581 48.6563V179.592C38.6581 181.505 40.2121 183.055 42.1295 183.055Z" fill="white"/>
<path fill-rule="evenodd" clip-rule="evenodd" d="M45.6337 170.145H245.381V52.0625H45.6337V170.145Z" fill="#4B5352"/>
<path fill-rule="evenodd" clip-rule="evenodd" d="M252.357 189.104H145.507H38.6582L8 213.283H145.507H283.014L252.357 189.104Z" fill="#2ADABF"/>
<path fill-rule="evenodd" clip-rule="evenodd" d="M118.276 199.343H164.209H172.739L185.665 209.537H271.756L250.596 192.849H145.507H40.4188L19.2581 209.537H105.349L118.276 199.343Z" fill="white"/>
<path fill-rule="evenodd" clip-rule="evenodd" d="M171.389 202.993H165.094H119.626L106.58 213.282H165.094H184.435L171.389 202.993Z" fill="#279D8A"/>
<path fill-rule="evenodd" clip-rule="evenodd" d="M275.343 220.934H15.6709C11.4342 220.934 8.00006 217.509 8.00006 213.282H283.014C283.014 217.509 279.58 220.934 275.343 220.934Z" fill="#279D8A"/>
<path fill-rule="evenodd" clip-rule="evenodd" d="M143.957 209.863H128.216L123.879 213.282H143.957V209.863Z" fill="#2ADABF"/>
<path fill-rule="evenodd" clip-rule="evenodd" d="M147.058 213.282H167.134L162.8 209.863H147.058V213.282Z" fill="#2ADABF"/>
<path fill-rule="evenodd" clip-rule="evenodd" d="M42.6766 196.676L38.6583 199.851H106.719L110.737 196.676H42.6766Z" fill="#2ADABF"/>
<path fill-rule="evenodd" clip-rule="evenodd" d="M36.431 201.866L32.4127 205.042H100.473L104.491 201.866H36.431Z" fill="#2ADABF"/>
<path fill-rule="evenodd" clip-rule="evenodd" d="M248.339 196.676L252.357 199.851H184.297L180.278 196.676H248.339Z" fill="#2ADABF"/>
<path fill-rule="evenodd" clip-rule="evenodd" d="M254.584 201.866L258.602 205.042H190.542L186.523 201.866H254.584Z" fill="#2ADABF"/>
<path fill-rule="evenodd" clip-rule="evenodd" d="M126.201 130.342H66.1066C64.5428 130.342 63.2751 129.077 63.2751 127.517C63.2751 125.957 64.5428 124.692 66.1066 124.692H126.201C127.764 124.692 129.032 125.957 129.032 127.517C129.032 129.077 127.764 130.342 126.201 130.342Z" fill="#2ADABF"/>
<path fill-rule="evenodd" clip-rule="evenodd" d="M126.201 124.692H121.24C122.804 124.692 124.071 125.957 124.071 127.517C124.071 129.077 122.804 130.342 121.24 130.342H126.201C127.764 130.342 129.032 129.077 129.032 127.517C129.032 125.957 127.764 124.692 126.201 124.692Z" fill="#D4E1FF"/>
<path fill-rule="evenodd" clip-rule="evenodd" d="M126.201 138.815H66.1066C64.5428 138.815 63.2751 137.551 63.2751 135.991C63.2751 134.431 64.5428 133.166 66.1066 133.166H126.201C127.764 133.166 129.032 134.431 129.032 135.991C129.032 137.551 127.764 138.815 126.201 138.815Z" fill="#2ADABF"/>
<path fill-rule="evenodd" clip-rule="evenodd" d="M126.201 133.166H117.201C118.764 133.166 120.032 134.431 120.032 135.991C120.032 137.551 118.764 138.815 117.201 138.815H126.201C127.764 138.815 129.032 137.551 129.032 135.991C129.032 134.431 127.764 133.166 126.201 133.166Z" fill="#D4E1FF"/>
<path fill-rule="evenodd" clip-rule="evenodd" d="M126.201 147.288H66.1066C64.5428 147.288 63.2751 146.024 63.2751 144.463C63.2751 142.903 64.5428 141.639 66.1066 141.639H126.201C127.764 141.639 129.032 142.903 129.032 144.463C129.032 146.024 127.764 147.288 126.201 147.288Z" fill="#2ADABF"/>
<path fill-rule="evenodd" clip-rule="evenodd" d="M126.201 141.639H93.8411C95.4049 141.639 96.6726 142.903 96.6726 144.463C96.6726 146.024 95.4049 147.288 93.8411 147.288H126.201C127.764 147.288 129.032 146.024 129.032 144.463C129.032 142.903 127.764 141.639 126.201 141.639Z" fill="#D4E1FF"/>
<path fill-rule="evenodd" clip-rule="evenodd" d="M126.201 155.761H66.1066C64.5428 155.761 63.2751 154.498 63.2751 152.937C63.2751 151.377 64.5428 150.112 66.1066 150.112H126.201C127.764 150.112 129.032 151.377 129.032 152.937C129.032 154.498 127.764 155.761 126.201 155.761Z" fill="#2ADABF"/>
<path fill-rule="evenodd" clip-rule="evenodd" d="M126.201 150.112H109.819C111.382 150.112 112.65 151.377 112.65 152.937C112.65 154.498 111.382 155.761 109.819 155.761H126.201C127.764 155.761 129.032 154.498 129.032 152.937C129.032 151.377 127.764 150.112 126.201 150.112Z" fill="#D4E1FF"/>
<path d="M71.5647 66.9963H164.106" stroke="#8CB0EA" stroke-width="0.5" stroke-dasharray="1.62"/>
<path d="M71.5647 76.3312H164.106" stroke="#8CB0EA" stroke-width="0.5" stroke-dasharray="1.62"/>
<path d="M71.5647 85.6672H164.106" stroke="#8CB0EA" stroke-width="0.5" stroke-dasharray="1.62"/>
<path d="M71.5647 95.0031H164.106" stroke="#8CB0EA" stroke-width="0.5" stroke-dasharray="1.62"/>
<path d="M71.5647 104.339H164.106" stroke="#8CB0EA" stroke-width="0.5" stroke-dasharray="1.62"/>
<path fill-rule="evenodd" clip-rule="evenodd" d="M74.2404 115.507H74.6562V112.946H74.2404V115.507Z" fill="#279D8A"/>
<path fill-rule="evenodd" clip-rule="evenodd" d="M64.8618 115.507H65.2776V62.3506H64.8618V115.507Z" fill="#279D8A"/>
<path fill-rule="evenodd" clip-rule="evenodd" d="M84.1796 115.507H84.5954V112.946H84.1796V115.507Z" fill="#279D8A"/>
<path fill-rule="evenodd" clip-rule="evenodd" d="M94.1181 115.507H94.5339V112.946H94.1181V115.507Z" fill="#279D8A"/>
<path fill-rule="evenodd" clip-rule="evenodd" d="M104.057 115.507H104.473V112.946H104.057V115.507Z" fill="#279D8A"/>
<path fill-rule="evenodd" clip-rule="evenodd" d="M113.996 115.507H114.412V112.946H113.996V115.507Z" fill="#279D8A"/>
<path fill-rule="evenodd" clip-rule="evenodd" d="M123.935 115.507H124.351V112.946H123.935V115.507Z" fill="#279D8A"/>
<path fill-rule="evenodd" clip-rule="evenodd" d="M133.873 115.507H134.289V112.946H133.873V115.507Z" fill="#279D8A"/>
<path fill-rule="evenodd" clip-rule="evenodd" d="M143.812 115.507H144.228V112.946H143.812V115.507Z" fill="#279D8A"/>
<path fill-rule="evenodd" clip-rule="evenodd" d="M153.751 115.507H154.167V112.946H153.751V115.507Z" fill="#279D8A"/>
<path fill-rule="evenodd" clip-rule="evenodd" d="M163.689 115.507H164.106V112.946H163.689V115.507Z" fill="#279D8A"/>
<path fill-rule="evenodd" clip-rule="evenodd" d="M63.2745 104.546H65.8415V104.132H63.2745V104.546Z" fill="#5D7EE8"/>
<path fill-rule="evenodd" clip-rule="evenodd" d="M63.2745 95.2105H65.8415V94.7957H63.2745V95.2105Z" fill="#5D7EE8"/>
<path fill-rule="evenodd" clip-rule="evenodd" d="M63.2745 85.8746H65.8415V85.4598H63.2745V85.8746Z" fill="#5D7EE8"/>
<path fill-rule="evenodd" clip-rule="evenodd" d="M63.2745 76.5386H65.8415V76.1238H63.2745V76.5386Z" fill="#5D7EE8"/>
<path fill-rule="evenodd" clip-rule="evenodd" d="M63.2745 67.2037H65.8415V66.7889H63.2745V67.2037Z" fill="#5D7EE8"/>
<path fill-rule="evenodd" clip-rule="evenodd" d="M63.2745 113.882H165.811V113.468H63.2745V113.882Z" fill="#279D8A"/>
<path d="M155.547 70.5586C155.547 70.5586 150.315 86.4375 136.994 80.1024C123.673 73.7665 120.818 81.1321 118.584 90.2547C110.369 123.792 109.621 89.5058 104.833 89.8391C100.044 90.1723 98.4886 108.055 93.9389 108.59C89.3883 109.125 87.077 87.1129 82.0128 87.1678C76.9477 87.2227 72.8914 102.156 72.8914 102.156" stroke="#89FFED" stroke-width="1.61798"/>
<path d="M157.125 79.8945C157.125 79.8945 152.003 91.4074 146.498 84.6745C140.628 77.4953 139.281 100.02 134.117 101.42C128.91 102.832 131.178 77.5978 123.751 89.5747C116.02 102.038 112.385 87.6193 106.735 84.1548C101.086 80.6911 98.0616 86.2175 96.8061 89.2301C95.7787 91.6964 94.8119 94.5935 91.8462 90.5512C89.0406 86.7267 87.4056 83.5067 81.6416 97.1324" stroke="#2ADABF" stroke-width="1.61798"/>
<path fill-rule="evenodd" clip-rule="evenodd" d="M206.29 104.394C198.215 104.394 191.669 97.8638 191.669 89.8089C191.669 81.7533 198.215 75.2229 206.29 75.2229C214.365 75.2229 220.911 81.7533 220.911 89.8089C220.911 97.8638 214.365 104.394 206.29 104.394ZM206.29 69.9854C195.315 69.9854 186.418 78.8601 186.418 89.8089C186.418 100.757 195.315 109.632 206.29 109.632C217.264 109.632 226.161 100.757 226.161 89.8089C226.161 78.8601 217.264 69.9854 206.29 69.9854Z" fill="#2ADABF"/>
<path fill-rule="evenodd" clip-rule="evenodd" d="M220.911 89.8089C220.911 90.1011 220.9 90.3908 220.883 90.6789H226.14C226.153 90.39 226.162 90.1003 226.162 89.8089C226.162 78.8609 217.264 69.9854 206.29 69.9854V75.2229C214.365 75.2229 220.911 81.7533 220.911 89.8089Z" fill="#EFA748"/>
<path fill-rule="evenodd" clip-rule="evenodd" d="M217.632 77.9435L217.181 77.4948L221.66 73.0264H229.431V73.6607H221.924L217.632 77.9435Z" fill="white"/>
<path fill-rule="evenodd" clip-rule="evenodd" d="M220.781 90.4756C220.461 98.2488 214.046 104.453 206.175 104.453C203.117 104.453 200.283 103.511 197.937 101.909L194.716 106.053C197.955 108.341 201.904 109.691 206.175 109.691C216.857 109.691 225.568 101.282 226.024 90.7379L220.781 90.4756Z" fill="#62C1C5"/>
<path fill-rule="evenodd" clip-rule="evenodd" d="M225.737 114.836H210.087L203.196 107.96L203.645 107.512L210.351 114.202H225.737V114.836Z" fill="white"/>
<path fill-rule="evenodd" clip-rule="evenodd" d="M195.143 77.9431L190.76 73.5707H182.442V72.9355H191.024L195.594 77.4944L195.143 77.9431Z" fill="white"/>
<path d="M8 95.062L59.3926 43.7946L81.6245 65.9723L127.651 20.0578L173.251 65.5462L232.88 6.0625" stroke="#EFA748" stroke-width="4.85393" stroke-linecap="round"/>
<path fill-rule="evenodd" clip-rule="evenodd" d="M179.118 65.5468C179.118 68.7789 176.491 71.3993 173.251 71.3993C170.011 71.3993 167.384 68.7789 167.384 65.5468C167.384 62.3147 170.011 59.6943 173.251 59.6943C176.491 59.6943 179.118 62.3147 179.118 65.5468Z" fill="#EFA748"/>
<path fill-rule="evenodd" clip-rule="evenodd" d="M176.174 65.5466C176.174 67.1574 174.865 68.4624 173.251 68.4624C171.636 68.4624 170.328 67.1574 170.328 65.5466C170.328 63.9358 171.636 62.6309 173.251 62.6309C174.865 62.6309 176.174 63.9358 176.174 65.5466Z" fill="#F3F8FF"/>
<path fill-rule="evenodd" clip-rule="evenodd" d="M133.518 20.0576C133.518 23.2897 130.891 25.9101 127.651 25.9101C124.411 25.9101 121.784 23.2897 121.784 20.0576C121.784 16.8255 124.411 14.2051 127.651 14.2051C130.891 14.2051 133.518 16.8255 133.518 20.0576Z" fill="#EFA748"/>
<path fill-rule="evenodd" clip-rule="evenodd" d="M130.574 20.0574C130.574 21.6682 129.265 22.9731 127.651 22.9731C126.036 22.9731 124.727 21.6682 124.727 20.0574C124.727 18.4465 126.036 17.1416 127.651 17.1416C129.265 17.1416 130.574 18.4465 130.574 20.0574Z" fill="#F3F8FF"/>
<path fill-rule="evenodd" clip-rule="evenodd" d="M87.4519 65.9726C87.4519 69.2047 84.8251 71.8251 81.5851 71.8251C78.3451 71.8251 75.7183 69.2047 75.7183 65.9726C75.7183 62.7405 78.3451 60.1201 81.5851 60.1201C84.8251 60.1201 87.4519 62.7405 87.4519 65.9726Z" fill="#EFA748"/>
<path fill-rule="evenodd" clip-rule="evenodd" d="M84.5082 65.9724C84.5082 67.5832 83.1993 68.8881 81.5846 68.8881C79.9706 68.8881 78.6617 67.5832 78.6617 65.9724C78.6617 64.3616 79.9706 63.0566 81.5846 63.0566C83.1993 63.0566 84.5082 64.3616 84.5082 65.9724Z" fill="#F3F8FF"/>
<path fill-rule="evenodd" clip-rule="evenodd" d="M65.2881 43.8222C65.2881 47.0543 62.6613 49.6747 59.4213 49.6747C56.1813 49.6747 53.5545 47.0543 53.5545 43.8222C53.5545 40.5901 56.1813 37.9697 59.4213 37.9697C62.6613 37.9697 65.2881 40.5901 65.2881 43.8222Z" fill="#EFA748"/>
<path fill-rule="evenodd" clip-rule="evenodd" d="M62.3441 43.822C62.3441 45.4328 61.0351 46.7378 59.4212 46.7378C57.8064 46.7378 56.4975 45.4328 56.4975 43.822C56.4975 42.2112 57.8064 40.9062 59.4212 40.9062C61.0351 40.9062 62.3441 42.2112 62.3441 43.822Z" fill="#F3F8FF"/>
<path fill-rule="evenodd" clip-rule="evenodd" d="M220.214 18.6978L209.392 7.90232L224.175 3.95116L238.958 0L234.997 14.7466L231.036 29.4933L220.214 18.6978Z" fill="#EFA748"/>
<path fill-rule="evenodd" clip-rule="evenodd" d="M147.238 166.198C147.238 166.198 146.407 165.399 145.344 165.47C144.28 165.541 145.42 166.448 145.42 166.448C145.42 166.448 143.87 165.932 142.801 166.181C141.732 166.43 141.447 169.504 146.98 168.651L148.129 168.456L148.396 166.234L147.238 166.198Z" fill="#FFA9A8"/>
<path fill-rule="evenodd" clip-rule="evenodd" d="M167.256 222.011L164.529 222.313C164.529 222.313 164.2 224.048 163.189 224.4C162.179 224.751 160.33 225.431 160.377 226.439C160.414 227.212 162.223 227.016 163.394 226.942C164.104 226.689 164.423 226.276 164.423 226.276L166.214 225.596L166.693 226.668C167.337 226.528 167.848 226.369 167.829 226.241C167.782 225.937 167.256 222.011 167.256 222.011Z" fill="#0A3C5F"/>
<path fill-rule="evenodd" clip-rule="evenodd" d="M164.166 176.374C160.376 193.452 164.529 222.314 164.529 222.314L167.256 222.011C167.256 222.011 166.007 197.849 168.613 182.739C170.668 170.829 166.104 168.269 164.166 176.374Z" fill="#FED4D5"/>
<path fill-rule="evenodd" clip-rule="evenodd" d="M174.709 222.011L171.982 222.313C171.982 222.313 171.653 224.048 170.643 224.4C169.632 224.751 167.783 225.431 167.831 226.439C167.867 227.212 169.676 227.016 170.847 226.942C171.557 226.689 171.876 226.276 171.876 226.276L173.667 225.596L174.146 226.668C174.79 226.528 175.302 226.369 175.282 226.241C175.235 225.937 174.709 222.011 174.709 222.011Z" fill="#0A3C5F"/>
<path fill-rule="evenodd" clip-rule="evenodd" d="M171.619 176.374C167.829 193.452 171.982 222.313 171.982 222.313L174.709 222.011C174.709 222.011 173.46 197.849 176.067 182.739C175.283 182.454 170.96 179.962 171.619 176.374Z" fill="#FED4D5"/>
<path fill-rule="evenodd" clip-rule="evenodd" d="M163.651 184.636H174.169V176.375H163.651V184.636Z" fill="#FED4D5"/>
<path fill-rule="evenodd" clip-rule="evenodd" d="M165.453 157.454C165.453 157.454 161.835 164.023 158.249 167.284C155.697 169.603 152.366 169.053 147.394 168.945L147.662 165.816C147.662 165.816 149.785 165.772 152.773 165.422C157.237 164.901 158.687 159.606 158.687 159.606C158.687 159.606 160 156.273 161.188 154.982C164.06 151.858 167.241 154.565 165.453 157.454Z" fill="#FFEB75"/>
<path fill-rule="evenodd" clip-rule="evenodd" d="M162.899 176.374C162.899 176.374 176.992 176.388 175.421 176.388C174.169 167.982 175.817 164.093 176.227 161.846C176.954 157.867 176.537 155.772 176.537 155.772C176.562 154.233 174.583 153.588 173.041 153.588H163.487C163.9 156.897 160.975 161.612 162.899 164.254C165.063 167.226 162.899 176.374 162.899 176.374Z" fill="#FFEB75"/>
<path fill-rule="evenodd" clip-rule="evenodd" d="M168.222 155.484C167.489 155.484 166.895 154.892 166.895 154.161V151.806H169.548V154.161C169.548 154.892 168.954 155.484 168.222 155.484Z" fill="#FED4D5"/>
<path fill-rule="evenodd" clip-rule="evenodd" d="M165.206 152.338C165.206 152.338 163.375 152.471 162.237 152.2C162.237 152.2 162.131 148.36 161.49 144.769C160.848 141.179 162.655 137.926 166.895 137.926C171.136 137.926 172.895 141.748 172.895 141.748C172.895 141.748 175.74 142.032 175.975 144.308C176.209 146.583 173.643 150.031 173.892 152.733C173.892 152.733 171.7 152.733 169.446 152.449C167.259 152.173 165.206 152.338 165.206 152.338Z" fill="#282828"/>
<path fill-rule="evenodd" clip-rule="evenodd" d="M173.114 145.945C172.315 146.186 172.072 146.817 172.016 147.012C172.011 147.034 172.003 147.053 171.999 147.075C168.862 143.241 162.899 143.546 162.899 143.546C162.899 143.546 162.847 147.241 163.736 150.158C164.511 152.701 167.387 154.108 169.751 152.88C170.676 152.398 171.5 151.525 171.888 149.989C171.888 149.989 174.025 149.011 174.162 147.164C174.237 146.151 173.683 145.832 173.114 145.945Z" fill="#FED4D5"/>
<path fill-rule="evenodd" clip-rule="evenodd" d="M161.762 197.773H176.656C176.656 197.773 179.945 182.978 175.421 176.388L162.899 176.374C162.899 176.374 158.797 183.681 161.762 197.773Z" fill="#2C4199"/>
<path fill-rule="evenodd" clip-rule="evenodd" d="M167.041 175.819L177.204 173.71L174.45 160.502L164.288 162.611L167.041 175.819Z" fill="white"/>
<path fill-rule="evenodd" clip-rule="evenodd" d="M166.668 223.73C167.043 223.276 167.257 222.011 167.257 222.011H167L164.529 222.313C164.529 222.313 164.199 224.048 163.189 224.4C162.822 224.527 162.346 224.7 161.89 224.914C161.886 224.928 161.565 226.179 163.496 225.561C165.439 224.939 166.253 224.232 166.668 223.73Z" fill="#FED4D5"/>
<path fill-rule="evenodd" clip-rule="evenodd" d="M174.122 223.73C174.495 223.276 174.71 222.011 174.71 222.011H174.453L171.982 222.313C171.982 222.313 171.653 224.048 170.642 224.4C170.276 224.527 169.799 224.7 169.343 224.914C169.339 224.928 169.018 226.179 170.949 225.561C172.892 224.939 173.707 224.232 174.122 223.73Z" fill="#FED4D5"/>
<path fill-rule="evenodd" clip-rule="evenodd" d="M135.846 151.916C135.846 151.916 138.651 151.898 138.277 158.51C137.903 165.123 138.464 172.082 141.681 177.21L138.039 178.526C138.039 178.526 135.444 173.761 133.966 166.669C132.942 161.75 135.846 151.916 135.846 151.916Z" fill="#F59E6E"/>
<path fill-rule="evenodd" clip-rule="evenodd" d="M138.756 179.307L142.18 178.951C141.891 178.466 141.618 177.919 141.362 177.322L138.184 178.414C138.532 179 138.756 179.307 138.756 179.307Z" fill="#EF9D75"/>
<path fill-rule="evenodd" clip-rule="evenodd" d="M141.405 178.093C141.405 178.093 142.874 177.787 143.061 178.507C143.249 179.227 142.874 180.347 142.874 180.347L141.618 180.16L141.698 179.533L141.405 178.093Z" fill="#EF9D75"/>
<path fill-rule="evenodd" clip-rule="evenodd" d="M136.284 182.401H137.261V180.703C137.261 180.274 137.61 179.925 138.041 179.925H142.733C143.163 179.925 143.513 180.274 143.513 180.703V182.401H144.489V180.703C144.489 179.736 143.701 178.951 142.733 178.951H138.041C137.072 178.951 136.284 179.736 136.284 180.703V182.401Z" fill="#EAA707"/>
<path fill-rule="evenodd" clip-rule="evenodd" d="M140.571 184.888H130.374V195.177H140.571H150.091V184.888H140.571Z" fill="#0A3C5F"/>
<path fill-rule="evenodd" clip-rule="evenodd" d="M130.374 188.762H150.091V182.248H130.374V188.762Z" fill="#0E4F77"/>
<path fill-rule="evenodd" clip-rule="evenodd" d="M139.139 189.072H141.325V187.477H139.139V189.072Z" fill="#EAA707"/>
<path fill-rule="evenodd" clip-rule="evenodd" d="M133.603 222.313C133.603 222.313 133.932 224.048 134.943 224.4C135.953 224.751 137.802 225.431 137.755 226.439C137.708 227.447 134.449 227.026 133.838 227.026C133.227 227.026 130.255 226.546 130.302 226.241C130.35 225.937 130.405 221.923 130.405 221.923L133.603 222.313Z" fill="#0A3C5F"/>
<path fill-rule="evenodd" clip-rule="evenodd" d="M135.914 178.149C138.67 195.473 134.061 222.464 134.061 222.464H130C130 222.464 131.024 196.441 129.302 184.479C127.579 172.517 134.639 169.25 135.914 178.149Z" fill="#0A3C5F"/>
<path fill-rule="evenodd" clip-rule="evenodd" d="M122.696 186.397H135.915V178.136H122.696V186.397Z" fill="#0A3C5F"/>
<path fill-rule="evenodd" clip-rule="evenodd" d="M124.326 222.313C124.326 222.313 124.655 224.048 125.665 224.4C126.676 224.751 128.524 225.431 128.477 226.439C128.43 227.447 125.172 227.026 124.561 227.026C123.95 227.026 120.979 226.546 121.026 226.241C121.073 225.937 121.128 221.923 121.128 221.923L124.326 222.313Z" fill="#0A3C5F"/>
<path fill-rule="evenodd" clip-rule="evenodd" d="M128.665 178.148C129.032 194.938 124.783 222.464 124.783 222.464H120.722C120.722 222.464 122.128 201.446 120.319 189.497C119.127 181.625 119.807 178.148 119.807 178.148C121.914 174.7 127.739 171.686 128.665 178.148Z" fill="#0E4F77"/>
<path fill-rule="evenodd" clip-rule="evenodd" d="M135.914 178.148H119.806L119.128 151.916H135.846L135.914 178.148Z" fill="#F59E6E"/>
<path fill-rule="evenodd" clip-rule="evenodd" d="M128.644 153.813C129.377 153.813 129.97 153.221 129.97 152.489V150.135H127.317V152.489C127.317 153.221 127.912 153.813 128.644 153.813Z" fill="#FED4D5"/>
<path fill-rule="evenodd" clip-rule="evenodd" d="M128.644 153.813L127.452 154.991L126.209 151.905L127.317 151.307L128.644 153.813Z" fill="white"/>
<path fill-rule="evenodd" clip-rule="evenodd" d="M128.644 153.813L129.835 154.991L131.079 151.905L129.97 151.307L128.644 153.813Z" fill="white"/>
<path fill-rule="evenodd" clip-rule="evenodd" d="M133.966 141.874C133.966 141.874 134.018 145.57 133.13 148.485C132.355 151.03 129.479 152.437 127.116 151.207C126.189 150.727 125.366 149.854 124.977 148.317C124.977 148.317 122.84 147.339 122.703 145.491C122.563 143.589 124.642 144.12 124.867 145.404L126.264 140.595L129.062 140.537L131.306 141.762L133.966 141.874Z" fill="#F8B690"/>
<path fill-rule="evenodd" clip-rule="evenodd" d="M134.369 136.806C132.149 135.926 124.086 136.719 122.696 138.586C121.787 140.544 123.51 144.249 123.51 144.249C123.51 144.249 124.523 144.255 124.867 145.404C124.867 145.404 126.439 144.695 126.878 142.71C126.878 142.71 130.485 143.978 133.966 141.874C135.105 141.185 136.59 137.686 134.369 136.806Z" fill="#282828"/>
<path fill-rule="evenodd" clip-rule="evenodd" d="M141.812 178.808C143.279 178.601 143.087 180.364 142.647 180.774C142.27 181.126 139.007 182.167 138.632 181.492C138.258 180.816 137.565 179.661 138.527 179.448C139.49 179.234 140.344 179.014 141.812 178.808Z" fill="#F8B690"/>
<path fill-rule="evenodd" clip-rule="evenodd" d="M141.253 165.97C141.253 165.97 142.084 165.17 143.147 165.241C144.211 165.313 143.071 166.219 143.071 166.219C143.071 166.219 144.621 165.703 145.69 165.952C146.759 166.2 147.044 169.274 141.511 168.422L140.362 168.228L140.095 166.005L141.253 165.97Z" fill="#EF9D75"/>
<path fill-rule="evenodd" clip-rule="evenodd" d="M117.673 154.999C117.673 154.999 118.498 161.479 121.432 166.914C123.583 170.898 131.935 170.477 141.081 168.653L140.777 165.333C140.777 165.333 131.803 166.156 128.457 165.77C124.321 165.29 124.21 158.867 124.21 158.867C124.21 158.867 124.08 155.566 123.436 154.064C121.881 150.429 117.482 150.912 117.673 154.999Z" fill="#F59E6E"/>
<path fill-rule="evenodd" clip-rule="evenodd" d="M173.848 153.645C173.848 153.645 172.429 154.053 174.364 158.376C176.298 162.701 179.059 168.112 178.096 168.653C177.133 169.194 171.194 168.569 170.221 168.799C169.249 169.029 168.656 171.232 171.12 171.68C173.584 172.127 178.191 173.005 180.932 172.202C183.674 171.399 182.652 167.622 180.209 160.812C177.767 154.003 176.145 152.767 173.848 153.645Z" fill="#FFEB75"/>
<path fill-rule="evenodd" clip-rule="evenodd" d="M167.298 171.34C166.195 171.318 165.247 170.714 165.896 169.008C166.543 167.303 168.672 167.842 170.383 168.489C172.09 169.136 172.099 168.666 172.011 170.512C171.912 172.602 169.304 171.38 167.298 171.34Z" fill="#FED4D5"/>
<path fill-rule="evenodd" clip-rule="evenodd" d="M171.953 169.149C171.953 169.149 171.34 167.777 170.087 167.571C169.011 167.393 169.31 168.128 169.31 168.128L170.183 169.548L171.264 169.745L171.953 169.149Z" fill="#FED4D5"/>
<path fill-rule="evenodd" clip-rule="evenodd" d="M123.51 144.25C123.51 144.25 124.523 144.255 124.867 145.405C124.867 145.405 126.439 144.696 126.878 142.711C126.878 142.711 124.168 142.369 122.55 141.209C122.829 142.784 123.51 144.25 123.51 144.25Z" fill="#282828"/>
<path fill-rule="evenodd" clip-rule="evenodd" d="M170 145.33C170 145.33 172.946 147.518 170.587 152.295L172.289 151.498L173.09 151.018L174.169 149.179L174.907 147.633L175.095 145.33L173.812 144.326L172.048 144.086H171.006L170 145.33Z" fill="#6CBA39"/>
<path fill-rule="evenodd" clip-rule="evenodd" d="M270.503 167.598C270.503 167.598 272.703 164.664 270.984 161.806C270.984 161.806 272.666 159.923 270.83 158.443C270.83 158.443 272.094 154.73 268.706 153.695C268.706 153.695 267.566 151.557 264.195 151.819C260.736 152.088 259.995 154.24 259.995 154.24C259.995 154.24 254.501 155.955 257.535 162.126C257.535 162.126 251.669 167.926 259.826 176.187C262.911 179.311 270.503 167.598 270.503 167.598Z" fill="#703518"/>
<path fill-rule="evenodd" clip-rule="evenodd" d="M266.9 170.914C266.9 170.914 268.133 179.647 270.39 183.633C272.648 187.62 279.245 185.377 285.674 181.558L284.537 178.39C284.537 178.39 280.937 180.198 277.749 180.865C273.594 181.736 273.527 174.781 273.527 174.781C273.527 174.781 273.446 171.395 272.813 169.862C271.279 166.156 266.916 167.349 266.9 170.914Z" fill="#FED4D5"/>
<path fill-rule="evenodd" clip-rule="evenodd" d="M271.06 191.958C271.06 191.958 255.318 191.755 256.804 191.755C260.4 182.704 258.841 177.534 258.453 175.409C257.766 171.646 258.16 169.664 258.16 169.664C258.136 168.209 260.007 167.598 261.467 167.598H270.504C270.112 170.727 272.88 175.188 271.06 177.687C269.013 180.497 271.06 191.958 271.06 191.958Z" fill="#F76B8D"/>
<path fill-rule="evenodd" clip-rule="evenodd" d="M257.104 169.183C257.104 169.183 253.452 175.325 252.755 179.851C252.058 184.377 253.378 186.366 260.638 187.974L261.612 185.651C261.612 185.651 260.92 185.43 258.048 183.898C254.298 181.9 258.731 175.684 258.731 175.684C258.731 175.684 260.766 172.973 261.218 171.378C262.31 167.519 258.546 166.311 257.104 169.183Z" fill="#FED4D5"/>
<path fill-rule="evenodd" clip-rule="evenodd" d="M264.614 189.985C265.103 191.64 265.754 189.174 265.766 187.449C265.776 185.725 264.335 185.708 262.606 185.697C260.878 185.688 261.016 185.266 260.477 186.928C259.772 189.106 264.105 188.267 264.614 189.985Z" fill="#FED4D5"/>
<path fill-rule="evenodd" clip-rule="evenodd" d="M265.23 192.588C265.23 192.588 263.631 202.547 272.171 200.159C280.394 197.86 284.788 197.193 286.212 218.879L290.123 218.568C290.123 218.568 291.752 197.5 286.663 193.096C281.574 188.693 265.23 192.588 265.23 192.588Z" fill="#C33E6B"/>
<path fill-rule="evenodd" clip-rule="evenodd" d="M289.666 218.554C289.666 218.554 290.426 220.041 291.437 220.093C292.448 220.145 295.275 219.991 295.5 220.919C295.725 221.846 291.687 222.607 291.132 222.769C290.578 222.931 289.499 221.698 288.983 221.595C288.467 221.49 288.298 221.863 287.87 221.826C287.442 221.789 286.131 221.109 286.093 220.82C286.054 220.53 286.623 218.678 286.623 218.678L289.666 218.554Z" fill="#3459B7"/>
<path fill-rule="evenodd" clip-rule="evenodd" d="M275.596 199.557H260.669L257.504 191.743H275.596V199.557Z" fill="#0A3C5F"/>
<path fill-rule="evenodd" clip-rule="evenodd" d="M256.804 191.755C256.804 191.755 253.057 198.799 261.444 200.207C269.866 201.62 274.281 201.648 269.551 222.861L273.392 223.657C273.392 223.657 280.673 203.373 277.041 197.714C272.641 190.856 256.804 191.755 256.804 191.755Z" fill="#C33E6B"/>
<path fill-rule="evenodd" clip-rule="evenodd" d="M272.959 223.514C272.959 223.514 273.27 225.155 274.226 225.488C275.181 225.82 277.937 226.463 277.894 227.417C277.848 228.37 273.759 227.971 273.18 227.971C272.604 227.971 271.914 226.486 271.448 226.242C270.981 225.998 270.715 226.308 270.313 226.153C269.914 225.998 268.847 224.977 268.892 224.689C268.936 224.402 270.003 222.783 270.003 222.783L272.959 223.514Z" fill="#3459B7"/>
<path fill-rule="evenodd" clip-rule="evenodd" d="M270.277 192.589H259.864C259.532 192.589 259.261 192.319 259.261 191.987V191.929C259.261 191.597 259.532 191.327 259.864 191.327H270.277C270.611 191.327 270.881 191.597 270.881 191.929V191.987C270.881 192.319 270.611 192.589 270.277 192.589Z" fill="#E89234"/>
<path fill-rule="evenodd" clip-rule="evenodd" d="M292.01 192.588H270.049C269.474 192.588 269.007 192.124 269.007 191.55V177.225C269.007 176.651 269.474 176.187 270.049 176.187H292.01C292.586 176.187 293.051 176.651 293.051 177.225V191.55C293.051 192.124 292.586 192.588 292.01 192.588Z" fill="white"/>
<path fill-rule="evenodd" clip-rule="evenodd" d="M270.048 176.187H282.071C281.496 176.187 281.029 176.651 281.029 177.225V191.55C281.029 192.124 281.496 192.588 282.071 192.588H270.048C269.473 192.588 269.007 192.124 269.007 191.55V177.225C269.007 176.651 269.473 176.187 270.048 176.187Z" fill="white"/>
<path fill-rule="evenodd" clip-rule="evenodd" d="M270.048 176.187H270.831C270.255 176.187 269.789 176.651 269.789 177.225V191.55C269.789 192.124 270.255 192.588 270.831 192.588H270.048C269.473 192.588 269.007 192.124 269.007 191.55V177.225C269.007 176.651 269.473 176.187 270.048 176.187Z" fill="#E89234"/>
<path fill-rule="evenodd" clip-rule="evenodd" d="M265.162 168.738C265.854 168.738 266.417 168.178 266.417 167.486V165.259H263.907V167.486C263.907 168.178 264.469 168.738 265.162 168.738Z" fill="#FED4D5"/>
<path fill-rule="evenodd" clip-rule="evenodd" d="M270.196 157.446C270.196 157.446 270.245 160.942 269.405 163.699C268.671 166.105 265.952 167.436 263.716 166.274C262.84 165.819 262.061 164.994 261.694 163.54C261.694 163.54 259.673 162.614 259.543 160.867C259.411 159.068 261.377 159.57 261.589 160.784L262.912 156.236L265.557 156.181L269.231 155.518L270.196 157.446Z" fill="#FED4D5"/>
<path fill-rule="evenodd" clip-rule="evenodd" d="M270.175 158.52C270.175 158.52 269.219 158.33 268.489 157.057C268.489 157.057 266.521 160.906 261.59 160.785C261.59 160.785 261.259 159.377 261.435 158.52C261.612 157.662 262.194 156.224 262.421 155.998C262.649 155.771 262.783 154.939 264.195 154.939C265.607 154.939 267.25 154.838 267.579 154.888C267.907 154.939 269.07 154.964 269.07 154.964C269.07 154.964 269.475 154.913 269.601 154.989C269.727 155.065 269.957 155.241 270.197 155.67C270.435 156.098 270.562 156.477 270.587 156.805C270.612 157.132 270.587 157.713 270.587 157.713L270.175 158.52Z" fill="#703518"/>
<path fill-rule="evenodd" clip-rule="evenodd" d="M37.7216 224.838C37.7216 224.838 37.4101 226.479 36.4547 226.812C35.4985 227.144 33.7511 227.787 33.7947 228.741C33.8392 229.695 36.9215 229.295 37.4991 229.295C38.0767 229.295 40.888 228.842 40.8427 228.554C40.799 228.266 40.7464 224.469 40.7464 224.469L37.7216 224.838Z" fill="#0A3C5F"/>
<path fill-rule="evenodd" clip-rule="evenodd" d="M35.536 183.065C32.9286 199.451 37.2891 224.98 37.2891 224.98H41.1302C41.1302 224.98 40.161 200.366 41.7903 189.052C43.4196 177.738 36.7414 174.647 35.536 183.065Z" fill="#6D6D6D"/>
<path fill-rule="evenodd" clip-rule="evenodd" d="M35.536 190.867H48.0373V183.053H35.536V190.867Z" fill="#6D6D6D"/>
<path fill-rule="evenodd" clip-rule="evenodd" d="M46.4965 224.838C46.4965 224.838 46.185 226.479 45.2296 226.812C44.2734 227.144 42.5251 227.787 42.5696 228.741C42.6141 229.695 45.6964 229.295 46.274 229.295C46.8516 229.295 49.662 228.842 49.6175 228.554C49.573 228.266 49.5205 224.469 49.5205 224.469L46.4965 224.838Z" fill="#0A3C5F"/>
<path fill-rule="evenodd" clip-rule="evenodd" d="M41.7867 183.052C41.5731 196.407 46.063 224.98 46.063 224.98H49.9049C49.9049 224.98 48.5757 205.1 50.2859 193.799C51.4128 186.354 50.7705 183.065 50.7705 183.065C48.778 179.804 42.662 176.941 41.7867 183.052Z" fill="#6D6D6D"/>
<path fill-rule="evenodd" clip-rule="evenodd" d="M35.536 183.066H50.7709L51.4132 158.255H35.5999L35.536 183.066Z" fill="#6CBA39"/>
<path fill-rule="evenodd" clip-rule="evenodd" d="M42.4125 160.048C41.72 160.048 41.1577 159.488 41.1577 158.797V156.569H43.6672V158.797C43.6672 159.488 43.105 160.048 42.4125 160.048Z" fill="#FED4D5"/>
<path fill-rule="evenodd" clip-rule="evenodd" d="M51.6645 158.225C51.6645 158.225 47.6802 158.19 48.0167 163.262C48.3525 168.333 50.1088 173.204 48.9365 173.392C47.7651 173.579 42.0796 171.451 41.0149 171.322C39.9503 171.193 37.8089 172.774 40.1226 174.14C42.4363 175.504 48.4026 179.628 51.4622 179.836C54.5226 180.044 55.2159 175.599 55.2944 167.836C55.3729 160.073 53.6602 158.304 51.6645 158.225Z" fill="#A2D680"/>
<path fill-rule="evenodd" clip-rule="evenodd" d="M35.5822 165.819C35.5822 165.819 30.3521 169.322 27.015 168.498C22.979 167.501 26.7861 158.851 35.6138 152.029L37.5659 154.914C37.5659 154.914 31.7913 160.488 31.6902 162.386C31.5891 164.285 35.6 158.254 35.6 158.254L35.5822 165.819Z" fill="#A2D680"/>
<path fill-rule="evenodd" clip-rule="evenodd" d="M34.1361 156.162L37.4805 157.652C37.652 157.727 37.8526 157.651 37.9286 157.481L40.7908 151.084C40.8669 150.914 40.7908 150.714 40.6193 150.637L37.275 149.148C37.1035 149.073 36.9036 149.149 36.8268 149.32L33.9646 155.715C33.8885 155.885 33.9654 156.086 34.1361 156.162Z" fill="#62C1C5"/>
<path fill-rule="evenodd" clip-rule="evenodd" d="M40.3548 150.866L39.7351 150.589C39.6598 150.556 39.5717 150.59 39.5385 150.665C39.5102 150.727 39.4366 150.755 39.3743 150.727L38.0394 150.133C37.9771 150.105 37.9488 150.033 37.9771 149.97C38.0103 149.895 37.9771 149.807 37.9011 149.773L37.2814 149.497C37.1957 149.459 37.0937 149.497 37.0557 149.583L34.314 155.708C34.276 155.795 34.3148 155.896 34.4006 155.933L37.4739 157.303C37.5605 157.341 37.6616 157.303 37.7005 157.217L40.4413 151.091C40.4801 151.005 40.4413 150.904 40.3548 150.866Z" fill="#0A3C5F"/>
<path fill-rule="evenodd" clip-rule="evenodd" d="M40.6195 150.637L38.9473 149.893L35.8084 156.907L37.4806 157.651C37.6521 157.727 37.8527 157.65 37.9288 157.48L40.791 151.085C40.867 150.914 40.7902 150.714 40.6195 150.637Z" fill="#45ADAD"/>
<path fill-rule="evenodd" clip-rule="evenodd" d="M40.3548 150.865L39.7351 150.589C39.6598 150.556 39.5717 150.589 39.5385 150.665C39.5102 150.727 39.4366 150.754 39.3743 150.727L38.7069 150.43L35.9377 156.618L37.474 157.302C37.5605 157.34 37.6616 157.302 37.7005 157.216L40.4413 151.091C40.4802 151.004 40.4413 150.903 40.3548 150.865Z" fill="#0A3C5F"/>
<path fill-rule="evenodd" clip-rule="evenodd" d="M38.9403 150.354L38.2874 150.063C38.2599 150.051 38.2478 150.019 38.2599 149.992C38.2721 149.965 38.3044 149.952 38.3311 149.965L38.9848 150.255C39.0115 150.268 39.0244 150.299 39.0115 150.327C39.0001 150.354 38.9678 150.366 38.9403 150.354Z" fill="#0A3C5F"/>
<path fill-rule="evenodd" clip-rule="evenodd" d="M39.2045 150.413C39.1924 150.439 39.1608 150.451 39.1341 150.439C39.1074 150.428 39.0953 150.396 39.1074 150.369C39.1196 150.342 39.1511 150.33 39.1778 150.342C39.2045 150.354 39.2166 150.386 39.2045 150.413Z" fill="#0A3C5F"/>
<path fill-rule="evenodd" clip-rule="evenodd" d="M39.3559 150.48C39.3437 150.507 39.3122 150.519 39.2855 150.507C39.2588 150.495 39.2467 150.463 39.2588 150.436C39.2709 150.41 39.3025 150.398 39.3292 150.41C39.3559 150.422 39.368 150.453 39.3559 150.48Z" fill="#0A3C5F"/>
<path fill-rule="evenodd" clip-rule="evenodd" d="M37.3784 148.756C37.3784 148.756 37.329 152.251 38.1695 155.009C38.9025 157.414 41.6223 158.746 43.8575 157.584C44.7337 157.129 45.5135 156.303 45.88 154.85C45.88 154.85 47.9017 153.924 48.0311 152.177C48.1646 150.378 46.1971 150.88 45.9844 152.094L44.6625 147.545L42.0171 147.491L39.8935 148.65L37.3784 148.756Z" fill="#FED4D5"/>
<path fill-rule="evenodd" clip-rule="evenodd" d="M44.175 143.082C47.4328 143.418 48.0371 145.645 48.0371 145.645C48.8979 147.498 47.2677 151.002 47.2677 151.002C47.2677 151.002 46.3099 151.007 45.9847 152.094C45.9847 152.094 44.4978 151.424 44.0827 149.546C43.6669 147.669 39.1779 150.342 36.2121 149.156C36.2121 149.156 32.6072 148.279 32.7626 144.194C32.7626 144.194 33.591 145.657 35.4015 145.531C35.4015 145.531 33.2836 144.31 34.9064 141.289C34.9064 141.289 35.4258 143.503 37.1449 143.886C37.1449 143.886 36.9256 142.841 37.8689 141.816C37.8689 141.816 38.2232 143.329 39.8752 143.379C41.5263 143.43 43.0432 142.965 44.175 143.082Z" fill="#282828"/>
<path fill-rule="evenodd" clip-rule="evenodd" d="M36.0487 149.96C36.0487 149.96 36.7388 149.923 36.7056 150.968C36.6733 152.015 35.8271 154.32 34.8652 154.553C34.6112 154.615 33.9858 154.398 34.1112 153.09C34.2366 151.782 34.9768 149.824 36.0487 149.96Z" fill="#FED4D5"/>
<path fill-rule="evenodd" clip-rule="evenodd" d="M42.4966 177.994L33.4311 177.443L31.1505 164.436L40.2168 164.988L42.4966 177.994Z" fill="white"/>
<path fill-rule="evenodd" clip-rule="evenodd" d="M41.5663 170.845C41.5663 170.845 39.9508 170.476 39.7291 171.915C39.5074 173.355 39.471 176.307 41.5663 176.197C42.7976 176.133 43.3315 170.992 41.5663 170.845Z" fill="#FED4D5"/>
</svg>
