<svg width="161" height="101" viewBox="0 0 161 101" fill="none" xmlns="http://www.w3.org/2000/svg">
<path opacity="0.2" fill-rule="evenodd" clip-rule="evenodd" d="M28.9461 68.9935C28.9461 71.8628 31.2722 74.1889 34.1415 74.1889H142.504C145.373 74.1889 147.699 71.8628 147.699 68.9935C147.699 66.1241 145.373 63.798 142.504 63.798H138.051C135.181 63.798 132.855 61.4719 132.855 58.6025C132.855 55.7332 135.181 53.4071 138.051 53.4071H152.153C155.022 53.4071 157.348 51.081 157.348 48.2116C157.348 45.3423 155.022 43.0162 152.153 43.0162H135.824C138.693 43.0162 141.019 40.6901 141.019 37.8207C141.019 34.9514 138.693 32.6253 135.824 32.6253H88.3227C91.1921 32.6253 93.5182 30.2992 93.5182 27.4298C93.5182 24.5605 91.1921 22.2344 88.3227 22.2344H46.0169C43.1475 22.2344 40.8214 24.5605 40.8214 27.4298C40.8214 30.2992 43.1475 32.6253 46.0169 32.6253H16.3286C13.4592 32.6253 11.1331 34.9514 11.1331 37.8207C11.1331 40.6901 13.4592 43.0162 16.3286 43.0162H34.8838C37.7531 43.0162 40.0792 45.3423 40.0792 48.2116C40.0792 51.081 37.7531 53.4071 34.8838 53.4071H5.19545C2.32608 53.4071 0 55.7332 0 58.6025C0 61.4719 2.32608 63.798 5.19545 63.798H34.1415C31.2722 63.798 28.9461 66.1241 28.9461 68.9935ZM160.317 68.9935C160.317 71.8629 157.991 74.189 155.121 74.189C152.252 74.189 149.926 71.8629 149.926 68.9935C149.926 66.1242 152.252 63.7981 155.121 63.7981C157.991 63.7981 160.317 66.1242 160.317 68.9935Z" fill="#33907C"/>
<path fill-rule="evenodd" clip-rule="evenodd" d="M103.815 80.2156C106.07 78.7646 108.074 76.9542 109.379 75.4926L103.815 80.2156ZM111.484 73.0637C112.562 71.7423 113.532 70.3604 114.393 68.9301C116.285 65.7844 117.65 62.4047 118.483 58.9203C119.327 55.3963 119.627 51.7651 119.383 48.1604C119.17 45.015 118.543 41.8897 117.499 38.8733C116.463 35.8807 115.018 32.9953 113.162 30.3038C112.056 28.7 110.804 27.165 109.406 25.7172C107.354 23.5916 105.102 21.7744 102.71 20.2667C100.139 18.6468 97.4065 17.3841 94.583 16.4802C91.047 15.3481 87.3691 14.7787 83.6905 14.7745C80.8284 14.7713 77.9659 15.1103 75.1698 15.7929C72.0218 16.5612 68.9579 17.765 66.0729 19.4059C63.5369 20.8484 61.1393 22.6288 58.9446 24.7482C56.1865 27.4117 53.9524 30.4141 52.2443 33.6273C50.572 36.7732 49.4039 40.1212 48.7418 43.551C48.0598 47.0846 47.9149 50.705 48.3092 54.2807C48.8204 58.9153 50.2374 63.4749 52.5648 67.673C54.054 70.3593 55.916 72.8976 58.1519 75.213C61.7014 78.8886 65.8454 81.6421 70.2838 83.4676C75.6814 85.6876 81.5142 86.5353 87.2427 86.0004C92.0505 85.5514 96.7848 84.1285 101.126 81.7256" fill="white"/>
<path d="M103.815 80.2156L103.006 79.2627L104.491 81.2668L103.815 80.2156ZM109.379 75.4926L110.311 76.3248L108.57 74.5396L109.379 75.4926ZM110.515 72.2732C110.079 72.808 110.158 73.5954 110.693 74.032C111.228 74.4686 112.015 74.389 112.452 73.8542L110.515 72.2732ZM114.393 68.9301L113.322 68.2857L114.393 68.9301ZM118.483 58.9203L119.699 59.2112L118.483 58.9203ZM119.383 48.1604L120.63 48.076L119.383 48.1604ZM117.499 38.8733L116.318 39.282L117.499 38.8733ZM113.162 30.3038L112.133 31.0134L113.162 30.3038ZM109.406 25.7172L108.507 26.5856L109.406 25.7172ZM102.71 20.2667L102.043 21.3242L102.71 20.2667ZM94.583 16.4802L94.2019 17.6707L94.583 16.4802ZM83.6905 14.7745L83.6891 16.0245L83.6905 14.7745ZM75.1698 15.7929L75.4662 17.0072L75.1698 15.7929ZM66.0729 19.4059L66.691 20.4925L66.0729 19.4059ZM58.9446 24.7482L59.8129 25.6474L58.9446 24.7482ZM52.2443 33.6273L51.1405 33.0406L52.2443 33.6273ZM48.7418 43.551L49.9692 43.7879L48.7418 43.551ZM48.3092 54.2807L47.0668 54.4177L48.3092 54.2807ZM52.5648 67.673L53.658 67.067L52.5648 67.673ZM58.1519 75.213L59.0511 74.3447L58.1519 75.213ZM70.2838 83.4676L69.8084 84.6237L69.8084 84.6237L70.2838 83.4676ZM87.2427 86.0004L87.3589 87.245L87.2427 86.0004ZM101.732 82.8192C102.336 82.4849 102.554 81.7243 102.22 81.1203C101.886 80.5162 101.125 80.2976 100.521 80.6319L101.732 82.8192ZM104.491 81.2668C106.848 79.7501 108.938 77.8641 110.311 76.3248L108.446 74.6603C107.211 76.0442 105.291 77.779 103.138 79.1645L104.491 81.2668ZM108.57 74.5396L103.006 79.2627L104.624 81.1686L110.188 76.4455L108.57 74.5396ZM112.452 73.8542C113.569 72.4863 114.573 71.0555 115.464 69.5745L113.322 68.2857C112.492 69.6652 111.556 70.9983 110.515 72.2732L112.452 73.8542ZM115.464 69.5745C117.424 66.3171 118.836 62.8179 119.699 59.2112L117.268 58.6294C116.463 61.9915 115.147 65.2517 113.322 68.2857L115.464 69.5745ZM119.699 59.2112C120.572 55.5637 120.883 51.806 120.63 48.076L118.136 48.2448C118.372 51.7243 118.081 55.2288 117.268 58.6294L119.699 59.2112ZM120.63 48.076C120.41 44.8211 119.761 41.5867 118.68 38.4645L116.318 39.282C117.325 42.1926 117.931 45.2088 118.136 48.2448L120.63 48.076ZM118.68 38.4645C117.608 35.3668 116.112 32.38 114.191 29.5942L112.133 31.0134C113.924 33.6106 115.319 36.3946 116.318 39.282L118.68 38.4645ZM114.191 29.5942C113.047 27.9342 111.751 26.3461 110.305 24.8489L108.507 26.5856C109.857 27.9839 111.066 29.4658 112.133 31.0134L114.191 29.5942ZM110.305 24.8489C108.183 22.6506 105.853 20.77 103.376 19.2092L102.043 21.3242C104.351 22.7789 106.525 24.5327 108.507 26.5856L110.305 24.8489ZM103.376 19.2092C100.716 17.5323 97.8865 16.2253 94.9642 15.2897L94.2019 17.6707C96.9264 18.5429 99.5633 19.7612 102.043 21.3242L103.376 19.2092ZM94.9642 15.2897C91.3045 14.1181 87.4984 13.5288 83.6919 13.5245L83.6891 16.0245C87.2398 16.0285 90.7896 16.5782 94.2019 17.6707L94.9642 15.2897ZM83.6919 13.5245C80.7302 13.5212 77.7678 13.872 74.8733 14.5785L75.4662 17.0072C78.1641 16.3487 80.9266 16.0214 83.6891 16.0245L83.6919 13.5245ZM74.8733 14.5785C71.6147 15.3739 68.4423 16.6202 65.4549 18.3194L66.691 20.4925C69.4734 18.9098 72.4289 17.7486 75.4662 17.0072L74.8733 14.5785ZM65.4549 18.3194C62.8287 19.8132 60.3469 21.6563 58.0762 23.849L59.8129 25.6474C61.9317 23.6013 64.2451 21.8837 66.691 20.4925L65.4549 18.3194ZM58.0762 23.849C55.2226 26.6048 52.9094 29.713 51.1405 33.0406L53.348 34.2141C54.9953 31.1152 57.1503 28.2186 59.8129 25.6474L58.0762 23.849ZM51.1405 33.0406C49.4089 36.2982 48.1997 39.7643 47.5145 43.3141L49.9692 43.7879C50.608 40.4781 51.7351 37.2483 53.348 34.2141L51.1405 33.0406ZM47.5145 43.3141C46.8086 46.9712 46.6587 50.7176 47.0668 54.4177L49.5517 54.1437C49.1711 50.6923 49.311 47.198 49.9692 43.7879L47.5145 43.3141ZM47.0668 54.4177C47.5957 59.2137 49.0622 63.9331 51.4715 68.2791L53.658 67.067C51.4126 63.0166 50.045 58.6169 49.5517 54.1437L47.0668 54.4177ZM51.4715 68.2791C53.0133 71.0601 54.9403 73.6867 57.2527 76.0813L59.0511 74.3447C56.8917 72.1086 55.0948 69.6586 53.658 67.067L51.4715 68.2791ZM57.2527 76.0813C60.9243 79.8833 65.2133 82.7337 69.8084 84.6237L70.7593 82.3116C66.4775 80.5505 62.4785 77.8939 59.0511 74.3447L57.2527 76.0813ZM69.8084 84.6237C75.3951 86.9215 81.4312 87.7985 87.3589 87.245L87.1265 84.7558C81.5973 85.2722 75.9676 84.4538 70.7593 82.3116L69.8084 84.6237ZM87.3589 87.245C92.3345 86.7804 97.2358 85.3076 101.732 82.8192L100.521 80.6319C96.3338 82.9495 91.7666 84.3225 87.1265 84.7558L87.3589 87.245Z" fill="#33907C"/>
<path d="M118.382 8.13281V12.5861" stroke="#33907C" stroke-width="2.5" stroke-linecap="round" stroke-linejoin="round"/>
<path d="M118.382 18.5234V22.9767" stroke="#33907C" stroke-width="2.5" stroke-linecap="round" stroke-linejoin="round"/>
<path d="M110.96 15.5547H115.413" stroke="#33907C" stroke-width="2.5" stroke-linecap="round" stroke-linejoin="round"/>
<path d="M121.351 15.5547H125.804" stroke="#33907C" stroke-width="2.5" stroke-linecap="round" stroke-linejoin="round"/>
<path d="M56.7788 84.5801V87.5489" stroke="#33907C" stroke-width="2.5" stroke-linecap="round" stroke-linejoin="round"/>
<path d="M56.7788 93.4863V96.4552" stroke="#33907C" stroke-width="2.5" stroke-linecap="round" stroke-linejoin="round"/>
<path d="M50.8413 90.5176H53.8101" stroke="#33907C" stroke-width="2.5" stroke-linecap="round" stroke-linejoin="round"/>
<path d="M59.748 90.5176H62.7169" stroke="#33907C" stroke-width="2.5" stroke-linecap="round" stroke-linejoin="round"/>
<path fill-rule="evenodd" clip-rule="evenodd" d="M72.8719 21.271C71.3587 21.8387 69.8805 22.5285 68.4526 23.3408C66.2336 24.6029 64.1356 26.1607 62.2152 28.0152C61.428 28.7754 60.6896 29.5672 60 30.3866M57.8663 33.2396C57.3179 34.0682 56.8133 34.9176 56.3525 35.7845C56.0121 36.4248 55.6956 37.0747 55.403 37.7328" fill="white"/>
<path d="M73.3109 22.4413C73.9573 22.1988 74.2847 21.4783 74.0422 20.8319C73.7997 20.1855 73.0792 19.8581 72.4328 20.1006L73.3109 22.4413ZM68.4526 23.3408L67.8345 22.2542L67.8345 22.2542L68.4526 23.3408ZM62.2152 28.0152L61.3469 27.1161L62.2152 28.0152ZM59.0436 29.5817C58.5991 30.11 58.667 30.8985 59.1952 31.343C59.7234 31.7875 60.5119 31.7197 60.9564 31.1915L59.0436 29.5817ZM58.9087 33.9294C59.2897 33.3537 59.1318 32.5782 58.5561 32.1972C57.9804 31.8162 57.2048 31.9741 56.8238 32.5498L58.9087 33.9294ZM56.3525 35.7845L55.2487 35.1978L55.2487 35.1978L56.3525 35.7845ZM54.2608 37.2249C53.9804 37.8557 54.2644 38.5945 54.8952 38.875C55.526 39.1554 56.2647 38.8714 56.5452 38.2406L54.2608 37.2249ZM72.4328 20.1006C70.8584 20.6913 69.3204 21.409 67.8345 22.2542L69.0706 24.4273C70.4407 23.648 71.8589 22.9861 73.3109 22.4413L72.4328 20.1006ZM67.8345 22.2542C65.5254 23.5677 63.3432 25.1883 61.3469 27.1161L63.0835 28.9144C64.928 27.1332 66.9417 25.6382 69.0706 24.4273L67.8345 22.2542ZM61.3469 27.1161C60.5287 27.9062 59.7609 28.7295 59.0436 29.5817L60.9564 31.1915C61.6183 30.4049 62.3274 29.6447 63.0835 28.9144L61.3469 27.1161ZM56.8238 32.5498C56.2533 33.4119 55.7283 34.2957 55.2487 35.1978L57.4562 36.3712C57.8984 35.5394 58.3826 34.7245 58.9087 33.9294L56.8238 32.5498ZM55.2487 35.1978C54.8946 35.864 54.5653 36.5402 54.2608 37.2249L56.5452 38.2406C56.826 37.6091 57.1297 36.9856 57.4562 36.3712L55.2487 35.1978Z" fill="#33907C"/>
<path d="M69.753 49.9701C68.6721 48.9964 66.9955 49.0712 66.0081 50.1371C65.0207 51.2029 65.0965 52.8563 66.1774 53.8299L78.6527 65.0675C80.1659 66.4306 82.5132 66.326 83.8955 64.8338C83.9533 64.7704 83.9533 64.7704 84.0091 64.7053L101.812 43.5908C102.748 42.4807 102.594 40.8327 101.469 39.9097C100.343 38.9868 98.6718 39.1384 97.7358 40.2485L80.998 60.0995L69.753 49.9701Z" fill="white" stroke="#33907C" stroke-width="2.5"/>
</svg>
