<svg width="20" height="20" viewBox="0 0 20 20" fill="none" xmlns="http://www.w3.org/2000/svg">
<path d="M18.3107 9.55305C18.3107 4.71687 14.3896 0.795765 9.5534 0.795765C4.71722 0.795765 0.796116 4.71687 0.796116 9.55305C0.796116 14.3892 4.71722 18.3103 9.5534 18.3103C14.3896 18.3103 18.3107 14.3892 18.3107 9.55305Z" fill="url(#paint0_linear_49_1847)" stroke="white" stroke-width="1.59223"/>
<path fill-rule="evenodd" clip-rule="evenodd" d="M12.8338 6.3623C13.1778 6.02116 13.7368 6.02116 14.0818 6.3623C14.4258 6.70443 14.4258 7.25877 14.0818 7.59991L8.78684 12.8498C8.44284 13.192 7.88384 13.192 7.53984 12.8498L4.59784 9.93333C4.25384 9.59219 4.25384 9.03784 4.59784 8.69571C4.94284 8.35458 5.50184 8.35458 5.84584 8.69571L8.16384 10.9944L12.8338 6.3623Z" fill="white"/>
<defs>
<linearGradient id="paint0_linear_49_1847" x1="19.1068" y1="-0.000350952" x2="19.1068" y2="19.1064" gradientUnits="userSpaceOnUse">
<stop stop-color="#2BDBC0"/>
<stop offset="1" stop-color="#13B58C"/>
</linearGradient>
</defs>
</svg>
