<svg width="24" height="24" viewBox="0 0 24 24" fill="none" xmlns="http://www.w3.org/2000/svg">
<path d="M16.5 14C18.16 14 19.5 15.34 19.5 17C19.5 18.66 18.16 20 16.5 20C14.84 20 13.5 18.66 13.5 17C13.5 16.76 13.53 16.54 13.59 16.31L9.21 14.01C8.66 14.62 7.88 15 7 15C5.34 15 4 13.66 4 12C4 10.34 5.34 9 7 9C7.88 9 8.66 9.39 9.21 9.99L13.59 7.69C13.53 7.46 13.5 7.24 13.5 7C13.5 5.34 14.84 4 16.5 4C18.16 4 19.5 5.34 19.5 7C19.5 8.66 18.16 10 16.5 10C15.62 10 14.84 9.61 14.29 9.01L9.91 11.31C10.0311 11.762 10.0311 12.238 9.91 12.69L14.29 14.99C14.84 14.38 15.62 14 16.5 14Z" fill="white"/>
</svg>
